<svg class="marks" width="828" height="534" xmlns="http://www.w3.org/2000/svg"><g transform="translate(46,6)"><g id="g1" class="type-group"><g transform="translate(0,0)"><rect class="background" style="pointer-events: none; fill: none; " width="672" height="480"></rect><g id="g2" class="type-group"><g transform="translate(0,480)"><rect class="background" style="pointer-events: none; fill: none; " width="0" height="0"></rect><g id="g3" class="type-rule" style="pointer-events: none; "></g><g id="g4" class="type-rule" style="pointer-events: none; "><line x1="21.300892359175084" y1="0" x2="21.300892359175084" y2="6" style="fill: none; stroke: #000000; stroke-width: 1px; opacity: 1; "></line><line x1="79.76826547685486" y1="0" x2="79.76826547685486" y2="6" style="fill: none; stroke: #000000; stroke-width: 1px; opacity: 1; "></line><line x1="138.23563859453463" y1="0" x2="138.23563859453463" y2="6" style="fill: none; stroke: #000000; stroke-width: 1px; opacity: 1; "></line><line x1="196.70301171221442" y1="0" x2="196.70301171221442" y2="6" style="fill: none; stroke: #000000; stroke-width: 1px; opacity: 1; "></line><line x1="255.17038482989423" y1="0" x2="255.17038482989423" y2="6" style="fill: none; stroke: #000000; stroke-width: 1px; opacity: 1; "></line><line x1="313.6377579475741" y1="0" x2="313.6377579475741" y2="6" style="fill: none; stroke: #000000; stroke-width: 1px; opacity: 1; "></line><line x1="372.1051310652538" y1="0" x2="372.1051310652538" y2="6" style="fill: none; stroke: #000000; stroke-width: 1px; opacity: 1; "></line><line x1="430.5725041829336" y1="0" x2="430.5725041829336" y2="6" style="fill: none; stroke: #000000; stroke-width: 1px; opacity: 1; "></line><line x1="489.03987730061334" y1="0" x2="489.03987730061334" y2="6" style="fill: none; stroke: #000000; stroke-width: 1px; opacity: 1; "></line><line x1="547.5072504182932" y1="0" x2="547.5072504182932" y2="6" style="fill: none; stroke: #000000; stroke-width: 1px; opacity: 1; "></line><line x1="605.9746235359729" y1="0" x2="605.9746235359729" y2="6" style="fill: none; stroke: #000000; stroke-width: 1px; opacity: 1; "></line><line x1="664.4419966536527" y1="0" x2="664.4419966536527" y2="6" style="fill: none; stroke: #000000; stroke-width: 1px; opacity: 1; "></line></g><g id="g5" class="type-rule" style="pointer-events: none; "></g><g id="g6" class="type-text"><text x="21.300892359175084" y="9" text-anchor="middle" dy=".9em" style="font: normal normal normal 11px/normal sans-serif; fill: #000000; opacity: 1; ">0.20</text><text x="79.76826547685486" y="9" text-anchor="middle" dy=".9em" style="font: normal normal normal 11px/normal sans-serif; fill: #000000; opacity: 1; ">0.25</text><text x="138.23563859453463" y="9" text-anchor="middle" dy=".9em" style="font: normal normal normal 11px/normal sans-serif; fill: #000000; opacity: 1; ">0.30</text><text x="196.70301171221442" y="9" text-anchor="middle" dy=".9em" style="font: normal normal normal 11px/normal sans-serif; fill: #000000; opacity: 1; ">0.35</text><text x="255.17038482989423" y="9" text-anchor="middle" dy=".9em" style="font: normal normal normal 11px/normal sans-serif; fill: #000000; opacity: 1; ">0.40</text><text x="313.6377579475741" y="9" text-anchor="middle" dy=".9em" style="font: normal normal normal 11px/normal sans-serif; fill: #000000; opacity: 1; ">0.45</text><text x="372.1051310652538" y="9" text-anchor="middle" dy=".9em" style="font: normal normal normal 11px/normal sans-serif; fill: #000000; opacity: 1; ">0.50</text><text x="430.5725041829336" y="9" text-anchor="middle" dy=".9em" style="font: normal normal normal 11px/normal sans-serif; fill: #000000; opacity: 1; ">0.55</text><text x="489.03987730061334" y="9" text-anchor="middle" dy=".9em" style="font: normal normal normal 11px/normal sans-serif; fill: #000000; opacity: 1; ">0.60</text><text x="547.5072504182932" y="9" text-anchor="middle" dy=".9em" style="font: normal normal normal 11px/normal sans-serif; fill: #000000; opacity: 1; ">0.65</text><text x="605.9746235359729" y="9" text-anchor="middle" dy=".9em" style="font: normal normal normal 11px/normal sans-serif; fill: #000000; opacity: 1; ">0.70</text><text x="664.4419966536527" y="9" text-anchor="middle" dy=".9em" style="font: normal normal normal 11px/normal sans-serif; fill: #000000; opacity: 1; ">0.75</text></g><g id="g7" class="type-path" style="pointer-events: none; "><path transform="translate(0.5,0.5)" d="M0,6V0H672V6" style="fill: none; stroke: #000000; stroke-width: 1px; "></path></g><g id="g8" class="type-text"><text x="336" y="35" text-anchor="middle" dy=".35em" style="font: normal normal bold 11px/normal sans-serif; fill: #000000; ">kappa</text></g></g></g><g id="g9" class="type-group"><g transform="translate(0,0)"><rect class="background" style="pointer-events: none; fill: none; " width="0" height="0"></rect><g id="g10" class="type-rule" style="pointer-events: none; "></g><g id="g11" class="type-rule" style="pointer-events: none; "><line x1="-6" y1="410.01619316655183" x2="0" y2="410.01619316655183" style="fill: none; stroke: #000000; stroke-width: 1px; opacity: 1; "></line><line x1="-6" y1="236.27344282223007" x2="0" y2="236.27344282223007" style="fill: none; stroke: #000000; stroke-width: 1px; opacity: 1; "></line><line x1="-6" y1="62.53069247790836" x2="0" y2="62.53069247790836" style="fill: none; stroke: #000000; stroke-width: 1px; opacity: 1; "></line></g><g id="g12" class="type-rule" style="pointer-events: none; "></g><g id="g13" class="type-text"><text x="-9" y="410.01619316655183" text-anchor="end" dy=".35em" style="font: normal normal normal 11px/normal sans-serif; fill: #000000; opacity: 1; ">1.0</text><text x="-9" y="236.27344282223007" text-anchor="end" dy=".35em" style="font: normal normal normal 11px/normal sans-serif; fill: #000000; opacity: 1; ">2.0</text><text x="-9" y="62.53069247790836" text-anchor="end" dy=".35em" style="font: normal normal normal 11px/normal sans-serif; fill: #000000; opacity: 1; ">3.0</text></g><g id="g14" class="type-path" style="pointer-events: none; "><path transform="translate(0.5,0.5)" d="M-6,0H0V480H-6" style="fill: none; stroke: #000000; stroke-width: 1px; "></path></g><g id="g15" class="type-text"><text x="-35" y="240" text-anchor="middle" transform="rotate(-90 -35,240)" dy=".35em" style="font: normal normal bold 11px/normal sans-serif; fill: #000000; ">dist_jitter</text></g></g></g><g id="g16" class="type-symbol"><path transform="translate(274.15950920245456,360.6476059720361)" d="M0,2.5231325220201604A2.5231325220201604,2.5231325220201604 0 1,1 0,-2.5231325220201604A2.5231325220201604,2.5231325220201604 0 1,1 0,2.5231325220201604Z" style="fill: #1f77b4; "></path><path transform="translate(517.7735638594532,260.42273696757195)" d="M0,2.5231325220201604A2.5231325220201604,2.5231325220201604 0 1,1 0,-2.5231325220201604A2.5231325220201604,2.5231325220201604 0 1,1 0,2.5231325220201604Z" style="fill: #1f77b4; "></path><path transform="translate(493.4121583937537,192.17285207034575)" d="M0,2.5231325220201604A2.5231325220201604,2.5231325220201604 0 1,1 0,-2.5231325220201604A2.5231325220201604,2.5231325220201604 0 1,1 0,2.5231325220201604Z" style="fill: #1f77b4; "></path><path transform="translate(517.7735638594532,296.2313439435469)" d="M0,2.5231325220201604A2.5231325220201604,2.5231325220201604 0 1,1 0,-2.5231325220201604A2.5231325220201604,2.5231325220201604 0 1,1 0,2.5231325220201604Z" style="fill: #1f77b4; "></path><path transform="translate(395.96653653095336,188.70226306176306)" d="M0,2.5231325220201604A2.5231325220201604,2.5231325220201604 0 1,1 0,-2.5231325220201604A2.5231325220201604,2.5231325220201604 0 1,1 0,2.5231325220201604Z" style="fill: #1f77b4; "></path><path transform="translate(420.3279419966539,354.6169461535911)" d="M0,2.5231325220201604A2.5231325220201604,2.5231325220201604 0 1,1 0,-2.5231325220201604A2.5231325220201604,2.5231325220201604 0 1,1 0,2.5231325220201604Z" style="fill: #1f77b4; "></path><path transform="translate(517.7735638594532,394.116832843062)" d="M0,2.5231325220201604A2.5231325220201604,2.5231325220201604 0 1,1 0,-2.5231325220201604A2.5231325220201604,2.5231325220201604 0 1,1 0,2.5231325220201604Z" style="fill: #1f77b4; "></path><path transform="translate(566.4963747908535,277.14424161501626)" d="M0,2.5231325220201604A2.5231325220201604,2.5231325220201604 0 1,1 0,-2.5231325220201604A2.5231325220201604,2.5231325220201604 0 1,1 0,2.5231325220201604Z" style="fill: #1f77b4; "></path><path transform="translate(225.43669827105433,381.47924373836867)" d="M0,2.5231325220201604A2.5231325220201604,2.5231325220201604 0 1,1 0,-2.5231325220201604A2.5231325220201604,2.5231325220201604 0 1,1 0,2.5231325220201604Z" style="fill: #1f77b4; "></path><path transform="translate(444.6893474623535,195.20927482964333)" d="M0,2.5231325220201604A2.5231325220201604,2.5231325220201604 0 1,1 0,-2.5231325220201604A2.5231325220201604,2.5231325220201604 0 1,1 0,2.5231325220201604Z" style="fill: #1f77b4; "></path><path transform="translate(322.8823201338536,211.18360136644043)" d="M0,2.5231325220201604A2.5231325220201604,2.5231325220201604 0 1,1 0,-2.5231325220201604A2.5231325220201604,2.5231325220201604 0 1,1 0,2.5231325220201604Z" style="fill: #1f77b4; "></path><path transform="translate(30.545454545454657,442.7534516675675)" d="M0,2.5231325220201604A2.5231325220201604,2.5231325220201604 0 1,1 0,-2.5231325220201604A2.5231325220201604,2.5231325220201604 0 1,1 0,2.5231325220201604Z" style="fill: #1f77b4; "></path><path transform="translate(517.7735638594532,451.4617226897584)" d="M0,2.5231325220201604A2.5231325220201604,2.5231325220201604 0 1,1 0,-2.5231325220201604A2.5231325220201604,2.5231325220201604 0 1,1 0,2.5231325220201604Z" style="fill: #1f77b4; "></path><path transform="translate(395.96653653095336,280.617565407901)" d="M0,2.5231325220201604A2.5231325220201604,2.5231325220201604 0 1,1 0,-2.5231325220201604A2.5231325220201604,2.5231325220201604 0 1,1 0,2.5231325220201604Z" style="fill: #1f77b4; "></path><path transform="translate(493.4121583937537,215.29324259340382)" d="M0,2.5231325220201604A2.5231325220201604,2.5231325220201604 0 1,1 0,-2.5231325220201604A2.5231325220201604,2.5231325220201604 0 1,1 0,2.5231325220201604Z" style="fill: #1f77b4; "></path><path transform="translate(395.96653653095336,216.48501638732716)" d="M0,2.5231325220201604A2.5231325220201604,2.5231325220201604 0 1,1 0,-2.5231325220201604A2.5231325220201604,2.5231325220201604 0 1,1 0,2.5231325220201604Z" style="fill: #1f77b4; "></path><path transform="translate(322.8823201338536,283.63353428674304)" d="M0,2.5231325220201604A2.5231325220201604,2.5231325220201604 0 1,1 0,-2.5231325220201604A2.5231325220201604,2.5231325220201604 0 1,1 0,2.5231325220201604Z" style="fill: #1f77b4; "></path><path transform="translate(517.7735638594532,65.15540056357179)" d="M0,2.5231325220201604A2.5231325220201604,2.5231325220201604 0 1,1 0,-2.5231325220201604A2.5231325220201604,2.5231325220201604 0 1,1 0,2.5231325220201604Z" style="fill: #1f77b4; "></path><path transform="translate(420.3279419966539,271.47713432829465)" d="M0,2.5231325220201604A2.5231325220201604,2.5231325220201604 0 1,1 0,-2.5231325220201604A2.5231325220201604,2.5231325220201604 0 1,1 0,2.5231325220201604Z" style="fill: #1f77b4; "></path><path transform="translate(371.6051310652538,229.40361552354278)" d="M0,2.5231325220201604A2.5231325220201604,2.5231325220201604 0 1,1 0,-2.5231325220201604A2.5231325220201604,2.5231325220201604 0 1,1 0,2.5231325220201604Z" style="fill: #1f77b4; "></path><path transform="translate(501.5326268823199,63.7403091392967)" d="M0,2.5231325220201604A2.5231325220201604,2.5231325220201604 0 1,1 0,-2.5231325220201604A2.5231325220201604,2.5231325220201604 0 1,1 0,2.5231325220201604Z" style="fill: #1f77b4; "></path><path transform="translate(469.05075292805304,21.818181818180904)" d="M0,2.5231325220201604A2.5231325220201604,2.5231325220201604 0 1,1 0,-2.5231325220201604A2.5231325220201604,2.5231325220201604 0 1,1 0,2.5231325220201604Z" style="fill: #1f77b4; "></path><path transform="translate(210.44506413831573,383.3023787538572)" d="M0,2.5231325220201604A2.5231325220201604,2.5231325220201604 0 1,1 0,-2.5231325220201604A2.5231325220201604,2.5231325220201604 0 1,1 0,2.5231325220201604Z" style="fill: #1f77b4; "></path><path transform="translate(499.0340211935303,176.59453146384982)" d="M0,2.5231325220201604A2.5231325220201604,2.5231325220201604 0 1,1 0,-2.5231325220201604A2.5231325220201604,2.5231325220201604 0 1,1 0,2.5231325220201604Z" style="fill: #1f77b4; "></path><path transform="translate(304.14277746793067,286.05392772560424)" d="M0,2.5231325220201604A2.5231325220201604,2.5231325220201604 0 1,1 0,-2.5231325220201604A2.5231325220201604,2.5231325220201604 0 1,1 0,2.5231325220201604Z" style="fill: #1f77b4; "></path><path transform="translate(347.24372559955435,225.56998923655615)" d="M0,2.5231325220201604A2.5231325220201604,2.5231325220201604 0 1,1 0,-2.5231325220201604A2.5231325220201604,2.5231325220201604 0 1,1 0,2.5231325220201604Z" style="fill: #1f77b4; "></path><path transform="translate(349.1176798661465,187.6817566851161)" d="M0,2.5231325220201604A2.5231325220201604,2.5231325220201604 0 1,1 0,-2.5231325220201604A2.5231325220201604,2.5231325220201604 0 1,1 0,2.5231325220201604Z" style="fill: #1f77b4; "></path><path transform="translate(409.0842163970998,264.4324557773533)" d="M0,2.5231325220201604A2.5231325220201604,2.5231325220201604 0 1,1 0,-2.5231325220201604A2.5231325220201604,2.5231325220201604 0 1,1 0,2.5231325220201604Z" style="fill: #1f77b4; "></path><path transform="translate(459.68098159509213,200.40442601738908)" d="M0,2.5231325220201604A2.5231325220201604,2.5231325220201604 0 1,1 0,-2.5231325220201604A2.5231325220201604,2.5231325220201604 0 1,1 0,2.5231325220201604Z" style="fill: #1f77b4; "></path><path transform="translate(274.15950920245456,438.55102188630144)" d="M0,2.5231325220201604A2.5231325220201604,2.5231325220201604 0 1,1 0,-2.5231325220201604A2.5231325220201604,2.5231325220201604 0 1,1 0,2.5231325220201604Z" style="fill: #1f77b4; "></path><path transform="translate(409.0842163970998,453.6378294777589)" d="M0,2.5231325220201604A2.5231325220201604,2.5231325220201604 0 1,1 0,-2.5231325220201604A2.5231325220201604,2.5231325220201604 0 1,1 0,2.5231325220201604Z" style="fill: #1f77b4; "></path><path transform="translate(260.2387060791973,388.6533377770943)" d="M0,2.5231325220201604A2.5231325220201604,2.5231325220201604 0 1,1 0,-2.5231325220201604A2.5231325220201604,2.5231325220201604 0 1,1 0,2.5231325220201604Z" style="fill: #1f77b4; "></path><path transform="translate(448.1695482431673,197.14820005974667)" d="M0,2.5231325220201604A2.5231325220201604,2.5231325220201604 0 1,1 0,-2.5231325220201604A2.5231325220201604,2.5231325220201604 0 1,1 0,2.5231325220201604Z" style="fill: #1f77b4; "></path><path transform="translate(451.64974902398217,263.0501681159853)" d="M0,2.5231325220201604A2.5231325220201604,2.5231325220201604 0 1,1 0,-2.5231325220201604A2.5231325220201604,2.5231325220201604 0 1,1 0,2.5231325220201604Z" style="fill: #1f77b4; "></path><path transform="translate(392.4863357501396,252.7141573451548)" d="M0,2.5231325220201604A2.5231325220201604,2.5231325220201604 0 1,1 0,-2.5231325220201604A2.5231325220201604,2.5231325220201604 0 1,1 0,2.5231325220201604Z" style="fill: #1f77b4; "></path><path transform="translate(455.12994980479573,242.2527846712868)" d="M0,2.5231325220201604A2.5231325220201604,2.5231325220201604 0 1,1 0,-2.5231325220201604A2.5231325220201604,2.5231325220201604 0 1,1 0,2.5231325220201604Z" style="fill: #1f77b4; "></path><path transform="translate(392.4863357501396,250.93488399063213)" d="M0,2.5231325220201604A2.5231325220201604,2.5231325220201604 0 1,1 0,-2.5231325220201604A2.5231325220201604,2.5231325220201604 0 1,1 0,2.5231325220201604Z" style="fill: #1f77b4; "></path><path transform="translate(392.4863357501396,213.42032809267846)" d="M0,2.5231325220201604A2.5231325220201604,2.5231325220201604 0 1,1 0,-2.5231325220201604A2.5231325220201604,2.5231325220201604 0 1,1 0,2.5231325220201604Z" style="fill: #1f77b4; "></path><path transform="translate(469.05075292805304,218.7439536295323)" d="M0,2.5231325220201604A2.5231325220201604,2.5231325220201604 0 1,1 0,-2.5231325220201604A2.5231325220201604,2.5231325220201604 0 1,1 0,2.5231325220201604Z" style="fill: #1f77b4; "></path><path transform="translate(465.57055214723937,291.8046306443292)" d="M0,2.5231325220201604A2.5231325220201604,2.5231325220201604 0 1,1 0,-2.5231325220201604A2.5231325220201604,2.5231325220201604 0 1,1 0,2.5231325220201604Z" style="fill: #1f77b4; "></path><path transform="translate(350.7239263803679,282.91885420202084)" d="M0,2.5231325220201604A2.5231325220201604,2.5231325220201604 0 1,1 0,-2.5231325220201604A2.5231325220201604,2.5231325220201604 0 1,1 0,2.5231325220201604Z" style="fill: #1f77b4; "></path><path transform="translate(531.6943669827104,215.3287745427893)" d="M0,2.5231325220201604A2.5231325220201604,2.5231325220201604 0 1,1 0,-2.5231325220201604A2.5231325220201604,2.5231325220201604 0 1,1 0,2.5231325220201604Z" style="fill: #1f77b4; "></path><path transform="translate(121.03067484662645,375.6709240244518)" d="M0,2.5231325220201604A2.5231325220201604,2.5231325220201604 0 1,1 0,-2.5231325220201604A2.5231325220201604,2.5231325220201604 0 1,1 0,2.5231325220201604Z" style="fill: #1f77b4; "></path><path transform="translate(510.8131622978246,209.01843886931425)" d="M0,2.5231325220201604A2.5231325220201604,2.5231325220201604 0 1,1 0,-2.5231325220201604A2.5231325220201604,2.5231325220201604 0 1,1 0,2.5231325220201604Z" style="fill: #1f77b4; "></path><path transform="translate(218.47629670942575,353.2501049633106)" d="M0,2.5231325220201604A2.5231325220201604,2.5231325220201604 0 1,1 0,-2.5231325220201604A2.5231325220201604,2.5231325220201604 0 1,1 0,2.5231325220201604Z" style="fill: #1f77b4; "></path><path transform="translate(44.46625766871186,388.6527231033291)" d="M0,2.5231325220201604A2.5231325220201604,2.5231325220201604 0 1,1 0,-2.5231325220201604A2.5231325220201604,2.5231325220201604 0 1,1 0,2.5231325220201604Z" style="fill: #1f77b4; "></path><path transform="translate(489.93195761293896,220.49085941383476)" d="M0,2.5231325220201604A2.5231325220201604,2.5231325220201604 0 1,1 0,-2.5231325220201604A2.5231325220201604,2.5231325220201604 0 1,1 0,2.5231325220201604Z" style="fill: #1f77b4; "></path><path transform="translate(176.7138873396541,384.9454811840386)" d="M0,2.5231325220201604A2.5231325220201604,2.5231325220201604 0 1,1 0,-2.5231325220201604A2.5231325220201604,2.5231325220201604 0 1,1 0,2.5231325220201604Z" style="fill: #1f77b4; "></path><path transform="translate(434.24874511991123,238.63136819399583)" d="M0,2.5231325220201604A2.5231325220201604,2.5231325220201604 0 1,1 0,-2.5231325220201604A2.5231325220201604,2.5231325220201604 0 1,1 0,2.5231325220201604Z" style="fill: #1f77b4; "></path><path transform="translate(641.4545454545454,206.3516633330243)" d="M0,2.5231325220201604A2.5231325220201604,2.5231325220201604 0 1,1 0,-2.5231325220201604A2.5231325220201604,2.5231325220201604 0 1,1 0,2.5231325220201604Z" style="fill: #ff7f0e; "></path><path transform="translate(506.529838259899,285.1462275627141)" d="M0,2.5231325220201604A2.5231325220201604,2.5231325220201604 0 1,1 0,-2.5231325220201604A2.5231325220201604,2.5231325220201604 0 1,1 0,2.5231325220201604Z" style="fill: #ff7f0e; "></path><path transform="translate(394.09258226436117,213.81572756110108)" d="M0,2.5231325220201604A2.5231325220201604,2.5231325220201604 0 1,1 0,-2.5231325220201604A2.5231325220201604,2.5231325220201604 0 1,1 0,2.5231325220201604Z" style="fill: #ff7f0e; "></path><path transform="translate(47.14333519241599,419.9529532630858)" d="M0,2.5231325220201604A2.5231325220201604,2.5231325220201604 0 1,1 0,-2.5231325220201604A2.5231325220201604,2.5231325220201604 0 1,1 0,2.5231325220201604Z" style="fill: #ff7f0e; "></path><path transform="translate(455.12994980479573,254.38368666959312)" d="M0,2.5231325220201604A2.5231325220201604,2.5231325220201604 0 1,1 0,-2.5231325220201604A2.5231325220201604,2.5231325220201604 0 1,1 0,2.5231325220201604Z" style="fill: #ff7f0e; "></path><path transform="translate(395.6988287785838,216.4136858854572)" d="M0,2.5231325220201604A2.5231325220201604,2.5231325220201604 0 1,1 0,-2.5231325220201604A2.5231325220201604,2.5231325220201604 0 1,1 0,2.5231325220201604Z" style="fill: #ff7f0e; "></path><path transform="translate(185.28053541550543,386.50682670826075)" d="M0,2.5231325220201604A2.5231325220201604,2.5231325220201604 0 1,1 0,-2.5231325220201604A2.5231325220201604,2.5231325220201604 0 1,1 0,2.5231325220201604Z" style="fill: #ff7f0e; "></path><path transform="translate(498.498605688789,274.4001979024798)" d="M0,2.5231325220201604A2.5231325220201604,2.5231325220201604 0 1,1 0,-2.5231325220201604A2.5231325220201604,2.5231325220201604 0 1,1 0,2.5231325220201604Z" style="fill: #ff7f0e; "></path><path transform="translate(361.96765197992227,430.5261148680347)" d="M0,2.5231325220201604A2.5231325220201604,2.5231325220201604 0 1,1 0,-2.5231325220201604A2.5231325220201604,2.5231325220201604 0 1,1 0,2.5231325220201604Z" style="fill: #ff7f0e; "></path><path transform="translate(496.8923591745674,232.91711899461058)" d="M0,2.5231325220201604A2.5231325220201604,2.5231325220201604 0 1,1 0,-2.5231325220201604A2.5231325220201604,2.5231325220201604 0 1,1 0,2.5231325220201604Z" style="fill: #2ca02c; "></path><path transform="translate(622.1795872838811,294.97841745825394)" d="M0,2.5231325220201604A2.5231325220201604,2.5231325220201604 0 1,1 0,-2.5231325220201604A2.5231325220201604,2.5231325220201604 0 1,1 0,2.5231325220201604Z" style="fill: #2ca02c; "></path><path transform="translate(496.8923591745674,208.58409716885592)" d="M0,2.5231325220201604A2.5231325220201604,2.5231325220201604 0 1,1 0,-2.5231325220201604A2.5231325220201604,2.5231325220201604 0 1,1 0,2.5231325220201604Z" style="fill: #2ca02c; "></path><path transform="translate(79.26826547685486,377.47068761826085)" d="M0,2.5231325220201604A2.5231325220201604,2.5231325220201604 0 1,1 0,-2.5231325220201604A2.5231325220201604,2.5231325220201604 0 1,1 0,2.5231325220201604Z" style="fill: #2ca02c; "></path><path transform="translate(413.36754043502543,458.1818181818182)" d="M0,2.5231325220201604A2.5231325220201604,2.5231325220201604 0 1,1 0,-2.5231325220201604A2.5231325220201604,2.5231325220201604 0 1,1 0,2.5231325220201604Z" style="fill: #2ca02c; "></path><path transform="translate(455.12994980479573,275.7445992386613)" d="M0,2.5231325220201604A2.5231325220201604,2.5231325220201604 0 1,1 0,-2.5231325220201604A2.5231325220201604,2.5231325220201604 0 1,1 0,2.5231325220201604Z" style="fill: #2ca02c; "></path><path transform="translate(162.79308421639692,388.8937133335762)" d="M0,2.5231325220201604A2.5231325220201604,2.5231325220201604 0 1,1 0,-2.5231325220201604A2.5231325220201604,2.5231325220201604 0 1,1 0,2.5231325220201604Z" style="fill: #2ca02c; "></path><path transform="translate(329.8427216954823,390.3966355422144)" d="M0,2.5231325220201604A2.5231325220201604,2.5231325220201604 0 1,1 0,-2.5231325220201604A2.5231325220201604,2.5231325220201604 0 1,1 0,2.5231325220201604Z" style="fill: #2ca02c; "></path></g><g id="g17" class="type-group"><g transform="translate(686.4419966536527,0)"><rect class="background" style="pointer-events: none; fill: none; " width="90" height="61"></rect><g id="g18" class="type-text" style="pointer-events: none; "><text x="3" y="3" text-anchor="start" dy=".9em" style="font: normal normal bold 11px/normal sans-serif; fill: #000000; opacity: 1; ">t1_nwk</text></g><g id="g19" class="type-symbol" style="pointer-events: none; "><path transform="translate(7.5,23)" d="M0,3.989422804014327A3.989422804014327,3.989422804014327 0 1,1 0,-3.989422804014327A3.989422804014327,3.989422804014327 0 1,1 0,3.989422804014327Z" style="fill: #1f77b4; stroke: #888888; stroke-width: 1px; opacity: 1; "></path><path transform="translate(7.5,38)" d="M0,3.989422804014327A3.989422804014327,3.989422804014327 0 1,1 0,-3.989422804014327A3.989422804014327,3.989422804014327 0 1,1 0,3.989422804014327Z" style="fill: #ff7f0e; stroke: #888888; stroke-width: 1px; opacity: 1; "></path><path transform="translate(7.5,53)" d="M0,3.989422804014327A3.989422804014327,3.989422804014327 0 1,1 0,-3.989422804014327A3.989422804014327,3.989422804014327 0 1,1 0,3.989422804014327Z" style="fill: #2ca02c; stroke: #888888; stroke-width: 1px; opacity: 1; "></path></g><g id="g20" class="type-text" style="pointer-events: none; "><text x="16" y="23" text-anchor="start" dy=".35em" style="font: normal normal normal 10px/normal sans-serif; fill: #000000; opacity: 1; ">((((1,2),3),4),5);</text><text x="16" y="38" text-anchor="start" dy=".35em" style="font: normal normal normal 10px/normal sans-serif; fill: #000000; opacity: 1; ">(((1,2),(3,5)),4);</text><text x="16" y="53" text-anchor="start" dy=".35em" style="font: normal normal normal 10px/normal sans-serif; fill: #000000; opacity: 1; ">(((1,2),3),(4,5));</text></g></g></g><g id="g21" class="type-group"><g transform="translate(686.4419966536527,0.5)"><rect class="background" style="pointer-events: none; fill: none; " width="6" height="6"></rect><g id="g22" class="type-text" style="pointer-events: none; "></g><g id="g23" class="type-symbol" style="pointer-events: none; "></g><g id="g24" class="type-text" style="pointer-events: none; "></g></g></g></g></g></g></svg>