<?xml version="1.0" encoding="utf-8" standalone="no"?>
<!DOCTYPE svg PUBLIC "-//W3C//DTD SVG 1.1//EN"
  "http://www.w3.org/Graphics/SVG/1.1/DTD/svg11.dtd">
<!-- Created with matplotlib (http://matplotlib.org/) -->
<svg height="288pt" version="1.1" viewBox="0 0 288 288" width="288pt" xmlns="http://www.w3.org/2000/svg" xmlns:xlink="http://www.w3.org/1999/xlink">
 <defs>
  <style type="text/css">
*{stroke-linecap:butt;stroke-linejoin:round;}
  </style>
 </defs>
 <g id="figure_1">
  <g id="patch_1">
   <path d="
M0 288
L288 288
L288 0
L0 0
z
" style="fill:#ffffff;"/>
  </g>
  <g id="axes_1">
   <g id="patch_2">
    <path d="
M36 259.2
L259.2 259.2
L259.2 28.8
L36 28.8
z
" style="fill:#ffffff;"/>
   </g>
   <g id="matplotlib.axis_1">
    <g id="xtick_1">
     <g id="line2d_1">
      <defs>
       <path d="
M0 0
L0 6" id="m44d4eda7dc" style="stroke:#262626;"/>
      </defs>
      <g>
       <use style="fill:#262626;stroke:#262626;" x="36.0" xlink:href="#m44d4eda7dc" y="259.2"/>
      </g>
     </g>
     <g id="line2d_2">
      <defs>
       <path d="
M0 0
L0 -6" id="m6214b81e1c" style="stroke:#262626;"/>
      </defs>
      <g>
       <use style="fill:#262626;stroke:#262626;" x="36.0" xlink:href="#m6214b81e1c" y="28.8"/>
      </g>
     </g>
     <g id="text_1">
      <!-- 100 -->
      <defs>
       <path d="
M55.5 36.1562
Q55.5 26.7031 53.4688 19.7188
Q51.4531 12.75 47.875 8.20312
Q44.2969 3.65625 39.4219 1.42188
Q34.5469 -0.796875 28.9062 -0.796875
Q23.25 -0.796875 18.4219 1.42188
Q13.5938 3.65625 10.0469 8.20312
Q6.5 12.75 4.5 19.7188
Q2.5 26.7031 2.5 36.1562
Q2.5 45.6562 4.5 52.5938
Q6.5 59.5469 10.0469 64.0938
Q13.5938 68.6562 18.4219 70.875
Q23.25 73.0938 28.9062 73.0938
Q34.5469 73.0938 39.4219 70.875
Q44.2969 68.6562 47.875 64.0938
Q51.4531 59.5469 53.4688 52.5938
Q55.5 45.6562 55.5 36.1562
M42.75 36.1562
Q42.75 44 41.5938 49.1406
Q40.4531 54.2969 38.5156 57.3438
Q36.5938 60.4062 34.0938 61.625
Q31.5938 62.8438 28.9062 62.8438
Q26.25 62.8438 23.7656 61.625
Q21.2969 60.4062 19.3906 57.3438
Q17.5 54.2969 16.375 49.1406
Q15.25 44 15.25 36.1562
Q15.25 28.2969 16.375 23.1406
Q17.5 18 19.3906 14.9531
Q21.2969 11.9062 23.7656 10.6719
Q26.25 9.45312 28.9062 9.45312
Q31.5938 9.45312 34.0938 10.6719
Q36.5938 11.9062 38.5156 14.9531
Q40.4531 18 41.5938 23.1406
Q42.75 28.2969 42.75 36.1562" id="Lato-Bold-30"/>
       <path d="
M13.4531 9.25
L28.0938 9.25
L28.0938 51.4062
Q28.0938 53.8438 28.25 56.5469
L17.8438 47.8438
Q17.2031 47.2969 16.5156 47.0938
Q15.8438 46.9062 15.2031 46.9062
Q14.2031 46.9062 13.375 47.3281
Q12.5469 47.75 12.1562 48.2969
L8.25 53.6562
L30.2969 72.4062
L40.4531 72.4062
L40.4531 9.25
L53.4531 9.25
L53.4531 0
L13.4531 0
z
" id="Lato-Bold-31"/>
      </defs>
      <g style="fill:#262626;" transform="translate(27.8375 279.6296875)scale(0.1 -0.1)">
       <use xlink:href="#Lato-Bold-31"/>
       <use x="58.0" xlink:href="#Lato-Bold-30"/>
       <use x="116.0" xlink:href="#Lato-Bold-30"/>
      </g>
     </g>
    </g>
    <g id="xtick_2">
     <g id="line2d_3">
      <g>
       <use style="fill:#262626;stroke:#262626;" x="60.8" xlink:href="#m44d4eda7dc" y="259.2"/>
      </g>
     </g>
     <g id="line2d_4">
      <g>
       <use style="fill:#262626;stroke:#262626;" x="60.8" xlink:href="#m6214b81e1c" y="28.8"/>
      </g>
     </g>
     <g id="text_2">
      <!-- 105 -->
      <defs>
       <path d="
M49.4531 67.0469
Q49.4531 64.4062 47.7656 62.75
Q46.0938 61.0938 42.2031 61.0938
L22.2969 61.0938
L19.7031 46
Q24.5938 47 28.6562 47
Q34.3438 47 38.6719 45.2969
Q43 43.5938 45.9531 40.5938
Q48.9062 37.5938 50.4062 33.5625
Q51.9062 29.5469 51.9062 24.9062
Q51.9062 19.1562 49.875 14.4062
Q47.8438 9.65625 44.25 6.28125
Q40.6562 2.90625 35.7188 1.04688
Q30.7969 -0.796875 25 -0.796875
Q21.5938 -0.796875 18.5469 -0.09375
Q15.5 0.59375 12.8281 1.76562
Q10.1562 2.95312 7.875 4.46875
Q5.59375 6 3.79688 7.70312
L7.59375 12.9531
Q8.79688 14.6562 10.7969 14.6562
Q12.0469 14.6562 13.3125 13.8438
Q14.5938 13.0469 16.2969 12.0938
Q18 11.1562 20.25 10.3438
Q22.5 9.54688 25.7031 9.54688
Q29.0938 9.54688 31.6875 10.6406
Q34.2969 11.75 36.0156 13.7188
Q37.75 15.7031 38.625 18.4219
Q39.5 21.1562 39.5 24.3438
Q39.5 30.25 36.0781 33.5781
Q32.6562 36.9062 26 36.9062
Q20.75 36.9062 15.4531 35
L7.75 37.2031
L13.75 72.2969
L49.4531 72.2969
z
" id="Lato-Bold-35"/>
      </defs>
      <g style="fill:#262626;" transform="translate(52.8171875 279.6296875)scale(0.1 -0.1)">
       <use xlink:href="#Lato-Bold-31"/>
       <use x="58.0" xlink:href="#Lato-Bold-30"/>
       <use x="116.0" xlink:href="#Lato-Bold-35"/>
      </g>
     </g>
    </g>
    <g id="xtick_3">
     <g id="line2d_5">
      <g>
       <use style="fill:#262626;stroke:#262626;" x="85.6" xlink:href="#m44d4eda7dc" y="259.2"/>
      </g>
     </g>
     <g id="line2d_6">
      <g>
       <use style="fill:#262626;stroke:#262626;" x="85.6" xlink:href="#m6214b81e1c" y="28.8"/>
      </g>
     </g>
     <g id="text_3">
      <!-- 110 -->
      <g style="fill:#262626;" transform="translate(77.4375 279.6296875)scale(0.1 -0.1)">
       <use xlink:href="#Lato-Bold-31"/>
       <use x="58.0" xlink:href="#Lato-Bold-31"/>
       <use x="116.0" xlink:href="#Lato-Bold-30"/>
      </g>
     </g>
    </g>
    <g id="xtick_4">
     <g id="line2d_7">
      <g>
       <use style="fill:#262626;stroke:#262626;" x="110.4" xlink:href="#m44d4eda7dc" y="259.2"/>
      </g>
     </g>
     <g id="line2d_8">
      <g>
       <use style="fill:#262626;stroke:#262626;" x="110.4" xlink:href="#m6214b81e1c" y="28.8"/>
      </g>
     </g>
     <g id="text_4">
      <!-- 115 -->
      <g style="fill:#262626;" transform="translate(102.4171875 279.6296875)scale(0.1 -0.1)">
       <use xlink:href="#Lato-Bold-31"/>
       <use x="58.0" xlink:href="#Lato-Bold-31"/>
       <use x="116.0" xlink:href="#Lato-Bold-35"/>
      </g>
     </g>
    </g>
    <g id="xtick_5">
     <g id="line2d_9">
      <g>
       <use style="fill:#262626;stroke:#262626;" x="135.2" xlink:href="#m44d4eda7dc" y="259.2"/>
      </g>
     </g>
     <g id="line2d_10">
      <g>
       <use style="fill:#262626;stroke:#262626;" x="135.2" xlink:href="#m6214b81e1c" y="28.8"/>
      </g>
     </g>
     <g id="text_5">
      <!-- 120 -->
      <defs>
       <path d="
M30.0938 73.0938
Q35.0938 73.0938 39.25 71.625
Q43.4062 70.1562 46.3438 67.4531
Q49.2969 64.75 50.9375 60.9531
Q52.5938 57.1562 52.5938 52.5
Q52.5938 48.5 51.4219 45.0938
Q50.25 41.7031 48.2656 38.5938
Q46.2969 35.5 43.6406 32.5938
Q41 29.7031 38.0938 26.7031
L21.7969 10.0469
Q24.2031 10.75 26.5 11.125
Q28.7969 11.5 30.9062 11.5
L49.4531 11.5
Q51.4531 11.5 52.625 10.375
Q53.7969 9.25 53.7969 7.40625
L53.7969 0
L4.20312 0
L4.20312 4.09375
Q4.20312 5.34375 4.71875 6.6875
Q5.25 8.04688 6.40625 9.20312
L28.3438 31.2031
Q31.0938 34 33.2656 36.5469
Q35.4531 39.0938 36.9219 41.5938
Q38.4062 44.0938 39.1719 46.6719
Q39.9531 49.25 39.9531 52.0938
Q39.9531 54.7031 39.2031 56.6719
Q38.4531 58.6562 37.0469 60
Q35.6562 61.3438 33.7188 62.0156
Q31.7969 62.7031 29.4062 62.7031
Q24.9531 62.7031 22.0781 60.4531
Q19.2031 58.2031 18.0469 54.4062
Q17.5 52.5 16.3906 51.6719
Q15.2969 50.8438 13.5938 50.8438
Q12.8438 50.8438 11.9531 51
L5.45312 52.1562
Q6.20312 57.3438 8.34375 61.2656
Q10.5 65.2031 13.7188 67.8281
Q16.9531 70.4531 21.125 71.7656
Q25.2969 73.0938 30.0938 73.0938" id="Lato-Bold-32"/>
      </defs>
      <g style="fill:#262626;" transform="translate(127.0375 279.6296875)scale(0.1 -0.1)">
       <use xlink:href="#Lato-Bold-31"/>
       <use x="58.0" xlink:href="#Lato-Bold-32"/>
       <use x="116.0" xlink:href="#Lato-Bold-30"/>
      </g>
     </g>
    </g>
    <g id="xtick_6">
     <g id="line2d_11">
      <g>
       <use style="fill:#262626;stroke:#262626;" x="160.0" xlink:href="#m44d4eda7dc" y="259.2"/>
      </g>
     </g>
     <g id="line2d_12">
      <g>
       <use style="fill:#262626;stroke:#262626;" x="160.0" xlink:href="#m6214b81e1c" y="28.8"/>
      </g>
     </g>
     <g id="text_6">
      <!-- 125 -->
      <g style="fill:#262626;" transform="translate(152.0171875 279.6296875)scale(0.1 -0.1)">
       <use xlink:href="#Lato-Bold-31"/>
       <use x="58.0" xlink:href="#Lato-Bold-32"/>
       <use x="116.0" xlink:href="#Lato-Bold-35"/>
      </g>
     </g>
    </g>
    <g id="xtick_7">
     <g id="line2d_13">
      <g>
       <use style="fill:#262626;stroke:#262626;" x="184.8" xlink:href="#m44d4eda7dc" y="259.2"/>
      </g>
     </g>
     <g id="line2d_14">
      <g>
       <use style="fill:#262626;stroke:#262626;" x="184.8" xlink:href="#m6214b81e1c" y="28.8"/>
      </g>
     </g>
     <g id="text_7">
      <!-- 130 -->
      <defs>
       <path d="
M31.25 73.0938
Q36.25 73.0938 40.2656 71.6719
Q44.2969 70.25 47.1406 67.7188
Q50 65.2031 51.5156 61.7969
Q53.0469 58.4062 53.0469 54.4531
Q53.0469 51 52.2656 48.375
Q51.5 45.75 50.0156 43.7969
Q48.5469 41.8438 46.4219 40.5
Q44.2969 39.1562 41.5938 38.25
Q48.0938 36.2031 51.2969 32
Q54.5 27.7969 54.5 21.4531
Q54.5 16.0469 52.5 11.8906
Q50.5 7.75 47.0938 4.92188
Q43.7031 2.09375 39.2188 0.640625
Q34.75 -0.796875 29.75 -0.796875
Q24.2969 -0.796875 20.25 0.453125
Q16.2031 1.70312 13.2031 4.14062
Q10.2031 6.59375 8.09375 10.1406
Q6 13.7031 4.5 18.3438
L9.95312 20.5938
Q11.3438 21.2031 12.7969 21.2031
Q14.0938 21.2031 15.125 20.6406
Q16.1562 20.0938 16.7031 19.0469
Q17.5938 17.2969 18.6719 15.5938
Q19.75 13.9062 21.25 12.5781
Q22.75 11.25 24.7656 10.4219
Q26.7969 9.59375 29.5938 9.59375
Q32.75 9.59375 35.0938 10.625
Q37.4531 11.6562 39.0156 13.2969
Q40.5938 14.9531 41.375 16.9688
Q42.1562 19 42.1562 21.0469
Q42.1562 23.6562 41.5938 25.7812
Q41.0469 27.9062 39.2969 29.4062
Q37.5469 30.9062 34.2656 31.75
Q31 32.5938 25.5 32.5938
L25.5 41.4062
Q30.0469 41.4531 33.0469 42.25
Q36.0469 43.0469 37.8125 44.4688
Q39.5938 45.9062 40.2969 47.9062
Q41 49.9062 41 52.2969
Q41 57.4531 38.2031 60.0781
Q35.4062 62.7031 30.5469 62.7031
Q26.1562 62.7031 23.25 60.375
Q20.3438 58.0469 19.2031 54.4062
Q18.5938 52.5 17.5469 51.6719
Q16.5 50.8438 14.7969 50.8438
Q14 50.8438 13.0938 51
L6.59375 52.1562
Q7.34375 57.3438 9.5 61.2656
Q11.6562 65.2031 14.875 67.8281
Q18.0938 70.4531 22.2656 71.7656
Q26.4531 73.0938 31.25 73.0938" id="Lato-Bold-33"/>
      </defs>
      <g style="fill:#262626;" transform="translate(176.6375 279.6296875)scale(0.1 -0.1)">
       <use xlink:href="#Lato-Bold-31"/>
       <use x="58.0" xlink:href="#Lato-Bold-33"/>
       <use x="116.0" xlink:href="#Lato-Bold-30"/>
      </g>
     </g>
    </g>
    <g id="xtick_8">
     <g id="line2d_15">
      <g>
       <use style="fill:#262626;stroke:#262626;" x="209.6" xlink:href="#m44d4eda7dc" y="259.2"/>
      </g>
     </g>
     <g id="line2d_16">
      <g>
       <use style="fill:#262626;stroke:#262626;" x="209.6" xlink:href="#m6214b81e1c" y="28.8"/>
      </g>
     </g>
     <g id="text_8">
      <!-- 135 -->
      <g style="fill:#262626;" transform="translate(201.6171875 279.6296875)scale(0.1 -0.1)">
       <use xlink:href="#Lato-Bold-31"/>
       <use x="58.0" xlink:href="#Lato-Bold-33"/>
       <use x="116.0" xlink:href="#Lato-Bold-35"/>
      </g>
     </g>
    </g>
    <g id="xtick_9">
     <g id="line2d_17">
      <g>
       <use style="fill:#262626;stroke:#262626;" x="234.4" xlink:href="#m44d4eda7dc" y="259.2"/>
      </g>
     </g>
     <g id="line2d_18">
      <g>
       <use style="fill:#262626;stroke:#262626;" x="234.4" xlink:href="#m6214b81e1c" y="28.8"/>
      </g>
     </g>
     <g id="text_9">
      <!-- 140 -->
      <defs>
       <path d="
M47.0938 27.25
L56.2031 27.25
L56.2031 20.0938
Q56.2031 19.0938 55.5469 18.375
Q54.9062 17.6562 53.6562 17.6562
L47.0938 17.6562
L47.0938 0
L36.2969 0
L36.2969 17.6562
L5.79688 17.6562
Q4.54688 17.6562 3.59375 18.4219
Q2.65625 19.2031 2.40625 20.3438
L1.15625 26.5938
L35.4062 72.3438
L47.0938 72.3438
z

M36.2969 50.9062
Q36.2969 52.5 36.3906 54.3438
Q36.5 56.2031 36.75 58.2031
L14.2969 27.25
L36.2969 27.25
z
" id="Lato-Bold-34"/>
      </defs>
      <g style="fill:#262626;" transform="translate(226.2375 279.6296875)scale(0.1 -0.1)">
       <use xlink:href="#Lato-Bold-31"/>
       <use x="58.0" xlink:href="#Lato-Bold-34"/>
       <use x="116.0" xlink:href="#Lato-Bold-30"/>
      </g>
     </g>
    </g>
    <g id="xtick_10">
     <g id="line2d_19">
      <g>
       <use style="fill:#262626;stroke:#262626;" x="259.2" xlink:href="#m44d4eda7dc" y="259.2"/>
      </g>
     </g>
     <g id="line2d_20">
      <g>
       <use style="fill:#262626;stroke:#262626;" x="259.2" xlink:href="#m6214b81e1c" y="28.8"/>
      </g>
     </g>
     <g id="text_10">
      <!-- 145 -->
      <g style="fill:#262626;" transform="translate(251.2171875 279.6296875)scale(0.1 -0.1)">
       <use xlink:href="#Lato-Bold-31"/>
       <use x="58.0" xlink:href="#Lato-Bold-34"/>
       <use x="116.0" xlink:href="#Lato-Bold-35"/>
      </g>
     </g>
    </g>
   </g>
   <g id="matplotlib.axis_2">
    <g id="ytick_1">
     <g id="line2d_21">
      <defs>
       <path d="
M0 0
L-6 0" id="m0dfa6ce036" style="stroke:#262626;"/>
      </defs>
      <g>
       <use style="fill:#262626;stroke:#262626;" x="36.0" xlink:href="#m0dfa6ce036" y="259.2"/>
      </g>
     </g>
     <g id="line2d_22">
      <defs>
       <path d="
M0 0
L6 0" id="m0afc27f78c" style="stroke:#262626;"/>
      </defs>
      <g>
       <use style="fill:#262626;stroke:#262626;" x="259.2" xlink:href="#m0afc27f78c" y="259.2"/>
      </g>
     </g>
     <g id="text_11">
      <!-- 0 -->
      <g style="fill:#262626;" transform="translate(17.7 262.07734375)scale(0.1 -0.1)">
       <use xlink:href="#Lato-Bold-30"/>
      </g>
     </g>
    </g>
    <g id="ytick_2">
     <g id="line2d_23">
      <g>
       <use style="fill:#262626;stroke:#262626;" x="36.0" xlink:href="#m0dfa6ce036" y="220.8"/>
      </g>
     </g>
     <g id="line2d_24">
      <g>
       <use style="fill:#262626;stroke:#262626;" x="259.2" xlink:href="#m0afc27f78c" y="220.8"/>
      </g>
     </g>
     <g id="text_12">
      <!-- 2 -->
      <g style="fill:#262626;" transform="translate(18.040625 223.67734375)scale(0.1 -0.1)">
       <use xlink:href="#Lato-Bold-32"/>
      </g>
     </g>
    </g>
    <g id="ytick_3">
     <g id="line2d_25">
      <g>
       <use style="fill:#262626;stroke:#262626;" x="36.0" xlink:href="#m0dfa6ce036" y="182.4"/>
      </g>
     </g>
     <g id="line2d_26">
      <g>
       <use style="fill:#262626;stroke:#262626;" x="259.2" xlink:href="#m0afc27f78c" y="182.4"/>
      </g>
     </g>
     <g id="text_13">
      <!-- 4 -->
      <g style="fill:#262626;" transform="translate(17.4953125 185.27734375)scale(0.1 -0.1)">
       <use xlink:href="#Lato-Bold-34"/>
      </g>
     </g>
    </g>
    <g id="ytick_4">
     <g id="line2d_27">
      <g>
       <use style="fill:#262626;stroke:#262626;" x="36.0" xlink:href="#m0dfa6ce036" y="144.0"/>
      </g>
     </g>
     <g id="line2d_28">
      <g>
       <use style="fill:#262626;stroke:#262626;" x="259.2" xlink:href="#m0afc27f78c" y="144.0"/>
      </g>
     </g>
     <g id="text_14">
      <!-- 6 -->
      <defs>
       <path d="
M33.5 45.1562
Q37.5938 45.1562 41.4688 43.7969
Q45.3438 42.4531 48.2969 39.7188
Q51.25 37 53.0469 32.9531
Q54.8438 28.9062 54.8438 23.5
Q54.8438 18.4531 53 14.0156
Q51.1562 9.59375 47.7969 6.29688
Q44.4531 3 39.7188 1.09375
Q35 -0.796875 29.2969 -0.796875
Q23.5 -0.796875 18.8906 1.04688
Q14.2969 2.90625 11.0469 6.21875
Q7.79688 9.54688 6.0625 14.2188
Q4.34375 18.9062 4.34375 24.5938
Q4.34375 29.7031 6.42188 35.0781
Q8.5 40.4531 12.8438 46.25
L30.0938 69.4062
Q31 70.5938 32.7188 71.4375
Q34.4531 72.2969 36.7031 72.2969
L47.7031 72.2969
L26.25 46.0469
Q25.5469 45.2031 24.9219 44.4531
Q24.2969 43.7031 23.7031 42.9062
Q25.7969 43.9531 28.2188 44.5469
Q30.6562 45.1562 33.5 45.1562
M16.2031 22.7031
Q16.2031 19.7031 17.0156 17.2188
Q17.8438 14.75 19.4688 13
Q21.0938 11.25 23.5 10.2656
Q25.9062 9.29688 29.0469 9.29688
Q32 9.29688 34.4688 10.2969
Q36.9531 11.2969 38.7188 13.0938
Q40.5 14.9062 41.5 17.3281
Q42.5 19.75 42.5 22.5938
Q42.5 25.7031 41.5469 28.1719
Q40.5938 30.6562 38.8438 32.375
Q37.0938 34.0938 34.6406 35
Q32.2031 35.9062 29.25 35.9062
Q26.2969 35.9062 23.8906 34.9062
Q21.5 33.9062 19.7656 32.125
Q18.0469 30.3438 17.125 27.9219
Q16.2031 25.5 16.2031 22.7031" id="Lato-Bold-36"/>
      </defs>
      <g style="fill:#262626;" transform="translate(17.95 146.87734375)scale(0.1 -0.1)">
       <use xlink:href="#Lato-Bold-36"/>
      </g>
     </g>
    </g>
    <g id="ytick_5">
     <g id="line2d_29">
      <g>
       <use style="fill:#262626;stroke:#262626;" x="36.0" xlink:href="#m0dfa6ce036" y="105.6"/>
      </g>
     </g>
     <g id="line2d_30">
      <g>
       <use style="fill:#262626;stroke:#262626;" x="259.2" xlink:href="#m0afc27f78c" y="105.6"/>
      </g>
     </g>
     <g id="text_15">
      <!-- 8 -->
      <defs>
       <path d="
M29 -0.796875
Q23.4062 -0.796875 18.7812 0.703125
Q14.1562 2.20312 10.8438 4.95312
Q7.54688 7.70312 5.71875 11.5938
Q3.90625 15.5 3.90625 20.2969
Q3.90625 26.7031 7.04688 31.125
Q10.2031 35.5469 16.8438 37.7031
Q11.5469 39.9062 8.92188 43.9531
Q6.29688 48 6.29688 53.7031
Q6.29688 57.7969 7.96875 61.3438
Q9.65625 64.9062 12.6562 67.5312
Q15.6562 70.1562 19.8281 71.625
Q24 73.0938 29 73.0938
Q34 73.0938 38.1719 71.625
Q42.3438 70.1562 45.3438 67.5312
Q48.3438 64.9062 50.0156 61.3438
Q51.7031 57.7969 51.7031 53.7031
Q51.7031 48 49.0469 43.9531
Q46.4062 39.9062 41.1562 37.7031
Q47.7969 35.5469 50.9375 31.125
Q54.0938 26.7031 54.0938 20.2969
Q54.0938 15.5 52.2656 11.5938
Q50.4531 7.70312 47.1406 4.95312
Q43.8438 2.20312 39.2188 0.703125
Q34.5938 -0.796875 29 -0.796875
M29 8.84375
Q32.0469 8.84375 34.3438 9.71875
Q36.6562 10.5938 38.2188 12.1406
Q39.7969 13.7031 40.5938 15.8438
Q41.4062 18 41.4062 20.5
Q41.4062 26.4531 38.0938 29.5
Q34.7969 32.5469 29 32.5469
Q23.2031 32.5469 19.8906 29.5
Q16.5938 26.4531 16.5938 20.5
Q16.5938 18 17.3906 15.8438
Q18.2031 13.7031 19.7656 12.1406
Q21.3438 10.5938 23.6406 9.71875
Q25.9531 8.84375 29 8.84375
M29 42.25
Q32 42.25 34.0469 43.2031
Q36.0938 44.1562 37.3438 45.7188
Q38.5938 47.2969 39.125 49.3125
Q39.6562 51.3438 39.6562 53.5
Q39.6562 55.5469 39 57.3906
Q38.3438 59.25 37.0469 60.6719
Q35.75 62.0938 33.75 62.9375
Q31.75 63.7969 29 63.7969
Q26.25 63.7969 24.25 62.9375
Q22.25 62.0938 20.9219 60.6719
Q19.5938 59.25 18.9688 57.3906
Q18.3438 55.5469 18.3438 53.5
Q18.3438 51.3438 18.875 49.3125
Q19.4062 47.2969 20.6562 45.7188
Q21.9062 44.1562 23.9531 43.2031
Q26 42.25 29 42.25" id="Lato-Bold-38"/>
      </defs>
      <g style="fill:#262626;" transform="translate(17.98125 108.47734375)scale(0.1 -0.1)">
       <use xlink:href="#Lato-Bold-38"/>
      </g>
     </g>
    </g>
    <g id="ytick_6">
     <g id="line2d_31">
      <g>
       <use style="fill:#262626;stroke:#262626;" x="36.0" xlink:href="#m0dfa6ce036" y="67.2"/>
      </g>
     </g>
     <g id="line2d_32">
      <g>
       <use style="fill:#262626;stroke:#262626;" x="259.2" xlink:href="#m0afc27f78c" y="67.2"/>
      </g>
     </g>
     <g id="text_16">
      <!-- 10 -->
      <g style="fill:#262626;" transform="translate(12.475 70.07734375)scale(0.1 -0.1)">
       <use xlink:href="#Lato-Bold-31"/>
       <use x="58.0" xlink:href="#Lato-Bold-30"/>
      </g>
     </g>
    </g>
    <g id="ytick_7">
     <g id="line2d_33">
      <g>
       <use style="fill:#262626;stroke:#262626;" x="36.0" xlink:href="#m0dfa6ce036" y="28.8"/>
      </g>
     </g>
     <g id="line2d_34">
      <g>
       <use style="fill:#262626;stroke:#262626;" x="259.2" xlink:href="#m0afc27f78c" y="28.8"/>
      </g>
     </g>
     <g id="text_17">
      <!-- 12 -->
      <g style="fill:#262626;" transform="translate(12.6453125 31.67734375)scale(0.1 -0.1)">
       <use xlink:href="#Lato-Bold-31"/>
       <use x="58.0" xlink:href="#Lato-Bold-32"/>
      </g>
     </g>
    </g>
    <g id="text_18">
     <!-- Degree -->
     <defs>
      <path d="
M6.59375 0
L6.59375 51.2969
L13.8438 51.2969
Q15.75 51.2969 16.5 50.5938
Q17.25 49.9062 17.5 48.2031
L18.25 42
Q21 46.75 24.7031 49.5
Q28.4062 52.25 33 52.25
Q36.7969 52.25 39.2969 50.5
L37.7031 41.25
Q37.5469 40.3438 37.0469 39.9688
Q36.5469 39.5938 35.7031 39.5938
Q34.9531 39.5938 33.6406 39.9375
Q32.3438 40.2969 30.2031 40.2969
Q26.3438 40.2969 23.5938 38.1719
Q20.8438 36.0469 18.9531 31.9531
L18.9531 0
z
" id="Lato-Bold-72"/>
      <path d="
M27.7969 52.0938
Q32.6562 52.0938 36.7188 50.5469
Q40.7969 49 43.75 46.0156
Q46.7031 43.0469 48.3438 38.7188
Q50 34.4062 50 28.8438
Q50 27.4531 49.875 26.5156
Q49.75 25.5938 49.4219 25.0625
Q49.0938 24.5469 48.5469 24.3125
Q48 24.0938 47.1562 24.0938
L15.4531 24.0938
Q16 16.2031 19.7031 12.5
Q23.4062 8.79688 29.5 8.79688
Q32.5 8.79688 34.6719 9.5
Q36.8438 10.2031 38.4688 11.0469
Q40.0938 11.9062 41.3125 12.5938
Q42.5469 13.2969 43.7031 13.2969
Q44.4531 13.2969 45 13
Q45.5469 12.7031 45.9531 12.1562
L49.5469 7.65625
Q47.5 5.25 44.9531 3.625
Q42.4062 2 39.625 1.01562
Q36.8438 0.046875 33.9688 -0.34375
Q31.0938 -0.75 28.4062 -0.75
Q23.0469 -0.75 18.4375 1.01562
Q13.8438 2.79688 10.4375 6.26562
Q7.04688 9.75 5.09375 14.875
Q3.15625 20 3.15625 26.75
Q3.15625 32 4.84375 36.625
Q6.54688 41.25 9.71875 44.6719
Q12.9062 48.0938 17.4688 50.0938
Q22.0469 52.0938 27.7969 52.0938
M28.0469 43.25
Q22.6562 43.25 19.5938 40.2031
Q16.5469 37.1562 15.7031 31.5469
L38.9062 31.5469
Q38.9062 33.9531 38.25 36.0781
Q37.5938 38.2031 36.25 39.7969
Q34.9062 41.4062 32.8438 42.3281
Q30.7969 43.25 28.0469 43.25" id="Lato-Bold-65"/>
      <path d="
M24.3438 52.2031
Q27.6562 52.2031 30.5469 51.5156
Q33.4531 50.8438 35.8438 49.5469
L50.5938 49.5469
L50.5938 44.9531
Q50.5938 43.7969 50 43.1406
Q49.4062 42.5 47.9531 42.25
L43.3438 41.4062
Q43.8438 40.0938 44.125 38.6406
Q44.4062 37.2031 44.4062 35.5938
Q44.4062 31.7969 42.875 28.7188
Q41.3438 25.6562 38.6719 23.5
Q36 21.3438 32.3281 20.1719
Q28.6562 19 24.3438 19
Q21.4531 19 18.7031 19.5469
Q16.2969 18.0938 16.2969 16.2969
Q16.2969 14.75 17.7188 14.0156
Q19.1562 13.2969 21.4688 13
Q23.7969 12.7031 26.75 12.625
Q29.7031 12.5469 32.7969 12.2969
Q35.9062 12.0469 38.8438 11.4219
Q41.7969 10.7969 44.125 9.4375
Q46.4531 8.09375 47.875 5.76562
Q49.2969 3.45312 49.2969 -0.203125
Q49.2969 -3.59375 47.625 -6.79688
Q45.9531 -10 42.7656 -12.5
Q39.5938 -15 35 -16.5156
Q30.4062 -18.0469 24.5 -18.0469
Q18.6562 -18.0469 14.3438 -16.9219
Q10.0469 -15.7969 7.21875 -13.9219
Q4.40625 -12.0469 3 -9.59375
Q1.59375 -7.15625 1.59375 -4.5
Q1.59375 -0.90625 3.79688 1.54688
Q6 4 9.90625 5.45312
Q8 6.5 6.84375 8.25
Q5.70312 10 5.70312 12.7969
Q5.70312 13.9531 6.09375 15.1719
Q6.5 16.4062 7.32812 17.5938
Q8.15625 18.7969 9.40625 19.875
Q10.6562 20.9531 12.3438 21.7969
Q8.45312 23.9062 6.21875 27.4062
Q4 30.9062 4 35.5938
Q4 39.4062 5.51562 42.4688
Q7.04688 45.5469 9.76562 47.7188
Q12.5 49.9062 16.2188 51.0469
Q19.9531 52.2031 24.3438 52.2031
M37.9062 -2.29688
Q37.9062 -0.796875 37 0.140625
Q36.0938 1.09375 34.5469 1.625
Q33 2.15625 30.9219 2.40625
Q28.8438 2.65625 26.5156 2.78125
Q24.2031 2.90625 21.7188 3.03125
Q19.25 3.15625 16.9531 3.45312
Q14.8438 2.29688 13.5625 0.71875
Q12.2969 -0.84375 12.2969 -2.90625
Q12.2969 -4.25 12.9688 -5.42188
Q13.6562 -6.59375 15.125 -7.4375
Q16.5938 -8.29688 18.9375 -8.76562
Q21.2969 -9.25 24.7031 -9.25
Q28.1562 -9.25 30.6562 -8.71875
Q33.1562 -8.20312 34.7812 -7.26562
Q36.4062 -6.34375 37.1562 -5.0625
Q37.9062 -3.79688 37.9062 -2.29688
M24.3438 26.9062
Q26.6562 26.9062 28.3438 27.5312
Q30.0469 28.1562 31.1719 29.25
Q32.2969 30.3438 32.875 31.8906
Q33.4531 33.4531 33.4531 35.2969
Q33.4531 39.0938 31.1719 41.3125
Q28.9062 43.5469 24.3438 43.5469
Q19.7969 43.5469 17.5156 41.3125
Q15.25 39.0938 15.25 35.2969
Q15.25 33.5 15.8281 31.9531
Q16.4062 30.4062 17.5312 29.2812
Q18.6562 28.1562 20.375 27.5312
Q22.0938 26.9062 24.3438 26.9062" id="Lato-Bold-67"/>
      <path d="
M71.5 36.1562
Q71.5 28.2031 68.8438 21.5469
Q66.2031 14.9062 61.3906 10.0938
Q56.5938 5.29688 49.8438 2.64062
Q43.0938 0 34.9062 0
L7.29688 0
L7.29688 72.2969
L34.9062 72.2969
Q43.0938 72.2969 49.8438 69.625
Q56.5938 66.9531 61.3906 62.1719
Q66.2031 57.4062 68.8438 50.75
Q71.5 44.0938 71.5 36.1562
M57.75 36.1562
Q57.75 42.0938 56.1406 46.8125
Q54.5469 51.5469 51.5938 54.8125
Q48.6562 58.0938 44.4219 59.8438
Q40.2031 61.5938 34.9062 61.5938
L20.8438 61.5938
L20.8438 10.7031
L34.9062 10.7031
Q40.2031 10.7031 44.4219 12.4531
Q48.6562 14.2031 51.5938 17.4688
Q54.5469 20.75 56.1406 25.4688
Q57.75 30.2031 57.75 36.1562" id="Lato-Bold-44"/>
     </defs>
     <g style="fill:#262626;" transform="translate(5.48984375 161.432421875)rotate(-90.0)scale(0.11 -0.11)">
      <use xlink:href="#Lato-Bold-44"/>
      <use x="74.7500152588" xlink:href="#Lato-Bold-65"/>
      <use x="128.200027466" xlink:href="#Lato-Bold-67"/>
      <use x="179.950027466" xlink:href="#Lato-Bold-72"/>
      <use x="220.800033569" xlink:href="#Lato-Bold-65"/>
      <use x="274.250045776" xlink:href="#Lato-Bold-65"/>
     </g>
    </g>
   </g>
   <g id="patch_3">
    <path clip-path="url(#pc49e5bdfc7)" d="
M50.88 259.2
L51.0784 259.2
L51.0784 220.8
L50.88 220.8
z
" style="fill:#4c72b0;stroke:#000000;stroke-linejoin:miter;stroke-width:0.3;"/>
   </g>
   <g id="patch_4">
    <path clip-path="url(#pc49e5bdfc7)" d="
M51.0784 259.2
L51.2768 259.2
L51.2768 259.2
L51.0784 259.2
z
" style="fill:#4c72b0;stroke:#000000;stroke-linejoin:miter;stroke-width:0.3;"/>
   </g>
   <g id="patch_5">
    <path clip-path="url(#pc49e5bdfc7)" d="
M51.2768 259.2
L51.4752 259.2
L51.4752 259.2
L51.2768 259.2
z
" style="fill:#4c72b0;stroke:#000000;stroke-linejoin:miter;stroke-width:0.3;"/>
   </g>
   <g id="patch_6">
    <path clip-path="url(#pc49e5bdfc7)" d="
M51.4752 259.2
L51.6736 259.2
L51.6736 259.2
L51.4752 259.2
z
" style="fill:#4c72b0;stroke:#000000;stroke-linejoin:miter;stroke-width:0.3;"/>
   </g>
   <g id="patch_7">
    <path clip-path="url(#pc49e5bdfc7)" d="
M51.6736 259.2
L51.872 259.2
L51.872 259.2
L51.6736 259.2
z
" style="fill:#4c72b0;stroke:#000000;stroke-linejoin:miter;stroke-width:0.3;"/>
   </g>
   <g id="patch_8">
    <path clip-path="url(#pc49e5bdfc7)" d="
M51.872 259.2
L52.0704 259.2
L52.0704 259.2
L51.872 259.2
z
" style="fill:#4c72b0;stroke:#000000;stroke-linejoin:miter;stroke-width:0.3;"/>
   </g>
   <g id="patch_9">
    <path clip-path="url(#pc49e5bdfc7)" d="
M52.0704 259.2
L52.2688 259.2
L52.2688 259.2
L52.0704 259.2
z
" style="fill:#4c72b0;stroke:#000000;stroke-linejoin:miter;stroke-width:0.3;"/>
   </g>
   <g id="patch_10">
    <path clip-path="url(#pc49e5bdfc7)" d="
M52.2688 259.2
L52.4672 259.2
L52.4672 259.2
L52.2688 259.2
z
" style="fill:#4c72b0;stroke:#000000;stroke-linejoin:miter;stroke-width:0.3;"/>
   </g>
   <g id="patch_11">
    <path clip-path="url(#pc49e5bdfc7)" d="
M52.4672 259.2
L52.6656 259.2
L52.6656 259.2
L52.4672 259.2
z
" style="fill:#4c72b0;stroke:#000000;stroke-linejoin:miter;stroke-width:0.3;"/>
   </g>
   <g id="patch_12">
    <path clip-path="url(#pc49e5bdfc7)" d="
M52.6656 259.2
L52.864 259.2
L52.864 259.2
L52.6656 259.2
z
" style="fill:#4c72b0;stroke:#000000;stroke-linejoin:miter;stroke-width:0.3;"/>
   </g>
   <g id="patch_13">
    <path clip-path="url(#pc49e5bdfc7)" d="
M52.864 259.2
L53.0624 259.2
L53.0624 259.2
L52.864 259.2
z
" style="fill:#4c72b0;stroke:#000000;stroke-linejoin:miter;stroke-width:0.3;"/>
   </g>
   <g id="patch_14">
    <path clip-path="url(#pc49e5bdfc7)" d="
M53.0624 259.2
L53.2608 259.2
L53.2608 259.2
L53.0624 259.2
z
" style="fill:#4c72b0;stroke:#000000;stroke-linejoin:miter;stroke-width:0.3;"/>
   </g>
   <g id="patch_15">
    <path clip-path="url(#pc49e5bdfc7)" d="
M53.2608 259.2
L53.4592 259.2
L53.4592 259.2
L53.2608 259.2
z
" style="fill:#4c72b0;stroke:#000000;stroke-linejoin:miter;stroke-width:0.3;"/>
   </g>
   <g id="patch_16">
    <path clip-path="url(#pc49e5bdfc7)" d="
M53.4592 259.2
L53.6576 259.2
L53.6576 259.2
L53.4592 259.2
z
" style="fill:#4c72b0;stroke:#000000;stroke-linejoin:miter;stroke-width:0.3;"/>
   </g>
   <g id="patch_17">
    <path clip-path="url(#pc49e5bdfc7)" d="
M53.6576 259.2
L53.856 259.2
L53.856 259.2
L53.6576 259.2
z
" style="fill:#4c72b0;stroke:#000000;stroke-linejoin:miter;stroke-width:0.3;"/>
   </g>
   <g id="patch_18">
    <path clip-path="url(#pc49e5bdfc7)" d="
M53.856 259.2
L54.0544 259.2
L54.0544 259.2
L53.856 259.2
z
" style="fill:#4c72b0;stroke:#000000;stroke-linejoin:miter;stroke-width:0.3;"/>
   </g>
   <g id="patch_19">
    <path clip-path="url(#pc49e5bdfc7)" d="
M54.0544 259.2
L54.2528 259.2
L54.2528 259.2
L54.0544 259.2
z
" style="fill:#4c72b0;stroke:#000000;stroke-linejoin:miter;stroke-width:0.3;"/>
   </g>
   <g id="patch_20">
    <path clip-path="url(#pc49e5bdfc7)" d="
M54.2528 259.2
L54.4512 259.2
L54.4512 259.2
L54.2528 259.2
z
" style="fill:#4c72b0;stroke:#000000;stroke-linejoin:miter;stroke-width:0.3;"/>
   </g>
   <g id="patch_21">
    <path clip-path="url(#pc49e5bdfc7)" d="
M54.4512 259.2
L54.6496 259.2
L54.6496 259.2
L54.4512 259.2
z
" style="fill:#4c72b0;stroke:#000000;stroke-linejoin:miter;stroke-width:0.3;"/>
   </g>
   <g id="patch_22">
    <path clip-path="url(#pc49e5bdfc7)" d="
M54.6496 259.2
L54.848 259.2
L54.848 259.2
L54.6496 259.2
z
" style="fill:#4c72b0;stroke:#000000;stroke-linejoin:miter;stroke-width:0.3;"/>
   </g>
   <g id="patch_23">
    <path clip-path="url(#pc49e5bdfc7)" d="
M54.848 259.2
L55.0464 259.2
L55.0464 259.2
L54.848 259.2
z
" style="fill:#4c72b0;stroke:#000000;stroke-linejoin:miter;stroke-width:0.3;"/>
   </g>
   <g id="patch_24">
    <path clip-path="url(#pc49e5bdfc7)" d="
M55.0464 259.2
L55.2448 259.2
L55.2448 259.2
L55.0464 259.2
z
" style="fill:#4c72b0;stroke:#000000;stroke-linejoin:miter;stroke-width:0.3;"/>
   </g>
   <g id="patch_25">
    <path clip-path="url(#pc49e5bdfc7)" d="
M55.2448 259.2
L55.4432 259.2
L55.4432 259.2
L55.2448 259.2
z
" style="fill:#4c72b0;stroke:#000000;stroke-linejoin:miter;stroke-width:0.3;"/>
   </g>
   <g id="patch_26">
    <path clip-path="url(#pc49e5bdfc7)" d="
M55.4432 259.2
L55.6416 259.2
L55.6416 259.2
L55.4432 259.2
z
" style="fill:#4c72b0;stroke:#000000;stroke-linejoin:miter;stroke-width:0.3;"/>
   </g>
   <g id="patch_27">
    <path clip-path="url(#pc49e5bdfc7)" d="
M55.6416 259.2
L55.84 259.2
L55.84 240
L55.6416 240
z
" style="fill:#4c72b0;stroke:#000000;stroke-linejoin:miter;stroke-width:0.3;"/>
   </g>
   <g id="patch_28">
    <path clip-path="url(#pc49e5bdfc7)" d="
M36 259.2
L41.1584 259.2
L41.1584 201.6
L36 201.6
z
" style="fill:#55a868;stroke:#000000;stroke-linejoin:miter;stroke-width:0.3;"/>
   </g>
   <g id="patch_29">
    <path clip-path="url(#pc49e5bdfc7)" d="
M41.1584 259.2
L46.3168 259.2
L46.3168 240
L41.1584 240
z
" style="fill:#55a868;stroke:#000000;stroke-linejoin:miter;stroke-width:0.3;"/>
   </g>
   <g id="patch_30">
    <path clip-path="url(#pc49e5bdfc7)" d="
M46.3168 259.2
L51.4752 259.2
L51.4752 259.2
L46.3168 259.2
z
" style="fill:#55a868;stroke:#000000;stroke-linejoin:miter;stroke-width:0.3;"/>
   </g>
   <g id="patch_31">
    <path clip-path="url(#pc49e5bdfc7)" d="
M51.4752 259.2
L56.6336 259.2
L56.6336 201.6
L51.4752 201.6
z
" style="fill:#55a868;stroke:#000000;stroke-linejoin:miter;stroke-width:0.3;"/>
   </g>
   <g id="patch_32">
    <path clip-path="url(#pc49e5bdfc7)" d="
M56.6336 259.2
L61.792 259.2
L61.792 259.2
L56.6336 259.2
z
" style="fill:#55a868;stroke:#000000;stroke-linejoin:miter;stroke-width:0.3;"/>
   </g>
   <g id="patch_33">
    <path clip-path="url(#pc49e5bdfc7)" d="
M61.792 259.2
L66.9504 259.2
L66.9504 259.2
L61.792 259.2
z
" style="fill:#55a868;stroke:#000000;stroke-linejoin:miter;stroke-width:0.3;"/>
   </g>
   <g id="patch_34">
    <path clip-path="url(#pc49e5bdfc7)" d="
M66.9504 259.2
L72.1088 259.2
L72.1088 259.2
L66.9504 259.2
z
" style="fill:#55a868;stroke:#000000;stroke-linejoin:miter;stroke-width:0.3;"/>
   </g>
   <g id="patch_35">
    <path clip-path="url(#pc49e5bdfc7)" d="
M72.1088 259.2
L77.2672 259.2
L77.2672 259.2
L72.1088 259.2
z
" style="fill:#55a868;stroke:#000000;stroke-linejoin:miter;stroke-width:0.3;"/>
   </g>
   <g id="patch_36">
    <path clip-path="url(#pc49e5bdfc7)" d="
M77.2672 259.2
L82.4256 259.2
L82.4256 259.2
L77.2672 259.2
z
" style="fill:#55a868;stroke:#000000;stroke-linejoin:miter;stroke-width:0.3;"/>
   </g>
   <g id="patch_37">
    <path clip-path="url(#pc49e5bdfc7)" d="
M82.4256 259.2
L87.584 259.2
L87.584 259.2
L82.4256 259.2
z
" style="fill:#55a868;stroke:#000000;stroke-linejoin:miter;stroke-width:0.3;"/>
   </g>
   <g id="patch_38">
    <path clip-path="url(#pc49e5bdfc7)" d="
M87.584 259.2
L92.7424 259.2
L92.7424 259.2
L87.584 259.2
z
" style="fill:#55a868;stroke:#000000;stroke-linejoin:miter;stroke-width:0.3;"/>
   </g>
   <g id="patch_39">
    <path clip-path="url(#pc49e5bdfc7)" d="
M92.7424 259.2
L97.9008 259.2
L97.9008 259.2
L92.7424 259.2
z
" style="fill:#55a868;stroke:#000000;stroke-linejoin:miter;stroke-width:0.3;"/>
   </g>
   <g id="patch_40">
    <path clip-path="url(#pc49e5bdfc7)" d="
M97.9008 259.2
L103.059 259.2
L103.059 259.2
L97.9008 259.2
z
" style="fill:#55a868;stroke:#000000;stroke-linejoin:miter;stroke-width:0.3;"/>
   </g>
   <g id="patch_41">
    <path clip-path="url(#pc49e5bdfc7)" d="
M103.059 259.2
L108.218 259.2
L108.218 259.2
L103.059 259.2
z
" style="fill:#55a868;stroke:#000000;stroke-linejoin:miter;stroke-width:0.3;"/>
   </g>
   <g id="patch_42">
    <path clip-path="url(#pc49e5bdfc7)" d="
M108.218 259.2
L113.376 259.2
L113.376 259.2
L108.218 259.2
z
" style="fill:#55a868;stroke:#000000;stroke-linejoin:miter;stroke-width:0.3;"/>
   </g>
   <g id="patch_43">
    <path clip-path="url(#pc49e5bdfc7)" d="
M113.376 259.2
L118.534 259.2
L118.534 259.2
L113.376 259.2
z
" style="fill:#55a868;stroke:#000000;stroke-linejoin:miter;stroke-width:0.3;"/>
   </g>
   <g id="patch_44">
    <path clip-path="url(#pc49e5bdfc7)" d="
M118.534 259.2
L123.693 259.2
L123.693 259.2
L118.534 259.2
z
" style="fill:#55a868;stroke:#000000;stroke-linejoin:miter;stroke-width:0.3;"/>
   </g>
   <g id="patch_45">
    <path clip-path="url(#pc49e5bdfc7)" d="
M123.693 259.2
L128.851 259.2
L128.851 259.2
L123.693 259.2
z
" style="fill:#55a868;stroke:#000000;stroke-linejoin:miter;stroke-width:0.3;"/>
   </g>
   <g id="patch_46">
    <path clip-path="url(#pc49e5bdfc7)" d="
M128.851 259.2
L134.01 259.2
L134.01 259.2
L128.851 259.2
z
" style="fill:#55a868;stroke:#000000;stroke-linejoin:miter;stroke-width:0.3;"/>
   </g>
   <g id="patch_47">
    <path clip-path="url(#pc49e5bdfc7)" d="
M134.01 259.2
L139.168 259.2
L139.168 259.2
L134.01 259.2
z
" style="fill:#55a868;stroke:#000000;stroke-linejoin:miter;stroke-width:0.3;"/>
   </g>
   <g id="patch_48">
    <path clip-path="url(#pc49e5bdfc7)" d="
M139.168 259.2
L144.326 259.2
L144.326 259.2
L139.168 259.2
z
" style="fill:#55a868;stroke:#000000;stroke-linejoin:miter;stroke-width:0.3;"/>
   </g>
   <g id="patch_49">
    <path clip-path="url(#pc49e5bdfc7)" d="
M144.326 259.2
L149.485 259.2
L149.485 259.2
L144.326 259.2
z
" style="fill:#55a868;stroke:#000000;stroke-linejoin:miter;stroke-width:0.3;"/>
   </g>
   <g id="patch_50">
    <path clip-path="url(#pc49e5bdfc7)" d="
M149.485 259.2
L154.643 259.2
L154.643 259.2
L149.485 259.2
z
" style="fill:#55a868;stroke:#000000;stroke-linejoin:miter;stroke-width:0.3;"/>
   </g>
   <g id="patch_51">
    <path clip-path="url(#pc49e5bdfc7)" d="
M154.643 259.2
L159.802 259.2
L159.802 259.2
L154.643 259.2
z
" style="fill:#55a868;stroke:#000000;stroke-linejoin:miter;stroke-width:0.3;"/>
   </g>
   <g id="patch_52">
    <path clip-path="url(#pc49e5bdfc7)" d="
M159.802 259.2
L164.96 259.2
L164.96 240
L159.802 240
z
" style="fill:#55a868;stroke:#000000;stroke-linejoin:miter;stroke-width:0.3;"/>
   </g>
   <g id="patch_53">
    <path clip-path="url(#pc49e5bdfc7)" d="
M135.2 259.2
L137.382 259.2
L137.382 220.8
L135.2 220.8
z
" style="fill:#c44e52;stroke:#000000;stroke-linejoin:miter;stroke-width:0.3;"/>
   </g>
   <g id="patch_54">
    <path clip-path="url(#pc49e5bdfc7)" d="
M137.382 259.2
L139.565 259.2
L139.565 259.2
L137.382 259.2
z
" style="fill:#c44e52;stroke:#000000;stroke-linejoin:miter;stroke-width:0.3;"/>
   </g>
   <g id="patch_55">
    <path clip-path="url(#pc49e5bdfc7)" d="
M139.565 259.2
L141.747 259.2
L141.747 259.2
L139.565 259.2
z
" style="fill:#c44e52;stroke:#000000;stroke-linejoin:miter;stroke-width:0.3;"/>
   </g>
   <g id="patch_56">
    <path clip-path="url(#pc49e5bdfc7)" d="
M141.747 259.2
L143.93 259.2
L143.93 259.2
L141.747 259.2
z
" style="fill:#c44e52;stroke:#000000;stroke-linejoin:miter;stroke-width:0.3;"/>
   </g>
   <g id="patch_57">
    <path clip-path="url(#pc49e5bdfc7)" d="
M143.93 259.2
L146.112 259.2
L146.112 259.2
L143.93 259.2
z
" style="fill:#c44e52;stroke:#000000;stroke-linejoin:miter;stroke-width:0.3;"/>
   </g>
   <g id="patch_58">
    <path clip-path="url(#pc49e5bdfc7)" d="
M146.112 259.2
L148.294 259.2
L148.294 259.2
L146.112 259.2
z
" style="fill:#c44e52;stroke:#000000;stroke-linejoin:miter;stroke-width:0.3;"/>
   </g>
   <g id="patch_59">
    <path clip-path="url(#pc49e5bdfc7)" d="
M148.294 259.2
L150.477 259.2
L150.477 259.2
L148.294 259.2
z
" style="fill:#c44e52;stroke:#000000;stroke-linejoin:miter;stroke-width:0.3;"/>
   </g>
   <g id="patch_60">
    <path clip-path="url(#pc49e5bdfc7)" d="
M150.477 259.2
L152.659 259.2
L152.659 259.2
L150.477 259.2
z
" style="fill:#c44e52;stroke:#000000;stroke-linejoin:miter;stroke-width:0.3;"/>
   </g>
   <g id="patch_61">
    <path clip-path="url(#pc49e5bdfc7)" d="
M152.659 259.2
L154.842 259.2
L154.842 259.2
L152.659 259.2
z
" style="fill:#c44e52;stroke:#000000;stroke-linejoin:miter;stroke-width:0.3;"/>
   </g>
   <g id="patch_62">
    <path clip-path="url(#pc49e5bdfc7)" d="
M154.842 259.2
L157.024 259.2
L157.024 259.2
L154.842 259.2
z
" style="fill:#c44e52;stroke:#000000;stroke-linejoin:miter;stroke-width:0.3;"/>
   </g>
   <g id="patch_63">
    <path clip-path="url(#pc49e5bdfc7)" d="
M157.024 259.2
L159.206 259.2
L159.206 259.2
L157.024 259.2
z
" style="fill:#c44e52;stroke:#000000;stroke-linejoin:miter;stroke-width:0.3;"/>
   </g>
   <g id="patch_64">
    <path clip-path="url(#pc49e5bdfc7)" d="
M159.206 259.2
L161.389 259.2
L161.389 259.2
L159.206 259.2
z
" style="fill:#c44e52;stroke:#000000;stroke-linejoin:miter;stroke-width:0.3;"/>
   </g>
   <g id="patch_65">
    <path clip-path="url(#pc49e5bdfc7)" d="
M161.389 259.2
L163.571 259.2
L163.571 259.2
L161.389 259.2
z
" style="fill:#c44e52;stroke:#000000;stroke-linejoin:miter;stroke-width:0.3;"/>
   </g>
   <g id="patch_66">
    <path clip-path="url(#pc49e5bdfc7)" d="
M163.571 259.2
L165.754 259.2
L165.754 259.2
L163.571 259.2
z
" style="fill:#c44e52;stroke:#000000;stroke-linejoin:miter;stroke-width:0.3;"/>
   </g>
   <g id="patch_67">
    <path clip-path="url(#pc49e5bdfc7)" d="
M165.754 259.2
L167.936 259.2
L167.936 259.2
L165.754 259.2
z
" style="fill:#c44e52;stroke:#000000;stroke-linejoin:miter;stroke-width:0.3;"/>
   </g>
   <g id="patch_68">
    <path clip-path="url(#pc49e5bdfc7)" d="
M167.936 259.2
L170.118 259.2
L170.118 259.2
L167.936 259.2
z
" style="fill:#c44e52;stroke:#000000;stroke-linejoin:miter;stroke-width:0.3;"/>
   </g>
   <g id="patch_69">
    <path clip-path="url(#pc49e5bdfc7)" d="
M170.118 259.2
L172.301 259.2
L172.301 259.2
L170.118 259.2
z
" style="fill:#c44e52;stroke:#000000;stroke-linejoin:miter;stroke-width:0.3;"/>
   </g>
   <g id="patch_70">
    <path clip-path="url(#pc49e5bdfc7)" d="
M172.301 259.2
L174.483 259.2
L174.483 259.2
L172.301 259.2
z
" style="fill:#c44e52;stroke:#000000;stroke-linejoin:miter;stroke-width:0.3;"/>
   </g>
   <g id="patch_71">
    <path clip-path="url(#pc49e5bdfc7)" d="
M174.483 259.2
L176.666 259.2
L176.666 220.8
L174.483 220.8
z
" style="fill:#c44e52;stroke:#000000;stroke-linejoin:miter;stroke-width:0.3;"/>
   </g>
   <g id="patch_72">
    <path clip-path="url(#pc49e5bdfc7)" d="
M176.666 259.2
L178.848 259.2
L178.848 259.2
L176.666 259.2
z
" style="fill:#c44e52;stroke:#000000;stroke-linejoin:miter;stroke-width:0.3;"/>
   </g>
   <g id="patch_73">
    <path clip-path="url(#pc49e5bdfc7)" d="
M178.848 259.2
L181.03 259.2
L181.03 144
L178.848 144
z
" style="fill:#c44e52;stroke:#000000;stroke-linejoin:miter;stroke-width:0.3;"/>
   </g>
   <g id="patch_74">
    <path clip-path="url(#pc49e5bdfc7)" d="
M181.03 259.2
L183.213 259.2
L183.213 259.2
L181.03 259.2
z
" style="fill:#c44e52;stroke:#000000;stroke-linejoin:miter;stroke-width:0.3;"/>
   </g>
   <g id="patch_75">
    <path clip-path="url(#pc49e5bdfc7)" d="
M183.213 259.2
L185.395 259.2
L185.395 124.8
L183.213 124.8
z
" style="fill:#c44e52;stroke:#000000;stroke-linejoin:miter;stroke-width:0.3;"/>
   </g>
   <g id="patch_76">
    <path clip-path="url(#pc49e5bdfc7)" d="
M185.395 259.2
L187.578 259.2
L187.578 259.2
L185.395 259.2
z
" style="fill:#c44e52;stroke:#000000;stroke-linejoin:miter;stroke-width:0.3;"/>
   </g>
   <g id="patch_77">
    <path clip-path="url(#pc49e5bdfc7)" d="
M187.578 259.2
L189.76 259.2
L189.76 240
L187.578 240
z
" style="fill:#c44e52;stroke:#000000;stroke-linejoin:miter;stroke-width:0.3;"/>
   </g>
   <g id="patch_78">
    <path clip-path="url(#pc49e5bdfc7)" d="
M194.72 259.2
L196.109 259.2
L196.109 240
L194.72 240
z
" style="fill:#8172b2;stroke:#000000;stroke-linejoin:miter;stroke-width:0.3;"/>
   </g>
   <g id="patch_79">
    <path clip-path="url(#pc49e5bdfc7)" d="
M196.109 259.2
L197.498 259.2
L197.498 259.2
L196.109 259.2
z
" style="fill:#8172b2;stroke:#000000;stroke-linejoin:miter;stroke-width:0.3;"/>
   </g>
   <g id="patch_80">
    <path clip-path="url(#pc49e5bdfc7)" d="
M197.498 259.2
L198.886 259.2
L198.886 259.2
L197.498 259.2
z
" style="fill:#8172b2;stroke:#000000;stroke-linejoin:miter;stroke-width:0.3;"/>
   </g>
   <g id="patch_81">
    <path clip-path="url(#pc49e5bdfc7)" d="
M198.886 259.2
L200.275 259.2
L200.275 220.8
L198.886 220.8
z
" style="fill:#8172b2;stroke:#000000;stroke-linejoin:miter;stroke-width:0.3;"/>
   </g>
   <g id="patch_82">
    <path clip-path="url(#pc49e5bdfc7)" d="
M200.275 259.2
L201.664 259.2
L201.664 259.2
L200.275 259.2
z
" style="fill:#8172b2;stroke:#000000;stroke-linejoin:miter;stroke-width:0.3;"/>
   </g>
   <g id="patch_83">
    <path clip-path="url(#pc49e5bdfc7)" d="
M201.664 259.2
L203.053 259.2
L203.053 259.2
L201.664 259.2
z
" style="fill:#8172b2;stroke:#000000;stroke-linejoin:miter;stroke-width:0.3;"/>
   </g>
   <g id="patch_84">
    <path clip-path="url(#pc49e5bdfc7)" d="
M203.053 259.2
L204.442 259.2
L204.442 259.2
L203.053 259.2
z
" style="fill:#8172b2;stroke:#000000;stroke-linejoin:miter;stroke-width:0.3;"/>
   </g>
   <g id="patch_85">
    <path clip-path="url(#pc49e5bdfc7)" d="
M204.442 259.2
L205.83 259.2
L205.83 240
L204.442 240
z
" style="fill:#8172b2;stroke:#000000;stroke-linejoin:miter;stroke-width:0.3;"/>
   </g>
   <g id="patch_86">
    <path clip-path="url(#pc49e5bdfc7)" d="
M205.83 259.2
L207.219 259.2
L207.219 259.2
L205.83 259.2
z
" style="fill:#8172b2;stroke:#000000;stroke-linejoin:miter;stroke-width:0.3;"/>
   </g>
   <g id="patch_87">
    <path clip-path="url(#pc49e5bdfc7)" d="
M207.219 259.2
L208.608 259.2
L208.608 259.2
L207.219 259.2
z
" style="fill:#8172b2;stroke:#000000;stroke-linejoin:miter;stroke-width:0.3;"/>
   </g>
   <g id="patch_88">
    <path clip-path="url(#pc49e5bdfc7)" d="
M208.608 259.2
L209.997 259.2
L209.997 182.4
L208.608 182.4
z
" style="fill:#8172b2;stroke:#000000;stroke-linejoin:miter;stroke-width:0.3;"/>
   </g>
   <g id="patch_89">
    <path clip-path="url(#pc49e5bdfc7)" d="
M209.997 259.2
L211.386 259.2
L211.386 259.2
L209.997 259.2
z
" style="fill:#8172b2;stroke:#000000;stroke-linejoin:miter;stroke-width:0.3;"/>
   </g>
   <g id="patch_90">
    <path clip-path="url(#pc49e5bdfc7)" d="
M211.386 259.2
L212.774 259.2
L212.774 259.2
L211.386 259.2
z
" style="fill:#8172b2;stroke:#000000;stroke-linejoin:miter;stroke-width:0.3;"/>
   </g>
   <g id="patch_91">
    <path clip-path="url(#pc49e5bdfc7)" d="
M212.774 259.2
L214.163 259.2
L214.163 259.2
L212.774 259.2
z
" style="fill:#8172b2;stroke:#000000;stroke-linejoin:miter;stroke-width:0.3;"/>
   </g>
   <g id="patch_92">
    <path clip-path="url(#pc49e5bdfc7)" d="
M214.163 259.2
L215.552 259.2
L215.552 182.4
L214.163 182.4
z
" style="fill:#8172b2;stroke:#000000;stroke-linejoin:miter;stroke-width:0.3;"/>
   </g>
   <g id="patch_93">
    <path clip-path="url(#pc49e5bdfc7)" d="
M215.552 259.2
L216.941 259.2
L216.941 259.2
L215.552 259.2
z
" style="fill:#8172b2;stroke:#000000;stroke-linejoin:miter;stroke-width:0.3;"/>
   </g>
   <g id="patch_94">
    <path clip-path="url(#pc49e5bdfc7)" d="
M216.941 259.2
L218.33 259.2
L218.33 259.2
L216.941 259.2
z
" style="fill:#8172b2;stroke:#000000;stroke-linejoin:miter;stroke-width:0.3;"/>
   </g>
   <g id="patch_95">
    <path clip-path="url(#pc49e5bdfc7)" d="
M218.33 259.2
L219.718 259.2
L219.718 259.2
L218.33 259.2
z
" style="fill:#8172b2;stroke:#000000;stroke-linejoin:miter;stroke-width:0.3;"/>
   </g>
   <g id="patch_96">
    <path clip-path="url(#pc49e5bdfc7)" d="
M219.718 259.2
L221.107 259.2
L221.107 259.2
L219.718 259.2
z
" style="fill:#8172b2;stroke:#000000;stroke-linejoin:miter;stroke-width:0.3;"/>
   </g>
   <g id="patch_97">
    <path clip-path="url(#pc49e5bdfc7)" d="
M221.107 259.2
L222.496 259.2
L222.496 259.2
L221.107 259.2
z
" style="fill:#8172b2;stroke:#000000;stroke-linejoin:miter;stroke-width:0.3;"/>
   </g>
   <g id="patch_98">
    <path clip-path="url(#pc49e5bdfc7)" d="
M222.496 259.2
L223.885 259.2
L223.885 259.2
L222.496 259.2
z
" style="fill:#8172b2;stroke:#000000;stroke-linejoin:miter;stroke-width:0.3;"/>
   </g>
   <g id="patch_99">
    <path clip-path="url(#pc49e5bdfc7)" d="
M223.885 259.2
L225.274 259.2
L225.274 105.6
L223.885 105.6
z
" style="fill:#8172b2;stroke:#000000;stroke-linejoin:miter;stroke-width:0.3;"/>
   </g>
   <g id="patch_100">
    <path clip-path="url(#pc49e5bdfc7)" d="
M225.274 259.2
L226.662 259.2
L226.662 259.2
L225.274 259.2
z
" style="fill:#8172b2;stroke:#000000;stroke-linejoin:miter;stroke-width:0.3;"/>
   </g>
   <g id="patch_101">
    <path clip-path="url(#pc49e5bdfc7)" d="
M226.662 259.2
L228.051 259.2
L228.051 259.2
L226.662 259.2
z
" style="fill:#8172b2;stroke:#000000;stroke-linejoin:miter;stroke-width:0.3;"/>
   </g>
   <g id="patch_102">
    <path clip-path="url(#pc49e5bdfc7)" d="
M228.051 259.2
L229.44 259.2
L229.44 144
L228.051 144
z
" style="fill:#8172b2;stroke:#000000;stroke-linejoin:miter;stroke-width:0.3;"/>
   </g>
   <g id="patch_103">
    <path clip-path="url(#pc49e5bdfc7)" d="
M224.48 259.2
L225.274 259.2
L225.274 201.6
L224.48 201.6
z
" style="fill:#ccb974;stroke:#000000;stroke-linejoin:miter;stroke-width:0.3;"/>
   </g>
   <g id="patch_104">
    <path clip-path="url(#pc49e5bdfc7)" d="
M225.274 259.2
L226.067 259.2
L226.067 259.2
L225.274 259.2
z
" style="fill:#ccb974;stroke:#000000;stroke-linejoin:miter;stroke-width:0.3;"/>
   </g>
   <g id="patch_105">
    <path clip-path="url(#pc49e5bdfc7)" d="
M226.067 259.2
L226.861 259.2
L226.861 259.2
L226.067 259.2
z
" style="fill:#ccb974;stroke:#000000;stroke-linejoin:miter;stroke-width:0.3;"/>
   </g>
   <g id="patch_106">
    <path clip-path="url(#pc49e5bdfc7)" d="
M226.861 259.2
L227.654 259.2
L227.654 259.2
L226.861 259.2
z
" style="fill:#ccb974;stroke:#000000;stroke-linejoin:miter;stroke-width:0.3;"/>
   </g>
   <g id="patch_107">
    <path clip-path="url(#pc49e5bdfc7)" d="
M227.654 259.2
L228.448 259.2
L228.448 259.2
L227.654 259.2
z
" style="fill:#ccb974;stroke:#000000;stroke-linejoin:miter;stroke-width:0.3;"/>
   </g>
   <g id="patch_108">
    <path clip-path="url(#pc49e5bdfc7)" d="
M228.448 259.2
L229.242 259.2
L229.242 259.2
L228.448 259.2
z
" style="fill:#ccb974;stroke:#000000;stroke-linejoin:miter;stroke-width:0.3;"/>
   </g>
   <g id="patch_109">
    <path clip-path="url(#pc49e5bdfc7)" d="
M229.242 259.2
L230.035 259.2
L230.035 201.6
L229.242 201.6
z
" style="fill:#ccb974;stroke:#000000;stroke-linejoin:miter;stroke-width:0.3;"/>
   </g>
   <g id="patch_110">
    <path clip-path="url(#pc49e5bdfc7)" d="
M230.035 259.2
L230.829 259.2
L230.829 259.2
L230.035 259.2
z
" style="fill:#ccb974;stroke:#000000;stroke-linejoin:miter;stroke-width:0.3;"/>
   </g>
   <g id="patch_111">
    <path clip-path="url(#pc49e5bdfc7)" d="
M230.829 259.2
L231.622 259.2
L231.622 259.2
L230.829 259.2
z
" style="fill:#ccb974;stroke:#000000;stroke-linejoin:miter;stroke-width:0.3;"/>
   </g>
   <g id="patch_112">
    <path clip-path="url(#pc49e5bdfc7)" d="
M231.622 259.2
L232.416 259.2
L232.416 259.2
L231.622 259.2
z
" style="fill:#ccb974;stroke:#000000;stroke-linejoin:miter;stroke-width:0.3;"/>
   </g>
   <g id="patch_113">
    <path clip-path="url(#pc49e5bdfc7)" d="
M232.416 259.2
L233.21 259.2
L233.21 259.2
L232.416 259.2
z
" style="fill:#ccb974;stroke:#000000;stroke-linejoin:miter;stroke-width:0.3;"/>
   </g>
   <g id="patch_114">
    <path clip-path="url(#pc49e5bdfc7)" d="
M233.21 259.2
L234.003 259.2
L234.003 259.2
L233.21 259.2
z
" style="fill:#ccb974;stroke:#000000;stroke-linejoin:miter;stroke-width:0.3;"/>
   </g>
   <g id="patch_115">
    <path clip-path="url(#pc49e5bdfc7)" d="
M234.003 259.2
L234.797 259.2
L234.797 28.8
L234.003 28.8
z
" style="fill:#ccb974;stroke:#000000;stroke-linejoin:miter;stroke-width:0.3;"/>
   </g>
   <g id="patch_116">
    <path clip-path="url(#pc49e5bdfc7)" d="
M234.797 259.2
L235.59 259.2
L235.59 259.2
L234.797 259.2
z
" style="fill:#ccb974;stroke:#000000;stroke-linejoin:miter;stroke-width:0.3;"/>
   </g>
   <g id="patch_117">
    <path clip-path="url(#pc49e5bdfc7)" d="
M235.59 259.2
L236.384 259.2
L236.384 259.2
L235.59 259.2
z
" style="fill:#ccb974;stroke:#000000;stroke-linejoin:miter;stroke-width:0.3;"/>
   </g>
   <g id="patch_118">
    <path clip-path="url(#pc49e5bdfc7)" d="
M236.384 259.2
L237.178 259.2
L237.178 259.2
L236.384 259.2
z
" style="fill:#ccb974;stroke:#000000;stroke-linejoin:miter;stroke-width:0.3;"/>
   </g>
   <g id="patch_119">
    <path clip-path="url(#pc49e5bdfc7)" d="
M237.178 259.2
L237.971 259.2
L237.971 259.2
L237.178 259.2
z
" style="fill:#ccb974;stroke:#000000;stroke-linejoin:miter;stroke-width:0.3;"/>
   </g>
   <g id="patch_120">
    <path clip-path="url(#pc49e5bdfc7)" d="
M237.971 259.2
L238.765 259.2
L238.765 259.2
L237.971 259.2
z
" style="fill:#ccb974;stroke:#000000;stroke-linejoin:miter;stroke-width:0.3;"/>
   </g>
   <g id="patch_121">
    <path clip-path="url(#pc49e5bdfc7)" d="
M238.765 259.2
L239.558 259.2
L239.558 201.6
L238.765 201.6
z
" style="fill:#ccb974;stroke:#000000;stroke-linejoin:miter;stroke-width:0.3;"/>
   </g>
   <g id="patch_122">
    <path clip-path="url(#pc49e5bdfc7)" d="
M239.558 259.2
L240.352 259.2
L240.352 259.2
L239.558 259.2
z
" style="fill:#ccb974;stroke:#000000;stroke-linejoin:miter;stroke-width:0.3;"/>
   </g>
   <g id="patch_123">
    <path clip-path="url(#pc49e5bdfc7)" d="
M240.352 259.2
L241.146 259.2
L241.146 259.2
L240.352 259.2
z
" style="fill:#ccb974;stroke:#000000;stroke-linejoin:miter;stroke-width:0.3;"/>
   </g>
   <g id="patch_124">
    <path clip-path="url(#pc49e5bdfc7)" d="
M241.146 259.2
L241.939 259.2
L241.939 259.2
L241.146 259.2
z
" style="fill:#ccb974;stroke:#000000;stroke-linejoin:miter;stroke-width:0.3;"/>
   </g>
   <g id="patch_125">
    <path clip-path="url(#pc49e5bdfc7)" d="
M241.939 259.2
L242.733 259.2
L242.733 259.2
L241.939 259.2
z
" style="fill:#ccb974;stroke:#000000;stroke-linejoin:miter;stroke-width:0.3;"/>
   </g>
   <g id="patch_126">
    <path clip-path="url(#pc49e5bdfc7)" d="
M242.733 259.2
L243.526 259.2
L243.526 259.2
L242.733 259.2
z
" style="fill:#ccb974;stroke:#000000;stroke-linejoin:miter;stroke-width:0.3;"/>
   </g>
   <g id="patch_127">
    <path clip-path="url(#pc49e5bdfc7)" d="
M243.526 259.2
L244.32 259.2
L244.32 220.8
L243.526 220.8
z
" style="fill:#ccb974;stroke:#000000;stroke-linejoin:miter;stroke-width:0.3;"/>
   </g>
   <g id="patch_128">
    <path clip-path="url(#pc49e5bdfc7)" d="
M234.4 259.2
L234.995 259.2
L234.995 240
L234.4 240
z
" style="fill:#64b5cd;stroke:#000000;stroke-linejoin:miter;stroke-width:0.3;"/>
   </g>
   <g id="patch_129">
    <path clip-path="url(#pc49e5bdfc7)" d="
M234.995 259.2
L235.59 259.2
L235.59 259.2
L234.995 259.2
z
" style="fill:#64b5cd;stroke:#000000;stroke-linejoin:miter;stroke-width:0.3;"/>
   </g>
   <g id="patch_130">
    <path clip-path="url(#pc49e5bdfc7)" d="
M235.59 259.2
L236.186 259.2
L236.186 259.2
L235.59 259.2
z
" style="fill:#64b5cd;stroke:#000000;stroke-linejoin:miter;stroke-width:0.3;"/>
   </g>
   <g id="patch_131">
    <path clip-path="url(#pc49e5bdfc7)" d="
M236.186 259.2
L236.781 259.2
L236.781 259.2
L236.186 259.2
z
" style="fill:#64b5cd;stroke:#000000;stroke-linejoin:miter;stroke-width:0.3;"/>
   </g>
   <g id="patch_132">
    <path clip-path="url(#pc49e5bdfc7)" d="
M236.781 259.2
L237.376 259.2
L237.376 259.2
L236.781 259.2
z
" style="fill:#64b5cd;stroke:#000000;stroke-linejoin:miter;stroke-width:0.3;"/>
   </g>
   <g id="patch_133">
    <path clip-path="url(#pc49e5bdfc7)" d="
M237.376 259.2
L237.971 259.2
L237.971 259.2
L237.376 259.2
z
" style="fill:#64b5cd;stroke:#000000;stroke-linejoin:miter;stroke-width:0.3;"/>
   </g>
   <g id="patch_134">
    <path clip-path="url(#pc49e5bdfc7)" d="
M237.971 259.2
L238.566 259.2
L238.566 259.2
L237.971 259.2
z
" style="fill:#64b5cd;stroke:#000000;stroke-linejoin:miter;stroke-width:0.3;"/>
   </g>
   <g id="patch_135">
    <path clip-path="url(#pc49e5bdfc7)" d="
M238.566 259.2
L239.162 259.2
L239.162 259.2
L238.566 259.2
z
" style="fill:#64b5cd;stroke:#000000;stroke-linejoin:miter;stroke-width:0.3;"/>
   </g>
   <g id="patch_136">
    <path clip-path="url(#pc49e5bdfc7)" d="
M239.162 259.2
L239.757 259.2
L239.757 259.2
L239.162 259.2
z
" style="fill:#64b5cd;stroke:#000000;stroke-linejoin:miter;stroke-width:0.3;"/>
   </g>
   <g id="patch_137">
    <path clip-path="url(#pc49e5bdfc7)" d="
M239.757 259.2
L240.352 259.2
L240.352 259.2
L239.757 259.2
z
" style="fill:#64b5cd;stroke:#000000;stroke-linejoin:miter;stroke-width:0.3;"/>
   </g>
   <g id="patch_138">
    <path clip-path="url(#pc49e5bdfc7)" d="
M240.352 259.2
L240.947 259.2
L240.947 259.2
L240.352 259.2
z
" style="fill:#64b5cd;stroke:#000000;stroke-linejoin:miter;stroke-width:0.3;"/>
   </g>
   <g id="patch_139">
    <path clip-path="url(#pc49e5bdfc7)" d="
M240.947 259.2
L241.542 259.2
L241.542 259.2
L240.947 259.2
z
" style="fill:#64b5cd;stroke:#000000;stroke-linejoin:miter;stroke-width:0.3;"/>
   </g>
   <g id="patch_140">
    <path clip-path="url(#pc49e5bdfc7)" d="
M241.542 259.2
L242.138 259.2
L242.138 259.2
L241.542 259.2
z
" style="fill:#64b5cd;stroke:#000000;stroke-linejoin:miter;stroke-width:0.3;"/>
   </g>
   <g id="patch_141">
    <path clip-path="url(#pc49e5bdfc7)" d="
M242.138 259.2
L242.733 259.2
L242.733 259.2
L242.138 259.2
z
" style="fill:#64b5cd;stroke:#000000;stroke-linejoin:miter;stroke-width:0.3;"/>
   </g>
   <g id="patch_142">
    <path clip-path="url(#pc49e5bdfc7)" d="
M242.733 259.2
L243.328 259.2
L243.328 259.2
L242.733 259.2
z
" style="fill:#64b5cd;stroke:#000000;stroke-linejoin:miter;stroke-width:0.3;"/>
   </g>
   <g id="patch_143">
    <path clip-path="url(#pc49e5bdfc7)" d="
M243.328 259.2
L243.923 259.2
L243.923 259.2
L243.328 259.2
z
" style="fill:#64b5cd;stroke:#000000;stroke-linejoin:miter;stroke-width:0.3;"/>
   </g>
   <g id="patch_144">
    <path clip-path="url(#pc49e5bdfc7)" d="
M243.923 259.2
L244.518 259.2
L244.518 240
L243.923 240
z
" style="fill:#64b5cd;stroke:#000000;stroke-linejoin:miter;stroke-width:0.3;"/>
   </g>
   <g id="patch_145">
    <path clip-path="url(#pc49e5bdfc7)" d="
M244.518 259.2
L245.114 259.2
L245.114 259.2
L244.518 259.2
z
" style="fill:#64b5cd;stroke:#000000;stroke-linejoin:miter;stroke-width:0.3;"/>
   </g>
   <g id="patch_146">
    <path clip-path="url(#pc49e5bdfc7)" d="
M245.114 259.2
L245.709 259.2
L245.709 259.2
L245.114 259.2
z
" style="fill:#64b5cd;stroke:#000000;stroke-linejoin:miter;stroke-width:0.3;"/>
   </g>
   <g id="patch_147">
    <path clip-path="url(#pc49e5bdfc7)" d="
M245.709 259.2
L246.304 259.2
L246.304 259.2
L245.709 259.2
z
" style="fill:#64b5cd;stroke:#000000;stroke-linejoin:miter;stroke-width:0.3;"/>
   </g>
   <g id="patch_148">
    <path clip-path="url(#pc49e5bdfc7)" d="
M246.304 259.2
L246.899 259.2
L246.899 259.2
L246.304 259.2
z
" style="fill:#64b5cd;stroke:#000000;stroke-linejoin:miter;stroke-width:0.3;"/>
   </g>
   <g id="patch_149">
    <path clip-path="url(#pc49e5bdfc7)" d="
M246.899 259.2
L247.494 259.2
L247.494 259.2
L246.899 259.2
z
" style="fill:#64b5cd;stroke:#000000;stroke-linejoin:miter;stroke-width:0.3;"/>
   </g>
   <g id="patch_150">
    <path clip-path="url(#pc49e5bdfc7)" d="
M247.494 259.2
L248.09 259.2
L248.09 259.2
L247.494 259.2
z
" style="fill:#64b5cd;stroke:#000000;stroke-linejoin:miter;stroke-width:0.3;"/>
   </g>
   <g id="patch_151">
    <path clip-path="url(#pc49e5bdfc7)" d="
M248.09 259.2
L248.685 259.2
L248.685 259.2
L248.09 259.2
z
" style="fill:#64b5cd;stroke:#000000;stroke-linejoin:miter;stroke-width:0.3;"/>
   </g>
   <g id="patch_152">
    <path clip-path="url(#pc49e5bdfc7)" d="
M248.685 259.2
L249.28 259.2
L249.28 240
L248.685 240
z
" style="fill:#64b5cd;stroke:#000000;stroke-linejoin:miter;stroke-width:0.3;"/>
   </g>
   <g id="patch_153">
    <path d="
M36 28.8
L259.2 28.8" style="fill:none;stroke:#262626;stroke-linecap:square;stroke-linejoin:miter;stroke-width:1.25;"/>
   </g>
   <g id="patch_154">
    <path d="
M259.2 259.2
L259.2 28.8" style="fill:none;stroke:#262626;stroke-linecap:square;stroke-linejoin:miter;stroke-width:1.25;"/>
   </g>
   <g id="patch_155">
    <path d="
M36 259.2
L259.2 259.2" style="fill:none;stroke:#262626;stroke-linecap:square;stroke-linejoin:miter;stroke-width:1.25;"/>
   </g>
   <g id="patch_156">
    <path d="
M36 259.2
L36 28.8" style="fill:none;stroke:#262626;stroke-linecap:square;stroke-linejoin:miter;stroke-width:1.25;"/>
   </g>
   <g id="text_19">
    <!-- deg1 = 6,  deg2 = 6 -->
    <defs>
     <path d="
M4 7.59375
Q4 9 4.51562 10.2188
Q5.04688 11.4531 6 12.375
Q6.95312 13.2969 8.29688 13.8125
Q9.65625 14.3438 11.25 14.3438
Q13.1562 14.3438 14.5469 13.6719
Q15.9531 13 16.8906 11.8281
Q17.8438 10.6562 18.2969 9.125
Q18.75 7.59375 18.75 5.90625
Q18.75 3.5 18.0156 0.84375
Q17.2969 -1.79688 15.8906 -4.4375
Q14.5 -7.09375 12.4531 -9.59375
Q10.4062 -12.0938 7.75 -14.2031
L5.59375 -12.25
Q4.70312 -11.5 4.70312 -10.4062
Q4.70312 -10 4.96875 -9.5
Q5.25 -9 5.65625 -8.59375
Q6.20312 -8 7 -7.125
Q7.79688 -6.25 8.59375 -5.125
Q9.40625 -4 10.0781 -2.67188
Q10.75 -1.34375 11.0469 0.15625
Q9.5 0.15625 8.20312 0.71875
Q6.90625 1.29688 5.96875 2.29688
Q5.04688 3.29688 4.51562 4.64062
Q4 6 4 7.59375" id="Lato-Bold-2c"/>
     <path d="
M42.7031 0
Q40.2969 0 39.5469 2.25
L38.5469 7.20312
Q36.9531 5.40625 35.2031 3.95312
Q33.4531 2.5 31.4219 1.45312
Q29.4062 0.40625 27.0781 -0.171875
Q24.75 -0.75 22.0469 -0.75
Q17.8438 -0.75 14.3438 1
Q10.8438 2.75 8.3125 6.07812
Q5.79688 9.40625 4.42188 14.2969
Q3.04688 19.2031 3.04688 25.5
Q3.04688 31.2031 4.59375 36.0938
Q6.15625 41 9.04688 44.5938
Q11.9531 48.2031 16 50.2188
Q20.0469 52.25 25.0938 52.25
Q29.4062 52.25 32.4531 50.875
Q35.5 49.5 37.9062 47.2031
L37.9062 74.2969
L50.25 74.2969
L50.25 0
z

M26.25 9.04688
Q30.0938 9.04688 32.7969 10.6406
Q35.5 12.25 37.9062 15.2031
L37.9062 38.2031
Q35.7969 40.75 33.3125 41.7969
Q30.8438 42.8438 28 42.8438
Q25.2031 42.8438 22.9219 41.7969
Q20.6562 40.75 19.0781 38.625
Q17.5 36.5 16.6406 33.2188
Q15.7969 29.9531 15.7969 25.5
Q15.7969 21 16.5156 17.875
Q17.25 14.75 18.5938 12.7656
Q19.9531 10.7969 21.8906 9.92188
Q23.8438 9.04688 26.25 9.04688" id="Lato-Bold-64"/>
     <path d="
M6.79688 29.4062
L51.0938 29.4062
L51.0938 20.2031
L6.79688 20.2031
z

M6.79688 47
L51.0938 47
L51.0938 37.8438
L6.79688 37.8438
z
" id="Lato-Bold-3d"/>
     <path id="Lato-Bold-20"/>
    </defs>
    <g style="fill:#262626;" transform="translate(99.148125 23.8)scale(0.12 -0.12)">
     <use xlink:href="#Lato-Bold-64"/>
     <use x="57.0" xlink:href="#Lato-Bold-65"/>
     <use x="110.450012207" xlink:href="#Lato-Bold-67"/>
     <use x="162.200012207" xlink:href="#Lato-Bold-31"/>
     <use x="220.200012207" xlink:href="#Lato-Bold-20"/>
     <use x="239.500015259" xlink:href="#Lato-Bold-3d"/>
     <use x="297.500015259" xlink:href="#Lato-Bold-20"/>
     <use x="316.800018311" xlink:href="#Lato-Bold-36"/>
     <use x="374.800018311" xlink:href="#Lato-Bold-2c"/>
     <use x="397.300018311" xlink:href="#Lato-Bold-20"/>
     <use x="416.600021362" xlink:href="#Lato-Bold-20"/>
     <use x="435.900024414" xlink:href="#Lato-Bold-64"/>
     <use x="492.900024414" xlink:href="#Lato-Bold-65"/>
     <use x="546.350036621" xlink:href="#Lato-Bold-67"/>
     <use x="598.100036621" xlink:href="#Lato-Bold-32"/>
     <use x="656.100036621" xlink:href="#Lato-Bold-20"/>
     <use x="675.400039673" xlink:href="#Lato-Bold-3d"/>
     <use x="733.400039673" xlink:href="#Lato-Bold-20"/>
     <use x="752.700042725" xlink:href="#Lato-Bold-36"/>
    </g>
   </g>
  </g>
 </g>
 <defs>
  <clipPath id="pc49e5bdfc7">
   <rect height="230.4" width="223.2" x="36.0" y="28.8"/>
  </clipPath>
 </defs>
</svg>
