<?xml version="1.0" encoding="utf-8" standalone="no"?>
<!DOCTYPE svg PUBLIC "-//W3C//DTD SVG 1.1//EN"
  "http://www.w3.org/Graphics/SVG/1.1/DTD/svg11.dtd">
<!-- Created with matplotlib (http://matplotlib.org/) -->
<svg height="288pt" version="1.1" viewBox="0 0 288 288" width="288pt" xmlns="http://www.w3.org/2000/svg" xmlns:xlink="http://www.w3.org/1999/xlink">
 <defs>
  <style type="text/css">
*{stroke-linecap:butt;stroke-linejoin:round;}
  </style>
 </defs>
 <g id="figure_1">
  <g id="patch_1">
   <path d="
M0 288
L288 288
L288 0
L0 0
z
" style="fill:#ffffff;"/>
  </g>
  <g id="axes_1">
   <g id="patch_2">
    <path d="
M80.3881 226.54
L250.965 226.54
L250.965 48.56
L80.3881 48.56
z
" style="fill:#ffffff;"/>
   </g>
   <g id="matplotlib.axis_1">
    <g id="xtick_1">
     <g id="line2d_1">
      <defs>
       <path d="
M0 0
L0 6" id="m44d4eda7dc" style="stroke:#262626;"/>
      </defs>
      <g>
       <use style="fill:#262626;stroke:#262626;" x="80.388125" xlink:href="#m44d4eda7dc" y="230.54"/>
      </g>
     </g>
     <g id="text_1">
      <!-- 0 -->
      <defs>
       <path d="
M55.5 36.1562
Q55.5 26.7031 53.4688 19.7188
Q51.4531 12.75 47.875 8.20312
Q44.2969 3.65625 39.4219 1.42188
Q34.5469 -0.796875 28.9062 -0.796875
Q23.25 -0.796875 18.4219 1.42188
Q13.5938 3.65625 10.0469 8.20312
Q6.5 12.75 4.5 19.7188
Q2.5 26.7031 2.5 36.1562
Q2.5 45.6562 4.5 52.5938
Q6.5 59.5469 10.0469 64.0938
Q13.5938 68.6562 18.4219 70.875
Q23.25 73.0938 28.9062 73.0938
Q34.5469 73.0938 39.4219 70.875
Q44.2969 68.6562 47.875 64.0938
Q51.4531 59.5469 53.4688 52.5938
Q55.5 45.6562 55.5 36.1562
M42.75 36.1562
Q42.75 44 41.5938 49.1406
Q40.4531 54.2969 38.5156 57.3438
Q36.5938 60.4062 34.0938 61.625
Q31.5938 62.8438 28.9062 62.8438
Q26.25 62.8438 23.7656 61.625
Q21.2969 60.4062 19.3906 57.3438
Q17.5 54.2969 16.375 49.1406
Q15.25 44 15.25 36.1562
Q15.25 28.2969 16.375 23.1406
Q17.5 18 19.3906 14.9531
Q21.2969 11.9062 23.7656 10.6719
Q26.25 9.45312 28.9062 9.45312
Q31.5938 9.45312 34.0938 10.6719
Q36.5938 11.9062 38.5156 14.9531
Q40.4531 18 41.5938 23.1406
Q42.75 28.2969 42.75 36.1562" id="Lato-Bold-30"/>
      </defs>
      <g style="fill:#262626;" transform="translate(77.738125 250.9696875)scale(0.1 -0.1)">
       <use xlink:href="#Lato-Bold-30"/>
      </g>
     </g>
    </g>
    <g id="xtick_2">
     <g id="line2d_2">
      <g>
       <use style="fill:#262626;stroke:#262626;" x="104.75625" xlink:href="#m44d4eda7dc" y="230.54"/>
      </g>
     </g>
     <g id="text_2">
      <!-- 1 -->
      <defs>
       <path d="
M13.4531 9.25
L28.0938 9.25
L28.0938 51.4062
Q28.0938 53.8438 28.25 56.5469
L17.8438 47.8438
Q17.2031 47.2969 16.5156 47.0938
Q15.8438 46.9062 15.2031 46.9062
Q14.2031 46.9062 13.375 47.3281
Q12.5469 47.75 12.1562 48.2969
L8.25 53.6562
L30.2969 72.4062
L40.4531 72.4062
L40.4531 9.25
L53.4531 9.25
L53.4531 0
L13.4531 0
z
" id="Lato-Bold-31"/>
      </defs>
      <g style="fill:#262626;" transform="translate(102.49609375 250.9696875)scale(0.1 -0.1)">
       <use xlink:href="#Lato-Bold-31"/>
      </g>
     </g>
    </g>
    <g id="xtick_3">
     <g id="line2d_3">
      <g>
       <use style="fill:#262626;stroke:#262626;" x="129.124375" xlink:href="#m44d4eda7dc" y="230.54"/>
      </g>
     </g>
     <g id="text_3">
      <!-- 2 -->
      <defs>
       <path d="
M30.0938 73.0938
Q35.0938 73.0938 39.25 71.625
Q43.4062 70.1562 46.3438 67.4531
Q49.2969 64.75 50.9375 60.9531
Q52.5938 57.1562 52.5938 52.5
Q52.5938 48.5 51.4219 45.0938
Q50.25 41.7031 48.2656 38.5938
Q46.2969 35.5 43.6406 32.5938
Q41 29.7031 38.0938 26.7031
L21.7969 10.0469
Q24.2031 10.75 26.5 11.125
Q28.7969 11.5 30.9062 11.5
L49.4531 11.5
Q51.4531 11.5 52.625 10.375
Q53.7969 9.25 53.7969 7.40625
L53.7969 0
L4.20312 0
L4.20312 4.09375
Q4.20312 5.34375 4.71875 6.6875
Q5.25 8.04688 6.40625 9.20312
L28.3438 31.2031
Q31.0938 34 33.2656 36.5469
Q35.4531 39.0938 36.9219 41.5938
Q38.4062 44.0938 39.1719 46.6719
Q39.9531 49.25 39.9531 52.0938
Q39.9531 54.7031 39.2031 56.6719
Q38.4531 58.6562 37.0469 60
Q35.6562 61.3438 33.7188 62.0156
Q31.7969 62.7031 29.4062 62.7031
Q24.9531 62.7031 22.0781 60.4531
Q19.2031 58.2031 18.0469 54.4062
Q17.5 52.5 16.3906 51.6719
Q15.2969 50.8438 13.5938 50.8438
Q12.8438 50.8438 11.9531 51
L5.45312 52.1562
Q6.20312 57.3438 8.34375 61.2656
Q10.5 65.2031 13.7188 67.8281
Q16.9531 70.4531 21.125 71.7656
Q25.2969 73.0938 30.0938 73.0938" id="Lato-Bold-32"/>
      </defs>
      <g style="fill:#262626;" transform="translate(126.6446875 250.9696875)scale(0.1 -0.1)">
       <use xlink:href="#Lato-Bold-32"/>
      </g>
     </g>
    </g>
    <g id="xtick_4">
     <g id="line2d_4">
      <g>
       <use style="fill:#262626;stroke:#262626;" x="153.4925" xlink:href="#m44d4eda7dc" y="230.54"/>
      </g>
     </g>
     <g id="text_4">
      <!-- 3 -->
      <defs>
       <path d="
M31.25 73.0938
Q36.25 73.0938 40.2656 71.6719
Q44.2969 70.25 47.1406 67.7188
Q50 65.2031 51.5156 61.7969
Q53.0469 58.4062 53.0469 54.4531
Q53.0469 51 52.2656 48.375
Q51.5 45.75 50.0156 43.7969
Q48.5469 41.8438 46.4219 40.5
Q44.2969 39.1562 41.5938 38.25
Q48.0938 36.2031 51.2969 32
Q54.5 27.7969 54.5 21.4531
Q54.5 16.0469 52.5 11.8906
Q50.5 7.75 47.0938 4.92188
Q43.7031 2.09375 39.2188 0.640625
Q34.75 -0.796875 29.75 -0.796875
Q24.2969 -0.796875 20.25 0.453125
Q16.2031 1.70312 13.2031 4.14062
Q10.2031 6.59375 8.09375 10.1406
Q6 13.7031 4.5 18.3438
L9.95312 20.5938
Q11.3438 21.2031 12.7969 21.2031
Q14.0938 21.2031 15.125 20.6406
Q16.1562 20.0938 16.7031 19.0469
Q17.5938 17.2969 18.6719 15.5938
Q19.75 13.9062 21.25 12.5781
Q22.75 11.25 24.7656 10.4219
Q26.7969 9.59375 29.5938 9.59375
Q32.75 9.59375 35.0938 10.625
Q37.4531 11.6562 39.0156 13.2969
Q40.5938 14.9531 41.375 16.9688
Q42.1562 19 42.1562 21.0469
Q42.1562 23.6562 41.5938 25.7812
Q41.0469 27.9062 39.2969 29.4062
Q37.5469 30.9062 34.2656 31.75
Q31 32.5938 25.5 32.5938
L25.5 41.4062
Q30.0469 41.4531 33.0469 42.25
Q36.0469 43.0469 37.8125 44.4688
Q39.5938 45.9062 40.2969 47.9062
Q41 49.9062 41 52.2969
Q41 57.4531 38.2031 60.0781
Q35.4062 62.7031 30.5469 62.7031
Q26.1562 62.7031 23.25 60.375
Q20.3438 58.0469 19.2031 54.4062
Q18.5938 52.5 17.5469 51.6719
Q16.5 50.8438 14.7969 50.8438
Q14 50.8438 13.0938 51
L6.59375 52.1562
Q7.34375 57.3438 9.5 61.2656
Q11.6562 65.2031 14.875 67.8281
Q18.0938 70.4531 22.2656 71.7656
Q26.4531 73.0938 31.25 73.0938" id="Lato-Bold-33"/>
      </defs>
      <g style="fill:#262626;" transform="translate(150.9925 250.9696875)scale(0.1 -0.1)">
       <use xlink:href="#Lato-Bold-33"/>
      </g>
     </g>
    </g>
    <g id="xtick_5">
     <g id="line2d_5">
      <g>
       <use style="fill:#262626;stroke:#262626;" x="177.860625" xlink:href="#m44d4eda7dc" y="230.54"/>
      </g>
     </g>
     <g id="text_5">
      <!-- 4 -->
      <defs>
       <path d="
M47.0938 27.25
L56.2031 27.25
L56.2031 20.0938
Q56.2031 19.0938 55.5469 18.375
Q54.9062 17.6562 53.6562 17.6562
L47.0938 17.6562
L47.0938 0
L36.2969 0
L36.2969 17.6562
L5.79688 17.6562
Q4.54688 17.6562 3.59375 18.4219
Q2.65625 19.2031 2.40625 20.3438
L1.15625 26.5938
L35.4062 72.3438
L47.0938 72.3438
z

M36.2969 50.9062
Q36.2969 52.5 36.3906 54.3438
Q36.5 56.2031 36.75 58.2031
L14.2969 27.25
L36.2969 27.25
z
" id="Lato-Bold-34"/>
      </defs>
      <g style="fill:#262626;" transform="translate(175.10828125 250.9696875)scale(0.1 -0.1)">
       <use xlink:href="#Lato-Bold-34"/>
      </g>
     </g>
    </g>
    <g id="xtick_6">
     <g id="line2d_6">
      <g>
       <use style="fill:#262626;stroke:#262626;" x="202.22875" xlink:href="#m44d4eda7dc" y="230.54"/>
      </g>
     </g>
     <g id="text_6">
      <!-- 5 -->
      <defs>
       <path d="
M49.4531 67.0469
Q49.4531 64.4062 47.7656 62.75
Q46.0938 61.0938 42.2031 61.0938
L22.2969 61.0938
L19.7031 46
Q24.5938 47 28.6562 47
Q34.3438 47 38.6719 45.2969
Q43 43.5938 45.9531 40.5938
Q48.9062 37.5938 50.4062 33.5625
Q51.9062 29.5469 51.9062 24.9062
Q51.9062 19.1562 49.875 14.4062
Q47.8438 9.65625 44.25 6.28125
Q40.6562 2.90625 35.7188 1.04688
Q30.7969 -0.796875 25 -0.796875
Q21.5938 -0.796875 18.5469 -0.09375
Q15.5 0.59375 12.8281 1.76562
Q10.1562 2.95312 7.875 4.46875
Q5.59375 6 3.79688 7.70312
L7.59375 12.9531
Q8.79688 14.6562 10.7969 14.6562
Q12.0469 14.6562 13.3125 13.8438
Q14.5938 13.0469 16.2969 12.0938
Q18 11.1562 20.25 10.3438
Q22.5 9.54688 25.7031 9.54688
Q29.0938 9.54688 31.6875 10.6406
Q34.2969 11.75 36.0156 13.7188
Q37.75 15.7031 38.625 18.4219
Q39.5 21.1562 39.5 24.3438
Q39.5 30.25 36.0781 33.5781
Q32.6562 36.9062 26 36.9062
Q20.75 36.9062 15.4531 35
L7.75 37.2031
L13.75 72.2969
L49.4531 72.2969
z
" id="Lato-Bold-35"/>
      </defs>
      <g style="fill:#262626;" transform="translate(199.82328125 250.9696875)scale(0.1 -0.1)">
       <use xlink:href="#Lato-Bold-35"/>
      </g>
     </g>
    </g>
    <g id="xtick_7">
     <g id="line2d_7">
      <g>
       <use style="fill:#262626;stroke:#262626;" x="226.596875" xlink:href="#m44d4eda7dc" y="230.54"/>
      </g>
     </g>
     <g id="text_7">
      <!-- 6 -->
      <defs>
       <path d="
M33.5 45.1562
Q37.5938 45.1562 41.4688 43.7969
Q45.3438 42.4531 48.2969 39.7188
Q51.25 37 53.0469 32.9531
Q54.8438 28.9062 54.8438 23.5
Q54.8438 18.4531 53 14.0156
Q51.1562 9.59375 47.7969 6.29688
Q44.4531 3 39.7188 1.09375
Q35 -0.796875 29.2969 -0.796875
Q23.5 -0.796875 18.8906 1.04688
Q14.2969 2.90625 11.0469 6.21875
Q7.79688 9.54688 6.0625 14.2188
Q4.34375 18.9062 4.34375 24.5938
Q4.34375 29.7031 6.42188 35.0781
Q8.5 40.4531 12.8438 46.25
L30.0938 69.4062
Q31 70.5938 32.7188 71.4375
Q34.4531 72.2969 36.7031 72.2969
L47.7031 72.2969
L26.25 46.0469
Q25.5469 45.2031 24.9219 44.4531
Q24.2969 43.7031 23.7031 42.9062
Q25.7969 43.9531 28.2188 44.5469
Q30.6562 45.1562 33.5 45.1562
M16.2031 22.7031
Q16.2031 19.7031 17.0156 17.2188
Q17.8438 14.75 19.4688 13
Q21.0938 11.25 23.5 10.2656
Q25.9062 9.29688 29.0469 9.29688
Q32 9.29688 34.4688 10.2969
Q36.9531 11.2969 38.7188 13.0938
Q40.5 14.9062 41.5 17.3281
Q42.5 19.75 42.5 22.5938
Q42.5 25.7031 41.5469 28.1719
Q40.5938 30.6562 38.8438 32.375
Q37.0938 34.0938 34.6406 35
Q32.2031 35.9062 29.25 35.9062
Q26.2969 35.9062 23.8906 34.9062
Q21.5 33.9062 19.7656 32.125
Q18.0469 30.3438 17.125 27.9219
Q16.2031 25.5 16.2031 22.7031" id="Lato-Bold-36"/>
      </defs>
      <g style="fill:#262626;" transform="translate(224.071875 250.9696875)scale(0.1 -0.1)">
       <use xlink:href="#Lato-Bold-36"/>
      </g>
     </g>
    </g>
    <g id="xtick_8">
     <g id="line2d_8">
      <g>
       <use style="fill:#262626;stroke:#262626;" x="250.965" xlink:href="#m44d4eda7dc" y="230.54"/>
      </g>
     </g>
     <g id="text_8">
      <!-- 7 -->
      <defs>
       <path d="
M54.7969 72.2969
L54.7969 66.9531
Q54.7969 64.5469 54.2656 63.0625
Q53.75 61.5938 53.25 60.5938
L25.9062 4.20312
Q25.0469 2.45312 23.5 1.21875
Q21.9531 0 19.2969 0
L10.3438 0
L38.3438 55.25
Q40.0938 58.6562 42.25 61.0938
L7.65625 61.0938
Q6.5 61.0938 5.64062 61.9375
Q4.79688 62.7969 4.79688 63.9531
L4.79688 72.2969
z
" id="Lato-Bold-37"/>
      </defs>
      <g style="fill:#262626;" transform="translate(248.465 250.9696875)scale(0.1 -0.1)">
       <use xlink:href="#Lato-Bold-37"/>
      </g>
     </g>
    </g>
   </g>
   <g id="matplotlib.axis_2">
    <g id="ytick_1">
     <g id="line2d_9">
      <defs>
       <path d="
M0 0
L-6 0" id="m0dfa6ce036" style="stroke:#262626;"/>
      </defs>
      <g>
       <use style="fill:#262626;stroke:#262626;" x="76.388125" xlink:href="#m0dfa6ce036" y="226.54"/>
      </g>
     </g>
     <g id="text_9">
      <!-- 0 -->
      <g style="fill:#262626;" transform="translate(58.088125 229.41734375)scale(0.1 -0.1)">
       <use xlink:href="#Lato-Bold-30"/>
      </g>
     </g>
    </g>
    <g id="ytick_2">
     <g id="line2d_10">
      <g>
       <use style="fill:#262626;stroke:#262626;" x="76.388125" xlink:href="#m0dfa6ce036" y="204.2925"/>
      </g>
     </g>
     <g id="text_10">
      <!-- 5000 -->
      <g style="fill:#262626;" transform="translate(40.8178125 207.16984375)scale(0.1 -0.1)">
       <use xlink:href="#Lato-Bold-35"/>
       <use x="58.0" xlink:href="#Lato-Bold-30"/>
       <use x="116.0" xlink:href="#Lato-Bold-30"/>
       <use x="174.0" xlink:href="#Lato-Bold-30"/>
      </g>
     </g>
    </g>
    <g id="ytick_3">
     <g id="line2d_11">
      <g>
       <use style="fill:#262626;stroke:#262626;" x="76.388125" xlink:href="#m0dfa6ce036" y="182.045"/>
      </g>
     </g>
     <g id="text_11">
      <!-- 10000 -->
      <g style="fill:#262626;" transform="translate(35.463125 184.92234375)scale(0.1 -0.1)">
       <use xlink:href="#Lato-Bold-31"/>
       <use x="58.0" xlink:href="#Lato-Bold-30"/>
       <use x="116.0" xlink:href="#Lato-Bold-30"/>
       <use x="174.0" xlink:href="#Lato-Bold-30"/>
       <use x="232.0" xlink:href="#Lato-Bold-30"/>
      </g>
     </g>
    </g>
    <g id="ytick_4">
     <g id="line2d_12">
      <g>
       <use style="fill:#262626;stroke:#262626;" x="76.388125" xlink:href="#m0dfa6ce036" y="159.7975"/>
      </g>
     </g>
     <g id="text_12">
      <!-- 15000 -->
      <g style="fill:#262626;" transform="translate(35.463125 162.67484375)scale(0.1 -0.1)">
       <use xlink:href="#Lato-Bold-31"/>
       <use x="58.0" xlink:href="#Lato-Bold-35"/>
       <use x="116.0" xlink:href="#Lato-Bold-30"/>
       <use x="174.0" xlink:href="#Lato-Bold-30"/>
       <use x="232.0" xlink:href="#Lato-Bold-30"/>
      </g>
     </g>
    </g>
    <g id="ytick_5">
     <g id="line2d_13">
      <g>
       <use style="fill:#262626;stroke:#262626;" x="76.388125" xlink:href="#m0dfa6ce036" y="137.55"/>
      </g>
     </g>
     <g id="text_13">
      <!-- 20000 -->
      <g style="fill:#262626;" transform="translate(35.0584375 140.42734375)scale(0.1 -0.1)">
       <use xlink:href="#Lato-Bold-32"/>
       <use x="58.0" xlink:href="#Lato-Bold-30"/>
       <use x="116.0" xlink:href="#Lato-Bold-30"/>
       <use x="174.0" xlink:href="#Lato-Bold-30"/>
       <use x="232.0" xlink:href="#Lato-Bold-30"/>
      </g>
     </g>
    </g>
    <g id="ytick_6">
     <g id="line2d_14">
      <g>
       <use style="fill:#262626;stroke:#262626;" x="76.388125" xlink:href="#m0dfa6ce036" y="115.3025"/>
      </g>
     </g>
     <g id="text_14">
      <!-- 25000 -->
      <g style="fill:#262626;" transform="translate(35.0584375 118.17984375)scale(0.1 -0.1)">
       <use xlink:href="#Lato-Bold-32"/>
       <use x="58.0" xlink:href="#Lato-Bold-35"/>
       <use x="116.0" xlink:href="#Lato-Bold-30"/>
       <use x="174.0" xlink:href="#Lato-Bold-30"/>
       <use x="232.0" xlink:href="#Lato-Bold-30"/>
      </g>
     </g>
    </g>
    <g id="ytick_7">
     <g id="line2d_15">
      <g>
       <use style="fill:#262626;stroke:#262626;" x="76.388125" xlink:href="#m0dfa6ce036" y="93.055"/>
      </g>
     </g>
     <g id="text_15">
      <!-- 30000 -->
      <g style="fill:#262626;" transform="translate(35.088125 95.93234375)scale(0.1 -0.1)">
       <use xlink:href="#Lato-Bold-33"/>
       <use x="58.0" xlink:href="#Lato-Bold-30"/>
       <use x="116.0" xlink:href="#Lato-Bold-30"/>
       <use x="174.0" xlink:href="#Lato-Bold-30"/>
       <use x="232.0" xlink:href="#Lato-Bold-30"/>
      </g>
     </g>
    </g>
    <g id="ytick_8">
     <g id="line2d_16">
      <g>
       <use style="fill:#262626;stroke:#262626;" x="76.388125" xlink:href="#m0dfa6ce036" y="70.8075"/>
      </g>
     </g>
     <g id="text_16">
      <!-- 35000 -->
      <g style="fill:#262626;" transform="translate(35.088125 73.68484375)scale(0.1 -0.1)">
       <use xlink:href="#Lato-Bold-33"/>
       <use x="58.0" xlink:href="#Lato-Bold-35"/>
       <use x="116.0" xlink:href="#Lato-Bold-30"/>
       <use x="174.0" xlink:href="#Lato-Bold-30"/>
       <use x="232.0" xlink:href="#Lato-Bold-30"/>
      </g>
     </g>
    </g>
    <g id="ytick_9">
     <g id="line2d_17">
      <g>
       <use style="fill:#262626;stroke:#262626;" x="76.388125" xlink:href="#m0dfa6ce036" y="48.56"/>
      </g>
     </g>
     <g id="text_17">
      <!-- 40000 -->
      <g style="fill:#262626;" transform="translate(34.75375 51.43734375)scale(0.1 -0.1)">
       <use xlink:href="#Lato-Bold-34"/>
       <use x="58.0" xlink:href="#Lato-Bold-30"/>
       <use x="116.0" xlink:href="#Lato-Bold-30"/>
       <use x="174.0" xlink:href="#Lato-Bold-30"/>
       <use x="232.0" xlink:href="#Lato-Bold-30"/>
      </g>
     </g>
    </g>
   </g>
   <g id="line2d_18">
    <path clip-path="url(#p2d8038f594)" d="
M104.756 212.453
L129.124 214.7
L153.493 219.879
L177.861 220.311
L202.229 221.97
L226.597 222.224
L250.965 222.985" style="fill:none;stroke:#008066;stroke-linecap:round;stroke-width:1.75;"/>
   </g>
   <g id="line2d_19">
    <path clip-path="url(#p2d8038f594)" d="
M80.3881 142.729
L104.756 212.493
L129.124 210.041
L153.493 216.809
L177.861 218.469
L202.229 220.346
L226.597 221.646
L250.965 222.482" style="fill:none;stroke:#2a9466;stroke-linecap:round;stroke-width:1.75;"/>
   </g>
   <g id="line2d_20">
    <path clip-path="url(#p2d8038f594)" d="
M80.3881 57.3166
L104.756 198.624
L129.124 193.916
L153.493 207.118
L177.861 210.686
L202.229 214.25
L226.597 216.48
L250.965 218.108" style="fill:none;stroke:#2a9466;stroke-linecap:round;stroke-width:1.75;"/>
   </g>
   <g id="line2d_21">
    <path clip-path="url(#p2d8038f594)" d="
M80.3881 140.82
L104.756 212.15
L129.124 209.587
L153.493 216.885
L177.861 218.451
L202.229 220.311
L226.597 221.592
L250.965 222.242" style="fill:none;stroke:#2a9466;stroke-linecap:round;stroke-width:1.75;"/>
   </g>
   <g id="line2d_22">
    <path clip-path="url(#p2d8038f594)" d="
M80.3881 184.207
L104.756 219.47
L129.124 220.333
L153.493 223.439
L177.861 223.537
L202.229 224.346
L226.597 224.422
L250.965 224.738" style="fill:none;stroke:#008066;stroke-linecap:round;stroke-width:1.75;"/>
   </g>
   <g id="line2d_23">
    <path clip-path="url(#p2d8038f594)" d="
M80.3881 56.2265
L104.756 198.993
L129.124 193.231
L153.493 206.455
L177.861 209.725
L202.229 214.437
L226.597 216.52
L250.965 218.001" style="fill:none;stroke:#2a9466;stroke-linecap:round;stroke-width:1.75;"/>
   </g>
   <g id="line2d_24">
    <path clip-path="url(#p2d8038f594)" d="
M80.3881 57.5569
L104.756 198.077
L129.124 203.349
L153.493 213.103
L177.861 214.985
L202.229 217.743
L226.597 218.424
L250.965 218.949" style="fill:none;stroke:#008066;stroke-linecap:round;stroke-width:1.75;"/>
   </g>
   <g id="line2d_25">
    <path clip-path="url(#p2d8038f594)" d="
M80.3881 141.328
L104.756 212.302
L129.124 214.744
L153.493 219.763
L177.861 220.836
L202.229 221.85
L226.597 222.322
L250.965 222.9" style="fill:none;stroke:#008066;stroke-linecap:round;stroke-width:1.75;"/>
   </g>
   <g id="line2d_26">
    <path clip-path="url(#p2d8038f594)" d="
M80.3881 226.54
L104.756 212.493
L129.124 219.399
L153.493 218.949
L177.861 220.8
L202.229 221.365
L226.597 222.144
L250.965 222.268" style="fill:none;stroke:#ff1500;stroke-linecap:round;stroke-width:1.75;"/>
   </g>
   <g id="line2d_27">
    <path clip-path="url(#p2d8038f594)" d="
M80.3881 226.54
L104.756 211.972
L129.124 219.416
L153.493 219.051
L177.861 220.907
L202.229 221.267
L226.597 222.113
L250.965 222.295" style="fill:none;stroke:#ff1500;stroke-linecap:round;stroke-width:1.75;"/>
   </g>
   <g id="line2d_28">
    <path clip-path="url(#p2d8038f594)" d="
M80.3881 226.54
L104.756 170.258
L129.124 198.557
L153.493 203.389
L177.861 209.89
L202.229 212.626
L226.597 215.274
L250.965 217.08" style="fill:none;stroke:#ff2a00;stroke-linecap:round;stroke-width:1.75;"/>
   </g>
   <g id="line2d_29">
    <path clip-path="url(#p2d8038f594)" d="
M80.3881 226.54
L104.756 198.619
L129.124 212.342
L153.493 211.99
L177.861 215.292
L202.229 216.177
L226.597 217.623
L250.965 218.17" style="fill:none;stroke:#ff1500;stroke-linecap:round;stroke-width:1.75;"/>
   </g>
   <g id="line2d_30">
    <path clip-path="url(#p2d8038f594)" d="
M80.3881 226.54
L104.756 198.553
L129.124 212.618
L153.493 211.701
L177.861 215.256
L202.229 216.021
L226.597 217.441
L250.965 218.42" style="fill:none;stroke:#ff1500;stroke-linecap:round;stroke-width:1.75;"/>
   </g>
   <g id="line2d_31">
    <path clip-path="url(#p2d8038f594)" d="
M80.3881 226.54
L104.756 198.655
L129.124 212.408
L153.493 213.512
L177.861 217.027
L202.229 217.281
L226.597 218.562
L250.965 218.744" style="fill:none;stroke:#ff0000;stroke-linecap:round;stroke-width:1.75;"/>
   </g>
   <g id="line2d_32">
    <path clip-path="url(#p2d8038f594)" d="
M80.3881 226.54
L104.756 212.315
L129.124 219.545
L153.493 218.833
L177.861 220.929
L202.229 221.343
L226.597 222.059
L250.965 222.398" style="fill:none;stroke:#ff1500;stroke-linecap:round;stroke-width:1.75;"/>
   </g>
   <g id="line2d_33">
    <path clip-path="url(#p2d8038f594)" d="
M80.3881 226.54
L104.756 212.515
L129.124 219.278
L153.493 219.336
L177.861 221.072
L202.229 221.325
L226.597 221.953
L250.965 222.188" style="fill:none;stroke:#ff1500;stroke-linecap:round;stroke-width:1.75;"/>
   </g>
   <g id="line2d_34">
    <path clip-path="url(#p2d8038f594)" d="
M80.3881 226.54
L104.756 198.277
L129.124 212.564
L153.493 211.429
L177.861 215.256
L202.229 215.91
L226.597 217.103
L250.965 218.313" style="fill:none;stroke:#ff1500;stroke-linecap:round;stroke-width:1.75;"/>
   </g>
   <g id="line2d_35">
    <path clip-path="url(#p2d8038f594)" d="
M80.3881 226.54
L104.756 198.295
L129.124 211.932
L153.493 213.24
L177.861 216.4
L202.229 217.2
L226.597 218.197
L250.965 218.544" style="fill:none;stroke:#ff0000;stroke-linecap:round;stroke-width:1.75;"/>
   </g>
   <g id="line2d_36">
    <path clip-path="url(#p2d8038f594)" d="
M80.3881 226.54
L104.756 111.845
L129.124 169.698
L153.493 178.917
L177.861 192.75
L202.229 199.229
L226.597 203.794
L250.965 207.274" style="fill:none;stroke:#ff2a00;stroke-linecap:round;stroke-width:1.75;"/>
   </g>
   <g id="line2d_37">
    <path clip-path="url(#p2d8038f594)" d="
M80.3881 226.54
L104.756 198.077
L129.124 212.56
L153.493 213.294
L177.861 216.088
L202.229 217.107
L226.597 217.926
L250.965 218.851" style="fill:none;stroke:#ff0000;stroke-linecap:round;stroke-width:1.75;"/>
   </g>
   <g id="line2d_38">
    <path clip-path="url(#p2d8038f594)" d="
M80.3881 226.54
L104.756 198.646
L129.124 212.529
L153.493 211.616
L177.861 215.292
L202.229 215.714
L226.597 217.539
L250.965 218.34" style="fill:none;stroke:#ff1500;stroke-linecap:round;stroke-width:1.75;"/>
   </g>
   <g id="line2d_39">
    <path clip-path="url(#p2d8038f594)" d="
M80.3881 226.54
L104.756 198.664
L129.124 212.48
L153.493 211.554
L177.861 215.007
L202.229 216.088
L226.597 217.561
L250.965 218.157" style="fill:none;stroke:#ff1500;stroke-linecap:round;stroke-width:1.75;"/>
   </g>
   <g id="line2d_40">
    <path clip-path="url(#p2d8038f594)" d="
M80.3881 226.54
L104.756 197.916
L129.124 212.208
L153.493 211.096
L177.861 214.856
L202.229 216.36
L226.597 217.272
L250.965 218.01" style="fill:none;stroke:#ff1500;stroke-linecap:round;stroke-width:1.75;"/>
   </g>
   <g id="line2d_41">
    <path clip-path="url(#p2d8038f594)" d="
M80.3881 226.54
L104.756 169.853
L129.124 198.103
L153.493 196.875
L177.861 203.71
L202.229 205.939
L226.597 208.15
L250.965 209.312" style="fill:none;stroke:#ff1500;stroke-linecap:round;stroke-width:1.75;"/>
   </g>
   <g id="line2d_42">
    <path clip-path="url(#p2d8038f594)" d="
M80.3881 226.54
L104.756 198.232
L129.124 212.871
L153.493 211.229
L177.861 215.252
L202.229 216.142
L226.597 217.41
L250.965 218.041" style="fill:none;stroke:#ff1500;stroke-linecap:round;stroke-width:1.75;"/>
   </g>
   <g id="line2d_43">
    <path clip-path="url(#p2d8038f594)" d="
M80.3881 226.54
L104.756 198.633
L129.124 212.226
L153.493 211.986
L177.861 215.056
L202.229 215.83
L226.597 217.312
L250.965 217.957" style="fill:none;stroke:#ff1500;stroke-linecap:round;stroke-width:1.75;"/>
   </g>
   <g id="line2d_44">
    <path clip-path="url(#p2d8038f594)" d="
M80.3881 226.54
L104.756 226.54
L129.124 216.84
L153.493 221.752
L177.861 221.009
L202.229 222.108
L226.597 222.046
L250.965 222.691" style="fill:none;stroke:#0055d4;stroke-linecap:round;stroke-width:1.75;"/>
   </g>
   <g id="line2d_45">
    <path clip-path="url(#p2d8038f594)" d="
M80.3881 226.54
L104.756 226.54
L129.124 216.902
L153.493 218.785
L177.861 218.366
L202.229 219.056
L226.597 218.842
L250.965 219.154" style="fill:none;stroke:#001cf1;stroke-linecap:round;stroke-width:1.75;"/>
   </g>
   <g id="line2d_46">
    <path clip-path="url(#p2d8038f594)" d="
M80.3881 226.54
L104.756 226.54
L129.124 221.944
L153.493 221.174
L177.861 219.474
L202.229 219.559
L226.597 219.229
L250.965 219.283" style="fill:none;stroke:#0038e3;stroke-linecap:round;stroke-width:1.75;"/>
   </g>
   <g id="line2d_47">
    <path clip-path="url(#p2d8038f594)" d="
M80.3881 226.54
L104.756 226.54
L129.124 217.214
L153.493 218.887
L177.861 218.268
L202.229 218.958
L226.597 219.074
L250.965 219.247" style="fill:none;stroke:#001cf1;stroke-linecap:round;stroke-width:1.75;"/>
   </g>
   <g id="line2d_48">
    <path clip-path="url(#p2d8038f594)" d="
M80.3881 226.54
L104.756 226.54
L129.124 222.042
L153.493 221.209
L177.861 219.443
L202.229 219.514
L226.597 219.403
L250.965 219.31" style="fill:none;stroke:#0038e3;stroke-linecap:round;stroke-width:1.75;"/>
   </g>
   <g id="line2d_49">
    <path clip-path="url(#p2d8038f594)" d="
M80.3881 226.54
L104.756 226.54
L129.124 221.872
L153.493 221.783
L177.861 220.231
L202.229 220.244
L226.597 219.937
L250.965 219.906" style="fill:none;stroke:#001cf1;stroke-linecap:round;stroke-width:1.75;"/>
   </g>
   <g id="line2d_50">
    <path clip-path="url(#p2d8038f594)" d="
M80.3881 226.54
L104.756 226.54
L129.124 221.984
L153.493 221.953
L177.861 220.716
L202.229 220.431
L226.597 220.053
L250.965 219.91" style="fill:none;stroke:#001cf1;stroke-linecap:round;stroke-width:1.75;"/>
   </g>
   <g id="line2d_51">
    <path clip-path="url(#p2d8038f594)" d="
M80.3881 226.54
L104.756 226.54
L129.124 207.683
L153.493 216.858
L177.861 215.634
L202.229 217.872
L226.597 217.823
L250.965 218.771" style="fill:none;stroke:#0055d4;stroke-linecap:round;stroke-width:1.75;"/>
   </g>
   <g id="line2d_52">
    <path clip-path="url(#p2d8038f594)" d="
M80.3881 226.54
L104.756 226.54
L129.124 222.024
L153.493 222.028
L177.861 220.756
L202.229 220.76
L226.597 220.07
L250.965 219.959" style="fill:none;stroke:#001cf1;stroke-linecap:round;stroke-width:1.75;"/>
   </g>
   <g id="line2d_53">
    <path clip-path="url(#p2d8038f594)" d="
M80.3881 226.54
L104.756 226.54
L129.124 221.668
L153.493 221.646
L177.861 220.462
L202.229 220.07
L226.597 220.039
L250.965 219.759" style="fill:none;stroke:#001cf1;stroke-linecap:round;stroke-width:1.75;"/>
   </g>
   <g id="line2d_54">
    <path clip-path="url(#p2d8038f594)" d="
M80.3881 226.54
L104.756 226.54
L129.124 221.944
L153.493 221.276
L177.861 219.572
L202.229 219.759
L226.597 219.212
L250.965 219.323" style="fill:none;stroke:#0038e3;stroke-linecap:round;stroke-width:1.75;"/>
   </g>
   <g id="line2d_55">
    <path clip-path="url(#p2d8038f594)" d="
M80.3881 226.54
L104.756 226.54
L129.124 217.067
L153.493 222.086
L177.861 220.965
L202.229 222.09
L226.597 222.255
L250.965 222.549" style="fill:none;stroke:#0038e3;stroke-linecap:round;stroke-width:1.75;"/>
   </g>
   <g id="line2d_56">
    <path clip-path="url(#p2d8038f594)" d="
M80.3881 226.54
L104.756 226.54
L129.124 221.81
L153.493 224.217
L177.861 223.79
L202.229 224.244
L226.597 224.36
L250.965 224.564" style="fill:none;stroke:#0038e3;stroke-linecap:round;stroke-width:1.75;"/>
   </g>
   <g id="line2d_57">
    <path clip-path="url(#p2d8038f594)" d="
M80.3881 226.54
L104.756 226.54
L129.124 221.663
L153.493 220.885
L177.861 219.274
L202.229 219.777
L226.597 219.661
L250.965 219.474" style="fill:none;stroke:#0038e3;stroke-linecap:round;stroke-width:1.75;"/>
   </g>
   <g id="line2d_58">
    <path clip-path="url(#p2d8038f594)" d="
M80.3881 226.54
L104.756 226.54
L129.124 217.503
L153.493 221.859
L177.861 220.983
L202.229 221.948
L226.597 221.935
L250.965 222.513" style="fill:none;stroke:#0055d4;stroke-linecap:round;stroke-width:1.75;"/>
   </g>
   <g id="line2d_59">
    <path clip-path="url(#p2d8038f594)" d="
M80.3881 226.54
L104.756 226.54
L129.124 207.745
L153.493 210.74
L177.861 210.019
L202.229 211.025
L226.597 211.429
L250.965 211.643" style="fill:none;stroke:#001cf1;stroke-linecap:round;stroke-width:1.75;"/>
   </g>
   <g id="line2d_60">
    <path clip-path="url(#p2d8038f594)" d="
M80.3881 226.54
L104.756 226.54
L129.124 217.232
L153.493 217.218
L177.861 214.326
L202.229 213.975
L226.597 213.628
L250.965 213.547" style="fill:none;stroke:#001cf1;stroke-linecap:round;stroke-width:1.75;"/>
   </g>
   <g id="line2d_61">
    <path clip-path="url(#p2d8038f594)" d="
M80.3881 226.54
L104.756 226.54
L129.124 207.639
L153.493 210.633
L177.861 209.561
L202.229 210.789
L226.597 211.274
L250.965 211.585" style="fill:none;stroke:#001cf1;stroke-linecap:round;stroke-width:1.75;"/>
   </g>
   <g id="line2d_62">
    <path clip-path="url(#p2d8038f594)" d="
M80.3881 226.54
L104.756 226.54
L129.124 217.209
L153.493 217.267
L177.861 214.086
L202.229 214.509
L226.597 213.316
L250.965 213.232" style="fill:none;stroke:#001cf1;stroke-linecap:round;stroke-width:1.75;"/>
   </g>
   <g id="line2d_63">
    <path clip-path="url(#p2d8038f594)" d="
M80.3881 226.54
L104.756 226.54
L129.124 207.883
L153.493 217.361
L177.861 215.456
L202.229 217.619
L226.597 217.734
L250.965 218.202" style="fill:none;stroke:#0055d4;stroke-linecap:round;stroke-width:1.75;"/>
   </g>
   <g id="line2d_64">
    <path clip-path="url(#p2d8038f594)" d="
M80.3881 226.54
L104.756 226.54
L129.124 217.218
L153.493 215.581
L177.861 212.466
L202.229 212.666
L226.597 211.874
L250.965 212.146" style="fill:none;stroke:#0038e3;stroke-linecap:round;stroke-width:1.75;"/>
   </g>
   <g id="line2d_65">
    <path clip-path="url(#p2d8038f594)" d="
M80.3881 226.54
L104.756 226.54
L129.124 216.902
L153.493 216.8
L177.861 214.108
L202.229 213.823
L226.597 213.294
L250.965 212.969" style="fill:none;stroke:#001cf1;stroke-linecap:round;stroke-width:1.75;"/>
   </g>
   <g id="line2d_66">
    <path clip-path="url(#p2d8038f594)" d="
M80.3881 226.54
L104.756 226.54
L129.124 216.965
L153.493 216.773
L177.861 214.184
L202.229 214.01
L226.597 213.396
L250.965 212.987" style="fill:none;stroke:#001cf1;stroke-linecap:round;stroke-width:1.75;"/>
   </g>
   <g id="line2d_67">
    <path clip-path="url(#p2d8038f594)" d="
M80.3881 226.54
L104.756 226.54
L129.124 207.465
L153.493 211.033
L177.861 209.125
L202.229 210.606
L226.597 210.931
L250.965 211.122" style="fill:none;stroke:#001cf1;stroke-linecap:round;stroke-width:1.75;"/>
   </g>
   <g id="line2d_68">
    <path clip-path="url(#p2d8038f594)" d="
M80.3881 226.54
L104.756 226.54
L129.124 208.052
L153.493 210.784
L177.861 209.405
L202.229 210.686
L226.597 210.682
L250.965 211.171" style="fill:none;stroke:#001cf1;stroke-linecap:round;stroke-width:1.75;"/>
   </g>
   <g id="line2d_69">
    <path clip-path="url(#p2d8038f594)" d="
M80.3881 226.54
L104.756 226.54
L129.124 207.207
L153.493 210.246
L177.861 209.676
L202.229 210.237
L226.597 210.072
L250.965 211.336" style="fill:none;stroke:#001cf1;stroke-linecap:round;stroke-width:1.75;"/>
   </g>
   <g id="line2d_70">
    <path clip-path="url(#p2d8038f594)" d="
M80.3881 226.54
L104.756 226.54
L129.124 226.54
L153.493 221.623
L177.861 222.224
L202.229 220.377
L226.597 220.36
L250.965 219.821" style="fill:none;stroke:#4ab5ff;stroke-linecap:round;stroke-width:1.75;"/>
   </g>
   <g id="line2d_71">
    <path clip-path="url(#p2d8038f594)" d="
M80.3881 226.54
L104.756 226.54
L129.124 226.54
L153.493 223.27
L177.861 223.02
L202.229 221.174
L226.597 220.871
L250.965 220.48" style="fill:none;stroke:#40bfff;stroke-linecap:round;stroke-width:1.75;"/>
   </g>
   <g id="line2d_72">
    <path clip-path="url(#p2d8038f594)" d="
M80.3881 226.54
L104.756 226.54
L129.124 226.54
L153.493 221.828
L177.861 222.006
L202.229 220.894
L226.597 220.404
L250.965 220.391" style="fill:none;stroke:#4ab5ff;stroke-linecap:round;stroke-width:1.75;"/>
   </g>
   <g id="line2d_73">
    <path clip-path="url(#p2d8038f594)" d="
M80.3881 226.54
L104.756 226.54
L129.124 226.54
L153.493 225.73
L177.861 223.452
L202.229 222.251
L226.597 221.281
L250.965 220.64" style="fill:none;stroke:#40bfff;stroke-linecap:round;stroke-width:1.75;"/>
   </g>
   <g id="line2d_74">
    <path clip-path="url(#p2d8038f594)" d="
M80.3881 226.54
L104.756 226.54
L129.124 226.54
L153.493 225.779
L177.861 223.443
L202.229 222.277
L226.597 221.303
L250.965 220.627" style="fill:none;stroke:#40bfff;stroke-linecap:round;stroke-width:1.75;"/>
   </g>
   <g id="line2d_75">
    <path clip-path="url(#p2d8038f594)" d="
M80.3881 226.54
L104.756 226.54
L129.124 226.54
L153.493 221.832
L177.861 222.224
L202.229 220.591
L226.597 220.257
L250.965 219.946" style="fill:none;stroke:#4ab5ff;stroke-linecap:round;stroke-width:1.75;"/>
   </g>
   <g id="line2d_76">
    <path clip-path="url(#p2d8038f594)" d="
M80.3881 226.54
L104.756 226.54
L129.124 226.54
L153.493 221.988
L177.861 222.291
L202.229 220.613
L226.597 220.44
L250.965 220.035" style="fill:none;stroke:#4ab5ff;stroke-linecap:round;stroke-width:1.75;"/>
   </g>
   <g id="line2d_77">
    <path clip-path="url(#p2d8038f594)" d="
M80.3881 226.54
L104.756 226.54
L129.124 226.54
L153.493 225.815
L177.861 223.385
L202.229 222.58
L226.597 221.485
L250.965 220.716" style="fill:none;stroke:#40bfff;stroke-linecap:round;stroke-width:1.75;"/>
   </g>
   <g id="line2d_78">
    <path clip-path="url(#p2d8038f594)" d="
M80.3881 226.54
L104.756 226.54
L129.124 226.54
L153.493 221.743
L177.861 222.188
L202.229 220.587
L226.597 220.449
L250.965 219.857" style="fill:none;stroke:#4ab5ff;stroke-linecap:round;stroke-width:1.75;"/>
   </g>
   <g id="line2d_79">
    <path clip-path="url(#p2d8038f594)" d="
M80.3881 226.54
L104.756 226.54
L129.124 226.54
L153.493 221.93
L177.861 222.135
L202.229 220.742
L226.597 220.52
L250.965 220.328" style="fill:none;stroke:#4ab5ff;stroke-linecap:round;stroke-width:1.75;"/>
   </g>
   <g id="line2d_80">
    <path clip-path="url(#p2d8038f594)" d="
M80.3881 226.54
L104.756 226.54
L129.124 226.54
L153.493 221.988
L177.861 221.65
L202.229 220.142
L226.597 220.475
L250.965 219.683" style="fill:none;stroke:#40bfff;stroke-linecap:round;stroke-width:1.75;"/>
   </g>
   <g id="line2d_81">
    <path clip-path="url(#p2d8038f594)" d="
M80.3881 226.54
L104.756 226.54
L129.124 226.54
L153.493 222.037
L177.861 221.993
L202.229 220.191
L226.597 220.458
L250.965 219.674" style="fill:none;stroke:#4ab5ff;stroke-linecap:round;stroke-width:1.75;"/>
   </g>
   <g id="line2d_82">
    <path clip-path="url(#p2d8038f594)" d="
M80.3881 226.54
L104.756 226.54
L129.124 226.54
L153.493 221.966
L177.861 221.966
L202.229 220.578
L226.597 220.369
L250.965 219.919" style="fill:none;stroke:#4ab5ff;stroke-linecap:round;stroke-width:1.75;"/>
   </g>
   <g id="line2d_83">
    <path clip-path="url(#p2d8038f594)" d="
M80.3881 226.54
L104.756 226.54
L129.124 226.54
L153.493 225.819
L177.861 223.408
L202.229 222.371
L226.597 221.232
L250.965 220.627" style="fill:none;stroke:#40bfff;stroke-linecap:round;stroke-width:1.75;"/>
   </g>
   <g id="line2d_84">
    <path clip-path="url(#p2d8038f594)" d="
M80.3881 226.54
L104.756 226.54
L129.124 226.54
L153.493 220.11
L177.861 219.683
L202.229 216.827
L226.597 215.857
L250.965 214.651" style="fill:none;stroke:#40bfff;stroke-linecap:round;stroke-width:1.75;"/>
   </g>
   <g id="line2d_85">
    <path clip-path="url(#p2d8038f594)" d="
M80.3881 226.54
L104.756 226.54
L129.124 226.54
L153.493 217.347
L177.861 217.499
L202.229 214.949
L226.597 214.411
L250.965 213.507" style="fill:none;stroke:#4ab5ff;stroke-linecap:round;stroke-width:1.75;"/>
   </g>
   <g id="line2d_86">
    <path clip-path="url(#p2d8038f594)" d="
M80.3881 226.54
L104.756 226.54
L129.124 226.54
L153.493 225.058
L177.861 220.102
L202.229 218.42
L226.597 216.604
L250.965 215.39" style="fill:none;stroke:#40bfff;stroke-linecap:round;stroke-width:1.75;"/>
   </g>
   <g id="line2d_87">
    <path clip-path="url(#p2d8038f594)" d="
M80.3881 226.54
L104.756 226.54
L129.124 226.54
L153.493 217.018
L177.861 217.659
L202.229 214.58
L226.597 214.553
L250.965 212.925" style="fill:none;stroke:#4ab5ff;stroke-linecap:round;stroke-width:1.75;"/>
   </g>
   <g id="line2d_88">
    <path clip-path="url(#p2d8038f594)" d="
M80.3881 226.54
L104.756 226.54
L129.124 226.54
L153.493 223.198
L177.861 219.225
L202.229 217.53
L226.597 215.665
L250.965 215.029" style="fill:none;stroke:#40bfff;stroke-linecap:round;stroke-width:1.75;"/>
   </g>
   <g id="line2d_89">
    <path clip-path="url(#p2d8038f594)" d="
M80.3881 226.54
L104.756 226.54
L129.124 226.54
L153.493 220.333
L177.861 220.217
L202.229 217.027
L226.597 216.106
L250.965 214.989" style="fill:none;stroke:#35caff;stroke-linecap:round;stroke-width:1.75;"/>
   </g>
   <g id="line2d_90">
    <path clip-path="url(#p2d8038f594)" d="
M80.3881 226.54
L104.756 226.54
L129.124 226.54
L153.493 223.505
L177.861 219.003
L202.229 217.712
L226.597 215.301
L250.965 214.687" style="fill:none;stroke:#40bfff;stroke-linecap:round;stroke-width:1.75;"/>
   </g>
   <g id="line2d_91">
    <path clip-path="url(#p2d8038f594)" d="
M80.3881 226.54
L104.756 226.54
L129.124 226.54
L153.493 223.301
L177.861 219.372
L202.229 217.841
L226.597 215.594
L250.965 214.575" style="fill:none;stroke:#40bfff;stroke-linecap:round;stroke-width:1.75;"/>
   </g>
   <g id="line2d_92">
    <path clip-path="url(#p2d8038f594)" d="
M80.3881 226.54
L104.756 226.54
L129.124 226.54
L153.493 223.256
L177.861 223.399
L202.229 221.81
L226.597 221.245
L250.965 220.284" style="fill:none;stroke:#35caff;stroke-linecap:round;stroke-width:1.75;"/>
   </g>
   <g id="line2d_93">
    <path clip-path="url(#p2d8038f594)" d="
M80.3881 226.54
L104.756 226.54
L129.124 226.54
L153.493 226.54
L177.861 224.373
L202.229 223.132
L226.597 222.148
L250.965 221.134" style="fill:none;stroke:#69422a;stroke-linecap:round;stroke-width:1.75;"/>
   </g>
   <g id="line2d_94">
    <path clip-path="url(#p2d8038f594)" d="
M80.3881 226.54
L104.756 226.54
L129.124 226.54
L153.493 226.54
L177.861 224.231
L202.229 223.283
L226.597 221.757
L250.965 221.476" style="fill:none;stroke:#69422a;stroke-linecap:round;stroke-width:1.75;"/>
   </g>
   <g id="line2d_95">
    <path clip-path="url(#p2d8038f594)" d="
M80.3881 226.54
L104.756 226.54
L129.124 226.54
L153.493 226.54
L177.861 224.186
L202.229 222.891
L226.597 221.539
L250.965 221.08" style="fill:none;stroke:#69422a;stroke-linecap:round;stroke-width:1.75;"/>
   </g>
   <g id="patch_3">
    <path d="
M80.3881 230.54
L250.965 230.54" style="fill:none;stroke:#262626;stroke-linecap:square;stroke-linejoin:miter;stroke-width:1.25;"/>
   </g>
   <g id="patch_4">
    <path d="
M76.3881 226.54
L76.3881 48.56" style="fill:none;stroke:#262626;stroke-linecap:square;stroke-linejoin:miter;stroke-width:1.25;"/>
   </g>
   <g id="text_18">
    <!-- deg1 = 6,  deg2 = 6 -->
    <defs>
     <path id="Lato-Bold-20"/>
     <path d="
M24.3438 52.2031
Q27.6562 52.2031 30.5469 51.5156
Q33.4531 50.8438 35.8438 49.5469
L50.5938 49.5469
L50.5938 44.9531
Q50.5938 43.7969 50 43.1406
Q49.4062 42.5 47.9531 42.25
L43.3438 41.4062
Q43.8438 40.0938 44.125 38.6406
Q44.4062 37.2031 44.4062 35.5938
Q44.4062 31.7969 42.875 28.7188
Q41.3438 25.6562 38.6719 23.5
Q36 21.3438 32.3281 20.1719
Q28.6562 19 24.3438 19
Q21.4531 19 18.7031 19.5469
Q16.2969 18.0938 16.2969 16.2969
Q16.2969 14.75 17.7188 14.0156
Q19.1562 13.2969 21.4688 13
Q23.7969 12.7031 26.75 12.625
Q29.7031 12.5469 32.7969 12.2969
Q35.9062 12.0469 38.8438 11.4219
Q41.7969 10.7969 44.125 9.4375
Q46.4531 8.09375 47.875 5.76562
Q49.2969 3.45312 49.2969 -0.203125
Q49.2969 -3.59375 47.625 -6.79688
Q45.9531 -10 42.7656 -12.5
Q39.5938 -15 35 -16.5156
Q30.4062 -18.0469 24.5 -18.0469
Q18.6562 -18.0469 14.3438 -16.9219
Q10.0469 -15.7969 7.21875 -13.9219
Q4.40625 -12.0469 3 -9.59375
Q1.59375 -7.15625 1.59375 -4.5
Q1.59375 -0.90625 3.79688 1.54688
Q6 4 9.90625 5.45312
Q8 6.5 6.84375 8.25
Q5.70312 10 5.70312 12.7969
Q5.70312 13.9531 6.09375 15.1719
Q6.5 16.4062 7.32812 17.5938
Q8.15625 18.7969 9.40625 19.875
Q10.6562 20.9531 12.3438 21.7969
Q8.45312 23.9062 6.21875 27.4062
Q4 30.9062 4 35.5938
Q4 39.4062 5.51562 42.4688
Q7.04688 45.5469 9.76562 47.7188
Q12.5 49.9062 16.2188 51.0469
Q19.9531 52.2031 24.3438 52.2031
M37.9062 -2.29688
Q37.9062 -0.796875 37 0.140625
Q36.0938 1.09375 34.5469 1.625
Q33 2.15625 30.9219 2.40625
Q28.8438 2.65625 26.5156 2.78125
Q24.2031 2.90625 21.7188 3.03125
Q19.25 3.15625 16.9531 3.45312
Q14.8438 2.29688 13.5625 0.71875
Q12.2969 -0.84375 12.2969 -2.90625
Q12.2969 -4.25 12.9688 -5.42188
Q13.6562 -6.59375 15.125 -7.4375
Q16.5938 -8.29688 18.9375 -8.76562
Q21.2969 -9.25 24.7031 -9.25
Q28.1562 -9.25 30.6562 -8.71875
Q33.1562 -8.20312 34.7812 -7.26562
Q36.4062 -6.34375 37.1562 -5.0625
Q37.9062 -3.79688 37.9062 -2.29688
M24.3438 26.9062
Q26.6562 26.9062 28.3438 27.5312
Q30.0469 28.1562 31.1719 29.25
Q32.2969 30.3438 32.875 31.8906
Q33.4531 33.4531 33.4531 35.2969
Q33.4531 39.0938 31.1719 41.3125
Q28.9062 43.5469 24.3438 43.5469
Q19.7969 43.5469 17.5156 41.3125
Q15.25 39.0938 15.25 35.2969
Q15.25 33.5 15.8281 31.9531
Q16.4062 30.4062 17.5312 29.2812
Q18.6562 28.1562 20.375 27.5312
Q22.0938 26.9062 24.3438 26.9062" id="Lato-Bold-67"/>
     <path d="
M4 7.59375
Q4 9 4.51562 10.2188
Q5.04688 11.4531 6 12.375
Q6.95312 13.2969 8.29688 13.8125
Q9.65625 14.3438 11.25 14.3438
Q13.1562 14.3438 14.5469 13.6719
Q15.9531 13 16.8906 11.8281
Q17.8438 10.6562 18.2969 9.125
Q18.75 7.59375 18.75 5.90625
Q18.75 3.5 18.0156 0.84375
Q17.2969 -1.79688 15.8906 -4.4375
Q14.5 -7.09375 12.4531 -9.59375
Q10.4062 -12.0938 7.75 -14.2031
L5.59375 -12.25
Q4.70312 -11.5 4.70312 -10.4062
Q4.70312 -10 4.96875 -9.5
Q5.25 -9 5.65625 -8.59375
Q6.20312 -8 7 -7.125
Q7.79688 -6.25 8.59375 -5.125
Q9.40625 -4 10.0781 -2.67188
Q10.75 -1.34375 11.0469 0.15625
Q9.5 0.15625 8.20312 0.71875
Q6.90625 1.29688 5.96875 2.29688
Q5.04688 3.29688 4.51562 4.64062
Q4 6 4 7.59375" id="Lato-Bold-2c"/>
     <path d="
M27.7969 52.0938
Q32.6562 52.0938 36.7188 50.5469
Q40.7969 49 43.75 46.0156
Q46.7031 43.0469 48.3438 38.7188
Q50 34.4062 50 28.8438
Q50 27.4531 49.875 26.5156
Q49.75 25.5938 49.4219 25.0625
Q49.0938 24.5469 48.5469 24.3125
Q48 24.0938 47.1562 24.0938
L15.4531 24.0938
Q16 16.2031 19.7031 12.5
Q23.4062 8.79688 29.5 8.79688
Q32.5 8.79688 34.6719 9.5
Q36.8438 10.2031 38.4688 11.0469
Q40.0938 11.9062 41.3125 12.5938
Q42.5469 13.2969 43.7031 13.2969
Q44.4531 13.2969 45 13
Q45.5469 12.7031 45.9531 12.1562
L49.5469 7.65625
Q47.5 5.25 44.9531 3.625
Q42.4062 2 39.625 1.01562
Q36.8438 0.046875 33.9688 -0.34375
Q31.0938 -0.75 28.4062 -0.75
Q23.0469 -0.75 18.4375 1.01562
Q13.8438 2.79688 10.4375 6.26562
Q7.04688 9.75 5.09375 14.875
Q3.15625 20 3.15625 26.75
Q3.15625 32 4.84375 36.625
Q6.54688 41.25 9.71875 44.6719
Q12.9062 48.0938 17.4688 50.0938
Q22.0469 52.0938 27.7969 52.0938
M28.0469 43.25
Q22.6562 43.25 19.5938 40.2031
Q16.5469 37.1562 15.7031 31.5469
L38.9062 31.5469
Q38.9062 33.9531 38.25 36.0781
Q37.5938 38.2031 36.25 39.7969
Q34.9062 41.4062 32.8438 42.3281
Q30.7969 43.25 28.0469 43.25" id="Lato-Bold-65"/>
     <path d="
M42.7031 0
Q40.2969 0 39.5469 2.25
L38.5469 7.20312
Q36.9531 5.40625 35.2031 3.95312
Q33.4531 2.5 31.4219 1.45312
Q29.4062 0.40625 27.0781 -0.171875
Q24.75 -0.75 22.0469 -0.75
Q17.8438 -0.75 14.3438 1
Q10.8438 2.75 8.3125 6.07812
Q5.79688 9.40625 4.42188 14.2969
Q3.04688 19.2031 3.04688 25.5
Q3.04688 31.2031 4.59375 36.0938
Q6.15625 41 9.04688 44.5938
Q11.9531 48.2031 16 50.2188
Q20.0469 52.25 25.0938 52.25
Q29.4062 52.25 32.4531 50.875
Q35.5 49.5 37.9062 47.2031
L37.9062 74.2969
L50.25 74.2969
L50.25 0
z

M26.25 9.04688
Q30.0938 9.04688 32.7969 10.6406
Q35.5 12.25 37.9062 15.2031
L37.9062 38.2031
Q35.7969 40.75 33.3125 41.7969
Q30.8438 42.8438 28 42.8438
Q25.2031 42.8438 22.9219 41.7969
Q20.6562 40.75 19.0781 38.625
Q17.5 36.5 16.6406 33.2188
Q15.7969 29.9531 15.7969 25.5
Q15.7969 21 16.5156 17.875
Q17.25 14.75 18.5938 12.7656
Q19.9531 10.7969 21.8906 9.92188
Q23.8438 9.04688 26.25 9.04688" id="Lato-Bold-64"/>
     <path d="
M6.79688 29.4062
L51.0938 29.4062
L51.0938 20.2031
L6.79688 20.2031
z

M6.79688 47
L51.0938 47
L51.0938 37.8438
L6.79688 37.8438
z
" id="Lato-Bold-3d"/>
    </defs>
    <g style="fill:#262626;" transform="translate(117.2246875 43.56)scale(0.12 -0.12)">
     <use xlink:href="#Lato-Bold-64"/>
     <use x="57.0" xlink:href="#Lato-Bold-65"/>
     <use x="110.450012207" xlink:href="#Lato-Bold-67"/>
     <use x="162.200012207" xlink:href="#Lato-Bold-31"/>
     <use x="220.200012207" xlink:href="#Lato-Bold-20"/>
     <use x="239.500015259" xlink:href="#Lato-Bold-3d"/>
     <use x="297.500015259" xlink:href="#Lato-Bold-20"/>
     <use x="316.800018311" xlink:href="#Lato-Bold-36"/>
     <use x="374.800018311" xlink:href="#Lato-Bold-2c"/>
     <use x="397.300018311" xlink:href="#Lato-Bold-20"/>
     <use x="416.600021362" xlink:href="#Lato-Bold-20"/>
     <use x="435.900024414" xlink:href="#Lato-Bold-64"/>
     <use x="492.900024414" xlink:href="#Lato-Bold-65"/>
     <use x="546.350036621" xlink:href="#Lato-Bold-67"/>
     <use x="598.100036621" xlink:href="#Lato-Bold-32"/>
     <use x="656.100036621" xlink:href="#Lato-Bold-20"/>
     <use x="675.400039673" xlink:href="#Lato-Bold-3d"/>
     <use x="733.400039673" xlink:href="#Lato-Bold-20"/>
     <use x="752.700042725" xlink:href="#Lato-Bold-36"/>
    </g>
   </g>
  </g>
 </g>
 <defs>
  <clipPath id="p2d8038f594">
   <rect height="177.98" width="170.576875" x="80.388125" y="48.56"/>
  </clipPath>
 </defs>
</svg>
