<?xml version="1.0" encoding="utf-8" standalone="no"?>
<!DOCTYPE svg PUBLIC "-//W3C//DTD SVG 1.1//EN"
  "http://www.w3.org/Graphics/SVG/1.1/DTD/svg11.dtd">
<!-- Created with matplotlib (http://matplotlib.org/) -->
<svg height="396pt" version="1.1" viewBox="0 0 576 396" width="576pt" xmlns="http://www.w3.org/2000/svg" xmlns:xlink="http://www.w3.org/1999/xlink">
 <defs>
  <style type="text/css">
*{stroke-linecap:butt;stroke-linejoin:round;}
  </style>
 </defs>
 <g id="figure_1">
  <g id="patch_1">
   <path d="
M0 396
L576 396
L576 0
L0 0
z
" style="fill:#ffffff;"/>
  </g>
  <g id="axes_1">
   <g id="patch_2">
    <path d="
M72 356.4
L518.4 356.4
L518.4 39.6
L72 39.6
z
" style="fill:#ffffff;"/>
   </g>
   <g id="matplotlib.axis_1">
    <g id="xtick_1">
     <g id="line2d_1">
      <defs>
       <path d="
M0 0
L0 6" id="m44d4eda7dc" style="stroke:#262626;"/>
      </defs>
      <g>
       <use style="fill:#262626;stroke:#262626;" x="72.0" xlink:href="#m44d4eda7dc" y="366.4"/>
      </g>
     </g>
     <g id="text_1">
      <!-- −0.1 -->
      <defs>
       <path d="
M3.65625 6.79688
Q3.65625 8.34375 4.21875 9.75
Q4.79688 11.1562 5.8125 12.1562
Q6.84375 13.1562 8.25 13.75
Q9.65625 14.3438 11.25 14.3438
Q12.7969 14.3438 14.1875 13.75
Q15.5938 13.1562 16.5938 12.1562
Q17.5938 11.1562 18.1875 9.75
Q18.7969 8.34375 18.7969 6.79688
Q18.7969 5.20312 18.1875 3.82812
Q17.5938 2.45312 16.5938 1.45312
Q15.5938 0.453125 14.1875 -0.125
Q12.7969 -0.703125 11.25 -0.703125
Q9.65625 -0.703125 8.25 -0.125
Q6.84375 0.453125 5.8125 1.45312
Q4.79688 2.45312 4.21875 3.82812
Q3.65625 5.20312 3.65625 6.79688" id="Lato-Bold-2e"/>
       <path d="
M55.5 36.1562
Q55.5 26.7031 53.4688 19.7188
Q51.4531 12.75 47.875 8.20312
Q44.2969 3.65625 39.4219 1.42188
Q34.5469 -0.796875 28.9062 -0.796875
Q23.25 -0.796875 18.4219 1.42188
Q13.5938 3.65625 10.0469 8.20312
Q6.5 12.75 4.5 19.7188
Q2.5 26.7031 2.5 36.1562
Q2.5 45.6562 4.5 52.5938
Q6.5 59.5469 10.0469 64.0938
Q13.5938 68.6562 18.4219 70.875
Q23.25 73.0938 28.9062 73.0938
Q34.5469 73.0938 39.4219 70.875
Q44.2969 68.6562 47.875 64.0938
Q51.4531 59.5469 53.4688 52.5938
Q55.5 45.6562 55.5 36.1562
M42.75 36.1562
Q42.75 44 41.5938 49.1406
Q40.4531 54.2969 38.5156 57.3438
Q36.5938 60.4062 34.0938 61.625
Q31.5938 62.8438 28.9062 62.8438
Q26.25 62.8438 23.7656 61.625
Q21.2969 60.4062 19.3906 57.3438
Q17.5 54.2969 16.375 49.1406
Q15.25 44 15.25 36.1562
Q15.25 28.2969 16.375 23.1406
Q17.5 18 19.3906 14.9531
Q21.2969 11.9062 23.7656 10.6719
Q26.25 9.45312 28.9062 9.45312
Q31.5938 9.45312 34.0938 10.6719
Q36.5938 11.9062 38.5156 14.9531
Q40.4531 18 41.5938 23.1406
Q42.75 28.2969 42.75 36.1562" id="Lato-Bold-30"/>
       <path d="
M13.4531 9.25
L28.0938 9.25
L28.0938 51.4062
Q28.0938 53.8438 28.25 56.5469
L17.8438 47.8438
Q17.2031 47.2969 16.5156 47.0938
Q15.8438 46.9062 15.2031 46.9062
Q14.2031 46.9062 13.375 47.3281
Q12.5469 47.75 12.1562 48.2969
L8.25 53.6562
L30.2969 72.4062
L40.4531 72.4062
L40.4531 9.25
L53.4531 9.25
L53.4531 0
L13.4531 0
z
" id="Lato-Bold-31"/>
       <path d="
M6.79688 38.1562
L51.0938 38.1562
L51.0938 29
L6.79688 29
z
" id="Lato-Bold-2212"/>
      </defs>
      <g style="fill:#262626;" transform="translate(62.7421875 386.8296875)scale(0.1 -0.1)">
       <use xlink:href="#Lato-Bold-2212"/>
       <use x="58.0" xlink:href="#Lato-Bold-30"/>
       <use x="116.0" xlink:href="#Lato-Bold-2e"/>
       <use x="138.5" xlink:href="#Lato-Bold-31"/>
      </g>
     </g>
    </g>
    <g id="xtick_2">
     <g id="line2d_2">
      <g>
       <use style="fill:#262626;stroke:#262626;" x="121.6" xlink:href="#m44d4eda7dc" y="366.4"/>
      </g>
     </g>
     <g id="text_2">
      <!-- 0.0 -->
      <g style="fill:#262626;" transform="translate(114.925 386.8296875)scale(0.1 -0.1)">
       <use xlink:href="#Lato-Bold-30"/>
       <use x="58.0" xlink:href="#Lato-Bold-2e"/>
       <use x="80.5" xlink:href="#Lato-Bold-30"/>
      </g>
     </g>
    </g>
    <g id="xtick_3">
     <g id="line2d_3">
      <g>
       <use style="fill:#262626;stroke:#262626;" x="171.2" xlink:href="#m44d4eda7dc" y="366.4"/>
      </g>
     </g>
     <g id="text_3">
      <!-- 0.1 -->
      <g style="fill:#262626;" transform="translate(164.62734375 386.8296875)scale(0.1 -0.1)">
       <use xlink:href="#Lato-Bold-30"/>
       <use x="58.0" xlink:href="#Lato-Bold-2e"/>
       <use x="80.5" xlink:href="#Lato-Bold-31"/>
      </g>
     </g>
    </g>
    <g id="xtick_4">
     <g id="line2d_4">
      <g>
       <use style="fill:#262626;stroke:#262626;" x="220.8" xlink:href="#m44d4eda7dc" y="366.4"/>
      </g>
     </g>
     <g id="text_4">
      <!-- 0.2 -->
      <defs>
       <path d="
M30.0938 73.0938
Q35.0938 73.0938 39.25 71.625
Q43.4062 70.1562 46.3438 67.4531
Q49.2969 64.75 50.9375 60.9531
Q52.5938 57.1562 52.5938 52.5
Q52.5938 48.5 51.4219 45.0938
Q50.25 41.7031 48.2656 38.5938
Q46.2969 35.5 43.6406 32.5938
Q41 29.7031 38.0938 26.7031
L21.7969 10.0469
Q24.2031 10.75 26.5 11.125
Q28.7969 11.5 30.9062 11.5
L49.4531 11.5
Q51.4531 11.5 52.625 10.375
Q53.7969 9.25 53.7969 7.40625
L53.7969 0
L4.20312 0
L4.20312 4.09375
Q4.20312 5.34375 4.71875 6.6875
Q5.25 8.04688 6.40625 9.20312
L28.3438 31.2031
Q31.0938 34 33.2656 36.5469
Q35.4531 39.0938 36.9219 41.5938
Q38.4062 44.0938 39.1719 46.6719
Q39.9531 49.25 39.9531 52.0938
Q39.9531 54.7031 39.2031 56.6719
Q38.4531 58.6562 37.0469 60
Q35.6562 61.3438 33.7188 62.0156
Q31.7969 62.7031 29.4062 62.7031
Q24.9531 62.7031 22.0781 60.4531
Q19.2031 58.2031 18.0469 54.4062
Q17.5 52.5 16.3906 51.6719
Q15.2969 50.8438 13.5938 50.8438
Q12.8438 50.8438 11.9531 51
L5.45312 52.1562
Q6.20312 57.3438 8.34375 61.2656
Q10.5 65.2031 13.7188 67.8281
Q16.9531 70.4531 21.125 71.7656
Q25.2969 73.0938 30.0938 73.0938" id="Lato-Bold-32"/>
      </defs>
      <g style="fill:#262626;" transform="translate(214.21015625 386.8296875)scale(0.1 -0.1)">
       <use xlink:href="#Lato-Bold-30"/>
       <use x="58.0" xlink:href="#Lato-Bold-2e"/>
       <use x="80.5" xlink:href="#Lato-Bold-32"/>
      </g>
     </g>
    </g>
    <g id="xtick_5">
     <g id="line2d_5">
      <g>
       <use style="fill:#262626;stroke:#262626;" x="270.4" xlink:href="#m44d4eda7dc" y="366.4"/>
      </g>
     </g>
     <g id="text_5">
      <!-- 0.3 -->
      <defs>
       <path d="
M31.25 73.0938
Q36.25 73.0938 40.2656 71.6719
Q44.2969 70.25 47.1406 67.7188
Q50 65.2031 51.5156 61.7969
Q53.0469 58.4062 53.0469 54.4531
Q53.0469 51 52.2656 48.375
Q51.5 45.75 50.0156 43.7969
Q48.5469 41.8438 46.4219 40.5
Q44.2969 39.1562 41.5938 38.25
Q48.0938 36.2031 51.2969 32
Q54.5 27.7969 54.5 21.4531
Q54.5 16.0469 52.5 11.8906
Q50.5 7.75 47.0938 4.92188
Q43.7031 2.09375 39.2188 0.640625
Q34.75 -0.796875 29.75 -0.796875
Q24.2969 -0.796875 20.25 0.453125
Q16.2031 1.70312 13.2031 4.14062
Q10.2031 6.59375 8.09375 10.1406
Q6 13.7031 4.5 18.3438
L9.95312 20.5938
Q11.3438 21.2031 12.7969 21.2031
Q14.0938 21.2031 15.125 20.6406
Q16.1562 20.0938 16.7031 19.0469
Q17.5938 17.2969 18.6719 15.5938
Q19.75 13.9062 21.25 12.5781
Q22.75 11.25 24.7656 10.4219
Q26.7969 9.59375 29.5938 9.59375
Q32.75 9.59375 35.0938 10.625
Q37.4531 11.6562 39.0156 13.2969
Q40.5938 14.9531 41.375 16.9688
Q42.1562 19 42.1562 21.0469
Q42.1562 23.6562 41.5938 25.7812
Q41.0469 27.9062 39.2969 29.4062
Q37.5469 30.9062 34.2656 31.75
Q31 32.5938 25.5 32.5938
L25.5 41.4062
Q30.0469 41.4531 33.0469 42.25
Q36.0469 43.0469 37.8125 44.4688
Q39.5938 45.9062 40.2969 47.9062
Q41 49.9062 41 52.2969
Q41 57.4531 38.2031 60.0781
Q35.4062 62.7031 30.5469 62.7031
Q26.1562 62.7031 23.25 60.375
Q20.3438 58.0469 19.2031 54.4062
Q18.5938 52.5 17.5469 51.6719
Q16.5 50.8438 14.7969 50.8438
Q14 50.8438 13.0938 51
L6.59375 52.1562
Q7.34375 57.3438 9.5 61.2656
Q11.6562 65.2031 14.875 67.8281
Q18.0938 70.4531 22.2656 71.7656
Q26.4531 73.0938 31.25 73.0938" id="Lato-Bold-33"/>
      </defs>
      <g style="fill:#262626;" transform="translate(263.775 386.8296875)scale(0.1 -0.1)">
       <use xlink:href="#Lato-Bold-30"/>
       <use x="58.0" xlink:href="#Lato-Bold-2e"/>
       <use x="80.5" xlink:href="#Lato-Bold-33"/>
      </g>
     </g>
    </g>
    <g id="xtick_6">
     <g id="line2d_6">
      <g>
       <use style="fill:#262626;stroke:#262626;" x="320.0" xlink:href="#m44d4eda7dc" y="366.4"/>
      </g>
     </g>
     <g id="text_6">
      <!-- 0.4 -->
      <defs>
       <path d="
M47.0938 27.25
L56.2031 27.25
L56.2031 20.0938
Q56.2031 19.0938 55.5469 18.375
Q54.9062 17.6562 53.6562 17.6562
L47.0938 17.6562
L47.0938 0
L36.2969 0
L36.2969 17.6562
L5.79688 17.6562
Q4.54688 17.6562 3.59375 18.4219
Q2.65625 19.2031 2.40625 20.3438
L1.15625 26.5938
L35.4062 72.3438
L47.0938 72.3438
z

M36.2969 50.9062
Q36.2969 52.5 36.3906 54.3438
Q36.5 56.2031 36.75 58.2031
L14.2969 27.25
L36.2969 27.25
z
" id="Lato-Bold-34"/>
      </defs>
      <g style="fill:#262626;" transform="translate(313.28984375 386.8296875)scale(0.1 -0.1)">
       <use xlink:href="#Lato-Bold-30"/>
       <use x="58.0" xlink:href="#Lato-Bold-2e"/>
       <use x="80.5" xlink:href="#Lato-Bold-34"/>
      </g>
     </g>
    </g>
    <g id="xtick_7">
     <g id="line2d_7">
      <g>
       <use style="fill:#262626;stroke:#262626;" x="369.6" xlink:href="#m44d4eda7dc" y="366.4"/>
      </g>
     </g>
     <g id="text_7">
      <!-- 0.5 -->
      <defs>
       <path d="
M49.4531 67.0469
Q49.4531 64.4062 47.7656 62.75
Q46.0938 61.0938 42.2031 61.0938
L22.2969 61.0938
L19.7031 46
Q24.5938 47 28.6562 47
Q34.3438 47 38.6719 45.2969
Q43 43.5938 45.9531 40.5938
Q48.9062 37.5938 50.4062 33.5625
Q51.9062 29.5469 51.9062 24.9062
Q51.9062 19.1562 49.875 14.4062
Q47.8438 9.65625 44.25 6.28125
Q40.6562 2.90625 35.7188 1.04688
Q30.7969 -0.796875 25 -0.796875
Q21.5938 -0.796875 18.5469 -0.09375
Q15.5 0.59375 12.8281 1.76562
Q10.1562 2.95312 7.875 4.46875
Q5.59375 6 3.79688 7.70312
L7.59375 12.9531
Q8.79688 14.6562 10.7969 14.6562
Q12.0469 14.6562 13.3125 13.8438
Q14.5938 13.0469 16.2969 12.0938
Q18 11.1562 20.25 10.3438
Q22.5 9.54688 25.7031 9.54688
Q29.0938 9.54688 31.6875 10.6406
Q34.2969 11.75 36.0156 13.7188
Q37.75 15.7031 38.625 18.4219
Q39.5 21.1562 39.5 24.3438
Q39.5 30.25 36.0781 33.5781
Q32.6562 36.9062 26 36.9062
Q20.75 36.9062 15.4531 35
L7.75 37.2031
L13.75 72.2969
L49.4531 72.2969
z
" id="Lato-Bold-35"/>
      </defs>
      <g style="fill:#262626;" transform="translate(363.1046875 386.8296875)scale(0.1 -0.1)">
       <use xlink:href="#Lato-Bold-30"/>
       <use x="58.0" xlink:href="#Lato-Bold-2e"/>
       <use x="80.5" xlink:href="#Lato-Bold-35"/>
      </g>
     </g>
    </g>
    <g id="xtick_8">
     <g id="line2d_8">
      <g>
       <use style="fill:#262626;stroke:#262626;" x="419.2" xlink:href="#m44d4eda7dc" y="366.4"/>
      </g>
     </g>
     <g id="text_8">
      <!-- 0.6 -->
      <defs>
       <path d="
M33.5 45.1562
Q37.5938 45.1562 41.4688 43.7969
Q45.3438 42.4531 48.2969 39.7188
Q51.25 37 53.0469 32.9531
Q54.8438 28.9062 54.8438 23.5
Q54.8438 18.4531 53 14.0156
Q51.1562 9.59375 47.7969 6.29688
Q44.4531 3 39.7188 1.09375
Q35 -0.796875 29.2969 -0.796875
Q23.5 -0.796875 18.8906 1.04688
Q14.2969 2.90625 11.0469 6.21875
Q7.79688 9.54688 6.0625 14.2188
Q4.34375 18.9062 4.34375 24.5938
Q4.34375 29.7031 6.42188 35.0781
Q8.5 40.4531 12.8438 46.25
L30.0938 69.4062
Q31 70.5938 32.7188 71.4375
Q34.4531 72.2969 36.7031 72.2969
L47.7031 72.2969
L26.25 46.0469
Q25.5469 45.2031 24.9219 44.4531
Q24.2969 43.7031 23.7031 42.9062
Q25.7969 43.9531 28.2188 44.5469
Q30.6562 45.1562 33.5 45.1562
M16.2031 22.7031
Q16.2031 19.7031 17.0156 17.2188
Q17.8438 14.75 19.4688 13
Q21.0938 11.25 23.5 10.2656
Q25.9062 9.29688 29.0469 9.29688
Q32 9.29688 34.4688 10.2969
Q36.9531 11.2969 38.7188 13.0938
Q40.5 14.9062 41.5 17.3281
Q42.5 19.75 42.5 22.5938
Q42.5 25.7031 41.5469 28.1719
Q40.5938 30.6562 38.8438 32.375
Q37.0938 34.0938 34.6406 35
Q32.2031 35.9062 29.25 35.9062
Q26.2969 35.9062 23.8906 34.9062
Q21.5 33.9062 19.7656 32.125
Q18.0469 30.3438 17.125 27.9219
Q16.2031 25.5 16.2031 22.7031" id="Lato-Bold-36"/>
      </defs>
      <g style="fill:#262626;" transform="translate(412.5578125 386.8296875)scale(0.1 -0.1)">
       <use xlink:href="#Lato-Bold-30"/>
       <use x="58.0" xlink:href="#Lato-Bold-2e"/>
       <use x="80.5" xlink:href="#Lato-Bold-36"/>
      </g>
     </g>
    </g>
    <g id="xtick_9">
     <g id="line2d_9">
      <g>
       <use style="fill:#262626;stroke:#262626;" x="468.8" xlink:href="#m44d4eda7dc" y="366.4"/>
      </g>
     </g>
     <g id="text_9">
      <!-- 0.7 -->
      <defs>
       <path d="
M54.7969 72.2969
L54.7969 66.9531
Q54.7969 64.5469 54.2656 63.0625
Q53.75 61.5938 53.25 60.5938
L25.9062 4.20312
Q25.0469 2.45312 23.5 1.21875
Q21.9531 0 19.2969 0
L10.3438 0
L38.3438 55.25
Q40.0938 58.6562 42.25 61.0938
L7.65625 61.0938
Q6.5 61.0938 5.64062 61.9375
Q4.79688 62.7969 4.79688 63.9531
L4.79688 72.2969
z
" id="Lato-Bold-37"/>
      </defs>
      <g style="fill:#262626;" transform="translate(462.16015625 386.8296875)scale(0.1 -0.1)">
       <use xlink:href="#Lato-Bold-30"/>
       <use x="58.0" xlink:href="#Lato-Bold-2e"/>
       <use x="80.5" xlink:href="#Lato-Bold-37"/>
      </g>
     </g>
    </g>
    <g id="xtick_10">
     <g id="line2d_10">
      <g>
       <use style="fill:#262626;stroke:#262626;" x="518.4" xlink:href="#m44d4eda7dc" y="366.4"/>
      </g>
     </g>
     <g id="text_10">
      <!-- 0.8 -->
      <defs>
       <path d="
M29 -0.796875
Q23.4062 -0.796875 18.7812 0.703125
Q14.1562 2.20312 10.8438 4.95312
Q7.54688 7.70312 5.71875 11.5938
Q3.90625 15.5 3.90625 20.2969
Q3.90625 26.7031 7.04688 31.125
Q10.2031 35.5469 16.8438 37.7031
Q11.5469 39.9062 8.92188 43.9531
Q6.29688 48 6.29688 53.7031
Q6.29688 57.7969 7.96875 61.3438
Q9.65625 64.9062 12.6562 67.5312
Q15.6562 70.1562 19.8281 71.625
Q24 73.0938 29 73.0938
Q34 73.0938 38.1719 71.625
Q42.3438 70.1562 45.3438 67.5312
Q48.3438 64.9062 50.0156 61.3438
Q51.7031 57.7969 51.7031 53.7031
Q51.7031 48 49.0469 43.9531
Q46.4062 39.9062 41.1562 37.7031
Q47.7969 35.5469 50.9375 31.125
Q54.0938 26.7031 54.0938 20.2969
Q54.0938 15.5 52.2656 11.5938
Q50.4531 7.70312 47.1406 4.95312
Q43.8438 2.20312 39.2188 0.703125
Q34.5938 -0.796875 29 -0.796875
M29 8.84375
Q32.0469 8.84375 34.3438 9.71875
Q36.6562 10.5938 38.2188 12.1406
Q39.7969 13.7031 40.5938 15.8438
Q41.4062 18 41.4062 20.5
Q41.4062 26.4531 38.0938 29.5
Q34.7969 32.5469 29 32.5469
Q23.2031 32.5469 19.8906 29.5
Q16.5938 26.4531 16.5938 20.5
Q16.5938 18 17.3906 15.8438
Q18.2031 13.7031 19.7656 12.1406
Q21.3438 10.5938 23.6406 9.71875
Q25.9531 8.84375 29 8.84375
M29 42.25
Q32 42.25 34.0469 43.2031
Q36.0938 44.1562 37.3438 45.7188
Q38.5938 47.2969 39.125 49.3125
Q39.6562 51.3438 39.6562 53.5
Q39.6562 55.5469 39 57.3906
Q38.3438 59.25 37.0469 60.6719
Q35.75 62.0938 33.75 62.9375
Q31.75 63.7969 29 63.7969
Q26.25 63.7969 24.25 62.9375
Q22.25 62.0938 20.9219 60.6719
Q19.5938 59.25 18.9688 57.3906
Q18.3438 55.5469 18.3438 53.5
Q18.3438 51.3438 18.875 49.3125
Q19.4062 47.2969 20.6562 45.7188
Q21.9062 44.1562 23.9531 43.2031
Q26 42.25 29 42.25" id="Lato-Bold-38"/>
      </defs>
      <g style="fill:#262626;" transform="translate(511.7953125 386.8296875)scale(0.1 -0.1)">
       <use xlink:href="#Lato-Bold-30"/>
       <use x="58.0" xlink:href="#Lato-Bold-2e"/>
       <use x="80.5" xlink:href="#Lato-Bold-38"/>
      </g>
     </g>
    </g>
    <g id="text_11">
     <!-- kappa -->
     <defs>
      <path d="
M46.7969 0
L41.25 0
Q39.5 0 38.5 0.515625
Q37.5 1.04688 37 2.65625
L35.9062 6.29688
Q33.9531 4.54688 32.0781 3.21875
Q30.2031 1.90625 28.2031 1
Q26.2031 0.09375 23.9531 -0.34375
Q21.7031 -0.796875 18.9531 -0.796875
Q15.7031 -0.796875 12.9531 0.078125
Q10.2031 0.953125 8.21875 2.70312
Q6.25 4.45312 5.14062 7.04688
Q4.04688 9.65625 4.04688 13.0938
Q4.04688 16 5.5625 18.8281
Q7.09375 21.6562 10.6406 23.9219
Q14.2031 26.2031 20.0938 27.7031
Q26 29.2031 34.75 29.4062
L34.75 32.4062
Q34.75 37.5469 32.5781 40.0156
Q30.4062 42.5 26.25 42.5
Q23.25 42.5 21.25 41.7969
Q19.25 41.0938 17.7656 40.2188
Q16.2969 39.3438 15.0469 38.6406
Q13.7969 37.9531 12.2969 37.9531
Q11.0469 37.9531 10.1406 38.5938
Q9.25 39.25 8.70312 40.2031
L6.45312 44.1562
Q15.2969 52.25 27.7969 52.25
Q32.2969 52.25 35.8125 50.7656
Q39.3438 49.2969 41.7969 46.6719
Q44.25 44.0469 45.5156 40.3906
Q46.7969 36.75 46.7969 32.4062
z

M22.7969 7.70312
Q24.7031 7.70312 26.2969 8.04688
Q27.9062 8.40625 29.3281 9.09375
Q30.75 9.79688 32.0781 10.8125
Q33.4062 11.8438 34.75 13.25
L34.75 21.9062
Q29.3438 21.6562 25.7188 20.9688
Q22.0938 20.2969 19.8906 19.25
Q17.7031 18.2031 16.7656 16.7969
Q15.8438 15.4062 15.8438 13.75
Q15.8438 10.5 17.7656 9.09375
Q19.7031 7.70312 22.7969 7.70312" id="Lato-Bold-61"/>
      <path d="
M19.0938 74.2969
L19.0938 31.75
L21.4062 31.75
Q22.6562 31.75 23.3438 32.0938
Q24.0469 32.4531 24.8438 33.4062
L37.5938 49.1562
Q38.4531 50.1562 39.3906 50.7188
Q40.3438 51.2969 41.9062 51.2969
L53.2031 51.2969
L37.25 32.25
Q36.4062 31.2031 35.5 30.3281
Q34.5938 29.4531 33.5469 28.7969
Q34.5938 28.0469 35.3906 27.0469
Q36.2031 26.0469 37 24.9062
L54.0938 0
L42.9531 0
Q41.5 0 40.5 0.5
Q39.5 1 38.7031 2.20312
L25.6562 21.6562
Q24.9062 22.7969 24.1562 23.1406
Q23.4062 23.5 21.9062 23.5
L19.0938 23.5
L19.0938 0
L6.75 0
L6.75 74.2969
z
" id="Lato-Bold-6b"/>
      <path d="
M6.59375 -16.75
L6.59375 51.2969
L14.1562 51.2969
Q15.3438 51.2969 16.1875 50.75
Q17.0469 50.2031 17.2969 49.0469
L18.2969 44.2969
Q21.4062 47.8438 25.4219 50.0469
Q29.4531 52.25 34.8438 52.25
Q39.0469 52.25 42.5156 50.5
Q46 48.75 48.5156 45.4219
Q51.0469 42.0938 52.4219 37.2188
Q53.7969 32.3438 53.7969 26.0469
Q53.7969 20.2969 52.25 15.3906
Q50.7031 10.5 47.8281 6.89062
Q44.9531 3.29688 40.875 1.26562
Q36.7969 -0.75 31.75 -0.75
Q27.4062 -0.75 24.375 0.578125
Q21.3438 1.90625 18.9531 4.25
L18.9531 -16.75
z

M30.5938 42.5
Q26.75 42.5 24.0156 40.875
Q21.2969 39.25 18.9531 36.2969
L18.9531 13.2969
Q21.0469 10.7031 23.5156 9.67188
Q26 8.65625 28.8438 8.65625
Q31.6562 8.65625 33.9219 9.70312
Q36.2031 10.75 37.7656 12.8906
Q39.3438 15.0469 40.1875 18.3125
Q41.0469 21.5938 41.0469 26.0469
Q41.0469 30.5469 40.3125 33.6719
Q39.5938 36.7969 38.25 38.75
Q36.9062 40.7031 34.9688 41.5938
Q33.0469 42.5 30.5938 42.5" id="Lato-Bold-70"/>
     </defs>
     <g style="fill:#262626;" transform="translate(280.864765625 401.67734375)scale(0.11 -0.11)">
      <use xlink:href="#Lato-Bold-6b"/>
      <use x="55.1500091553" xlink:href="#Lato-Bold-61"/>
      <use x="107.500015259" xlink:href="#Lato-Bold-70"/>
      <use x="164.050018311" xlink:href="#Lato-Bold-70"/>
      <use x="220.600021362" xlink:href="#Lato-Bold-61"/>
     </g>
    </g>
   </g>
   <g id="matplotlib.axis_2">
    <g id="ytick_1">
     <g id="line2d_11">
      <defs>
       <path d="
M0 0
L-6 0" id="m0dfa6ce036" style="stroke:#262626;"/>
      </defs>
      <g>
       <use style="fill:#262626;stroke:#262626;" x="62.0" xlink:href="#m0dfa6ce036" y="356.4"/>
      </g>
     </g>
     <g id="text_12">
      <!-- 0.5 -->
      <g style="fill:#262626;" transform="translate(36.009375 359.27734375)scale(0.1 -0.1)">
       <use xlink:href="#Lato-Bold-30"/>
       <use x="58.0" xlink:href="#Lato-Bold-2e"/>
       <use x="80.5" xlink:href="#Lato-Bold-35"/>
      </g>
     </g>
    </g>
    <g id="ytick_2">
     <g id="line2d_12">
      <g>
       <use style="fill:#262626;stroke:#262626;" x="62.0" xlink:href="#m0dfa6ce036" y="303.6"/>
      </g>
     </g>
     <g id="text_13">
      <!-- 1.0 -->
      <g style="fill:#262626;" transform="translate(36.225 306.47734375)scale(0.1 -0.1)">
       <use xlink:href="#Lato-Bold-31"/>
       <use x="58.0" xlink:href="#Lato-Bold-2e"/>
       <use x="80.5" xlink:href="#Lato-Bold-30"/>
      </g>
     </g>
    </g>
    <g id="ytick_3">
     <g id="line2d_13">
      <g>
       <use style="fill:#262626;stroke:#262626;" x="62.0" xlink:href="#m0dfa6ce036" y="250.8"/>
      </g>
     </g>
     <g id="text_14">
      <!-- 1.5 -->
      <g style="fill:#262626;" transform="translate(36.584375 253.67734375)scale(0.1 -0.1)">
       <use xlink:href="#Lato-Bold-31"/>
       <use x="58.0" xlink:href="#Lato-Bold-2e"/>
       <use x="80.5" xlink:href="#Lato-Bold-35"/>
      </g>
     </g>
    </g>
    <g id="ytick_4">
     <g id="line2d_14">
      <g>
       <use style="fill:#262626;stroke:#262626;" x="62.0" xlink:href="#m0dfa6ce036" y="198.0"/>
      </g>
     </g>
     <g id="text_15">
      <!-- 2.0 -->
      <g style="fill:#262626;" transform="translate(35.8203125 200.87734375)scale(0.1 -0.1)">
       <use xlink:href="#Lato-Bold-32"/>
       <use x="58.0" xlink:href="#Lato-Bold-2e"/>
       <use x="80.5" xlink:href="#Lato-Bold-30"/>
      </g>
     </g>
    </g>
    <g id="ytick_5">
     <g id="line2d_15">
      <g>
       <use style="fill:#262626;stroke:#262626;" x="62.0" xlink:href="#m0dfa6ce036" y="145.2"/>
      </g>
     </g>
     <g id="text_16">
      <!-- 2.5 -->
      <g style="fill:#262626;" transform="translate(36.1796875 148.07734375)scale(0.1 -0.1)">
       <use xlink:href="#Lato-Bold-32"/>
       <use x="58.0" xlink:href="#Lato-Bold-2e"/>
       <use x="80.5" xlink:href="#Lato-Bold-35"/>
      </g>
     </g>
    </g>
    <g id="ytick_6">
     <g id="line2d_16">
      <g>
       <use style="fill:#262626;stroke:#262626;" x="62.0" xlink:href="#m0dfa6ce036" y="92.4"/>
      </g>
     </g>
     <g id="text_17">
      <!-- 3.0 -->
      <g style="fill:#262626;" transform="translate(35.85 95.27734375)scale(0.1 -0.1)">
       <use xlink:href="#Lato-Bold-33"/>
       <use x="58.0" xlink:href="#Lato-Bold-2e"/>
       <use x="80.5" xlink:href="#Lato-Bold-30"/>
      </g>
     </g>
    </g>
    <g id="ytick_7">
     <g id="line2d_17">
      <g>
       <use style="fill:#262626;stroke:#262626;" x="62.0" xlink:href="#m0dfa6ce036" y="39.6"/>
      </g>
     </g>
     <g id="text_18">
      <!-- 3.5 -->
      <g style="fill:#262626;" transform="translate(36.209375 42.47734375)scale(0.1 -0.1)">
       <use xlink:href="#Lato-Bold-33"/>
       <use x="58.0" xlink:href="#Lato-Bold-2e"/>
       <use x="80.5" xlink:href="#Lato-Bold-35"/>
      </g>
     </g>
    </g>
    <g id="text_19">
     <!-- distance (jittered) -->
     <defs>
      <path id="Lato-Bold-20"/>
      <path d="
M19.75 51.2969
L19.75 -1.75
Q19.75 -5.09375 18.875 -8.04688
Q18 -11 16.0781 -13.2188
Q14.1562 -15.4531 11.0312 -16.7188
Q7.90625 -18 3.40625 -18
Q1.65625 -18 0.15625 -17.7656
Q-1.34375 -17.5469 -2.90625 -17.0469
L-2.5 -10.4062
Q-2.34375 -9.40625 -1.6875 -9.125
Q-1.04688 -8.84375 0.796875 -8.84375
Q2.65625 -8.84375 3.92188 -8.46875
Q5.20312 -8.09375 5.96875 -7.26562
Q6.75 -6.45312 7.07812 -5.09375
Q7.40625 -3.75 7.40625 -1.75
L7.40625 51.2969
z

M21.5938 66.25
Q21.5938 64.6562 20.9375 63.25
Q20.2969 61.8438 19.2188 60.7969
Q18.1562 59.75 16.7031 59.125
Q15.25 58.5 13.5938 58.5
Q12 58.5 10.5781 59.125
Q9.15625 59.75 8.09375 60.7969
Q7.04688 61.8438 6.42188 63.25
Q5.79688 64.6562 5.79688 66.25
Q5.79688 67.9062 6.42188 69.3438
Q7.04688 70.7969 8.09375 71.8438
Q9.15625 72.9062 10.5781 73.5312
Q12 74.1562 13.5938 74.1562
Q15.25 74.1562 16.7031 73.5312
Q18.1562 72.9062 19.2188 71.8438
Q20.2969 70.7969 20.9375 69.3438
Q21.5938 67.9062 21.5938 66.25" id="Lato-Bold-6a"/>
      <path d="
M6.59375 0
L6.59375 51.2969
L13.8438 51.2969
Q15.75 51.2969 16.5 50.5938
Q17.25 49.9062 17.5 48.2031
L18.25 42
Q21 46.75 24.7031 49.5
Q28.4062 52.25 33 52.25
Q36.7969 52.25 39.2969 50.5
L37.7031 41.25
Q37.5469 40.3438 37.0469 39.9688
Q36.5469 39.5938 35.7031 39.5938
Q34.9531 39.5938 33.6406 39.9375
Q32.3438 40.2969 30.2031 40.2969
Q26.3438 40.2969 23.5938 38.1719
Q20.8438 36.0469 18.9531 31.9531
L18.9531 0
z
" id="Lato-Bold-72"/>
      <path d="
M6.59375 0
L6.59375 51.2969
L14.1562 51.2969
Q16.5469 51.2969 17.2969 49.0469
L18.1562 45
Q19.7031 46.5938 21.4219 47.8906
Q23.1562 49.2031 25.0781 50.1406
Q27 51.0938 29.2031 51.5938
Q31.4062 52.0938 34 52.0938
Q38.2031 52.0938 41.4531 50.6719
Q44.7031 49.25 46.875 46.6719
Q49.0469 44.0938 50.1719 40.5156
Q51.2969 36.9531 51.2969 32.6562
L51.2969 0
L38.9531 0
L38.9531 32.6562
Q38.9531 37.3438 36.7656 39.9219
Q34.5938 42.5 30.25 42.5
Q27.0469 42.5 24.25 41.0469
Q21.4531 39.5938 18.9531 37.0938
L18.9531 0
z
" id="Lato-Bold-6e"/>
      <path d="
M16 31.3438
Q16 21.0469 18.5 11.0938
Q21 1.15625 25.6562 -7.59375
Q26 -8.25 26.125 -8.79688
Q26.25 -9.34375 26.25 -9.79688
Q26.25 -10.7969 25.75 -11.4219
Q25.25 -12.0469 24.5469 -12.4531
L19.0469 -15.7969
Q15.3438 -10.0938 12.75 -4.34375
Q10.1562 1.40625 8.5 7.25
Q6.84375 13.0938 6.0625 19.0938
Q5.29688 25.0938 5.29688 31.3438
Q5.29688 37.5938 6.0625 43.625
Q6.84375 49.6562 8.5 55.5
Q10.1562 61.3438 12.75 67.0625
Q15.3438 72.7969 19.0469 78.5
L24.5469 75.2031
Q25.25 74.7969 25.75 74.1719
Q26.25 73.5469 26.25 72.5938
Q26.25 71.6562 25.5938 70.3438
Q21 61.5938 18.5 51.625
Q16 41.6562 16 31.3438" id="Lato-Bold-28"/>
      <path d="
M37.0469 41.2969
Q36.5469 40.5 36 40.1719
Q35.4531 39.8438 34.5938 39.8438
Q33.7031 39.8438 32.6719 40.3438
Q31.6562 40.8438 30.2969 41.4688
Q28.9531 42.0938 27.2188 42.5938
Q25.5 43.0938 23.1562 43.0938
Q19.5 43.0938 17.3906 41.5469
Q15.2969 40 15.2969 37.5
Q15.2969 35.8438 16.375 34.7188
Q17.4531 33.5938 19.2188 32.75
Q21 31.9062 23.25 31.2188
Q25.5 30.5469 27.8438 29.75
Q30.2031 28.9531 32.4531 27.9219
Q34.7031 26.9062 36.4688 25.3281
Q38.25 23.75 39.3281 21.5469
Q40.4062 19.3438 40.4062 16.25
Q40.4062 12.5469 39.0469 9.42188
Q37.7031 6.29688 35.0938 4.01562
Q32.5 1.75 28.6719 0.46875
Q24.8438 -0.796875 19.9062 -0.796875
Q17.25 -0.796875 14.7188 -0.3125
Q12.2031 0.15625 9.875 1
Q7.54688 1.84375 5.5625 3
Q3.59375 4.15625 2.09375 5.5
L4.95312 10.2031
Q5.5 11.0469 6.25 11.5
Q7 11.9531 8.15625 11.9531
Q9.29688 11.9531 10.3125 11.2969
Q11.3438 10.6562 12.6875 9.90625
Q14.0469 9.15625 15.875 8.5
Q17.7031 7.84375 20.5 7.84375
Q22.7031 7.84375 24.2656 8.375
Q25.8438 8.90625 26.875 9.75
Q27.9062 10.5938 28.375 11.7188
Q28.8438 12.8438 28.8438 14.0469
Q28.8438 15.8438 27.7656 17
Q26.7031 18.1562 24.9219 19
Q23.1562 19.8438 20.875 20.5156
Q18.5938 21.2031 16.2188 22
Q13.8438 22.7969 11.5625 23.875
Q9.29688 24.9531 7.51562 26.5938
Q5.75 28.25 4.67188 30.6406
Q3.59375 33.0469 3.59375 36.4531
Q3.59375 39.5938 4.84375 42.4375
Q6.09375 45.2969 8.51562 47.4219
Q10.9531 49.5469 14.5781 50.8125
Q18.2031 52.0938 22.9531 52.0938
Q28.25 52.0938 32.5938 50.3438
Q36.9531 48.5938 39.8438 45.75
z
" id="Lato-Bold-73"/>
      <path d="
M19.75 51.2969
L19.75 0
L7.40625 0
L7.40625 51.2969
z

M21.5938 66.25
Q21.5938 64.6562 20.9375 63.25
Q20.2969 61.8438 19.2188 60.7969
Q18.1562 59.75 16.7031 59.125
Q15.25 58.5 13.5938 58.5
Q12 58.5 10.5781 59.125
Q9.15625 59.75 8.09375 60.7969
Q7.04688 61.8438 6.42188 63.25
Q5.79688 64.6562 5.79688 66.25
Q5.79688 67.9062 6.42188 69.3438
Q7.04688 70.7969 8.09375 71.8438
Q9.15625 72.9062 10.5781 73.5312
Q12 74.1562 13.5938 74.1562
Q15.25 74.1562 16.7031 73.5312
Q18.1562 72.9062 19.2188 71.8438
Q20.2969 70.7969 20.9375 69.3438
Q21.5938 67.9062 21.5938 66.25" id="Lato-Bold-69"/>
      <path d="
M42.6562 40.4531
Q42.0938 39.75 41.5625 39.3438
Q41.0469 38.9531 40.0469 38.9531
Q39.0938 38.9531 38.1875 39.5156
Q37.2969 40.0938 36.0469 40.8125
Q34.7969 41.5469 33.0625 42.125
Q31.3438 42.7031 28.7969 42.7031
Q25.5469 42.7031 23.0938 41.5156
Q20.6562 40.3438 19.0312 38.1406
Q17.4062 35.9531 16.5938 32.8281
Q15.7969 29.7031 15.7969 25.75
Q15.7969 21.6562 16.6719 18.4531
Q17.5469 15.25 19.1875 13.0781
Q20.8438 10.9062 23.1875 9.78125
Q25.5469 8.65625 28.5 8.65625
Q31.4531 8.65625 33.2656 9.375
Q35.0938 10.0938 36.3438 10.9688
Q37.5938 11.8438 38.5156 12.5625
Q39.4531 13.2969 40.5938 13.2969
Q42.0938 13.2969 42.8438 12.1562
L46.4062 7.65625
Q44.3438 5.25 41.9375 3.625
Q39.5469 2 36.9688 1.01562
Q34.4062 0.046875 31.6562 -0.34375
Q28.9062 -0.75 26.2031 -0.75
Q21.4531 -0.75 17.25 1.01562
Q13.0469 2.79688 9.92188 6.1875
Q6.79688 9.59375 4.96875 14.5156
Q3.15625 19.4531 3.15625 25.75
Q3.15625 31.4062 4.78125 36.2188
Q6.40625 41.0469 9.54688 44.5625
Q12.7031 48.0938 17.3438 50.0938
Q22 52.0938 28.0469 52.0938
Q33.7969 52.0938 38.125 50.25
Q42.4531 48.4062 45.9062 44.9531
z
" id="Lato-Bold-63"/>
      <path d="
M14 31.3438
Q14 41.6562 11.5 51.625
Q9 61.5938 4.40625 70.3438
Q3.75 71.6562 3.75 72.5938
Q3.75 73.5469 4.25 74.1719
Q4.75 74.7969 5.45312 75.2031
L10.9531 78.5
Q14.6562 72.7969 17.25 67.0625
Q19.8438 61.3438 21.5 55.5
Q23.1562 49.6562 23.9219 43.625
Q24.7031 37.5938 24.7031 31.3438
Q24.7031 25.0938 23.9219 19.0938
Q23.1562 13.0938 21.5 7.25
Q19.8438 1.40625 17.25 -4.34375
Q14.6562 -10.0938 10.9531 -15.7969
L5.45312 -12.4531
Q4.75 -12.0469 4.25 -11.4219
Q3.75 -10.7969 3.75 -9.79688
Q3.75 -9.34375 3.875 -8.79688
Q4 -8.25 4.34375 -7.59375
Q9 1.15625 11.5 11.0938
Q14 21.0469 14 31.3438" id="Lato-Bold-29"/>
      <path d="
M23.4531 -0.796875
Q16.7969 -0.796875 13.1875 2.96875
Q9.59375 6.75 9.59375 13.4062
L9.59375 42.0469
L4.40625 42.0469
Q3.40625 42.0469 2.67188 42.6875
Q1.95312 43.3438 1.95312 44.6562
L1.95312 49.5469
L10.2031 50.9062
L12.7969 64.9062
Q13 65.9062 13.7188 66.4531
Q14.4531 67 15.5469 67
L21.9531 67
L21.9531 50.8438
L35.4531 50.8438
L35.4531 42.0469
L21.9531 42.0469
L21.9531 14.25
Q21.9531 11.8438 23.1406 10.5
Q24.3438 9.15625 26.3438 9.15625
Q27.5 9.15625 28.2656 9.42188
Q29.0469 9.70312 29.625 10
Q30.2031 10.2969 30.6406 10.5625
Q31.0938 10.8438 31.5469 10.8438
Q32.0938 10.8438 32.4375 10.5625
Q32.7969 10.2969 33.2031 9.75
L36.9062 3.75
Q34.2031 1.5 30.7031 0.34375
Q27.2031 -0.796875 23.4531 -0.796875" id="Lato-Bold-74"/>
      <path d="
M27.7969 52.0938
Q32.6562 52.0938 36.7188 50.5469
Q40.7969 49 43.75 46.0156
Q46.7031 43.0469 48.3438 38.7188
Q50 34.4062 50 28.8438
Q50 27.4531 49.875 26.5156
Q49.75 25.5938 49.4219 25.0625
Q49.0938 24.5469 48.5469 24.3125
Q48 24.0938 47.1562 24.0938
L15.4531 24.0938
Q16 16.2031 19.7031 12.5
Q23.4062 8.79688 29.5 8.79688
Q32.5 8.79688 34.6719 9.5
Q36.8438 10.2031 38.4688 11.0469
Q40.0938 11.9062 41.3125 12.5938
Q42.5469 13.2969 43.7031 13.2969
Q44.4531 13.2969 45 13
Q45.5469 12.7031 45.9531 12.1562
L49.5469 7.65625
Q47.5 5.25 44.9531 3.625
Q42.4062 2 39.625 1.01562
Q36.8438 0.046875 33.9688 -0.34375
Q31.0938 -0.75 28.4062 -0.75
Q23.0469 -0.75 18.4375 1.01562
Q13.8438 2.79688 10.4375 6.26562
Q7.04688 9.75 5.09375 14.875
Q3.15625 20 3.15625 26.75
Q3.15625 32 4.84375 36.625
Q6.54688 41.25 9.71875 44.6719
Q12.9062 48.0938 17.4688 50.0938
Q22.0469 52.0938 27.7969 52.0938
M28.0469 43.25
Q22.6562 43.25 19.5938 40.2031
Q16.5469 37.1562 15.7031 31.5469
L38.9062 31.5469
Q38.9062 33.9531 38.25 36.0781
Q37.5938 38.2031 36.25 39.7969
Q34.9062 41.4062 32.8438 42.3281
Q30.7969 43.25 28.0469 43.25" id="Lato-Bold-65"/>
      <path d="
M42.7031 0
Q40.2969 0 39.5469 2.25
L38.5469 7.20312
Q36.9531 5.40625 35.2031 3.95312
Q33.4531 2.5 31.4219 1.45312
Q29.4062 0.40625 27.0781 -0.171875
Q24.75 -0.75 22.0469 -0.75
Q17.8438 -0.75 14.3438 1
Q10.8438 2.75 8.3125 6.07812
Q5.79688 9.40625 4.42188 14.2969
Q3.04688 19.2031 3.04688 25.5
Q3.04688 31.2031 4.59375 36.0938
Q6.15625 41 9.04688 44.5938
Q11.9531 48.2031 16 50.2188
Q20.0469 52.25 25.0938 52.25
Q29.4062 52.25 32.4531 50.875
Q35.5 49.5 37.9062 47.2031
L37.9062 74.2969
L50.25 74.2969
L50.25 0
z

M26.25 9.04688
Q30.0938 9.04688 32.7969 10.6406
Q35.5 12.25 37.9062 15.2031
L37.9062 38.2031
Q35.7969 40.75 33.3125 41.7969
Q30.8438 42.8438 28 42.8438
Q25.2031 42.8438 22.9219 41.7969
Q20.6562 40.75 19.0781 38.625
Q17.5 36.5 16.6406 33.2188
Q15.7969 29.9531 15.7969 25.5
Q15.7969 21 16.5156 17.875
Q17.25 14.75 18.5938 12.7656
Q19.9531 10.7969 21.8906 9.92188
Q23.8438 9.04688 26.25 9.04688" id="Lato-Bold-64"/>
     </defs>
     <g style="fill:#262626;" transform="translate(28.8403125 241.285)rotate(-90.0)scale(0.11 -0.11)">
      <use xlink:href="#Lato-Bold-64"/>
      <use x="57.0" xlink:href="#Lato-Bold-69"/>
      <use x="84.1000061035" xlink:href="#Lato-Bold-73"/>
      <use x="127.800003052" xlink:href="#Lato-Bold-74"/>
      <use x="166.5" xlink:href="#Lato-Bold-61"/>
      <use x="218.850006104" xlink:href="#Lato-Bold-6e"/>
      <use x="275.700012207" xlink:href="#Lato-Bold-63"/>
      <use x="323.400024414" xlink:href="#Lato-Bold-65"/>
      <use x="376.850036621" xlink:href="#Lato-Bold-20"/>
      <use x="396.150039673" xlink:href="#Lato-Bold-28"/>
      <use x="426.150039673" xlink:href="#Lato-Bold-6a"/>
      <use x="453.050033569" xlink:href="#Lato-Bold-69"/>
      <use x="480.150039673" xlink:href="#Lato-Bold-74"/>
      <use x="518.850036621" xlink:href="#Lato-Bold-74"/>
      <use x="557.550033569" xlink:href="#Lato-Bold-65"/>
      <use x="611.000045776" xlink:href="#Lato-Bold-72"/>
      <use x="651.85005188" xlink:href="#Lato-Bold-65"/>
      <use x="705.300064087" xlink:href="#Lato-Bold-64"/>
      <use x="762.300064087" xlink:href="#Lato-Bold-29"/>
     </g>
    </g>
   </g>
   <g id="PathCollection_1">
    <defs>
     <path d="
M0 2.23607
C0.593012 2.23607 1.16182 2.00046 1.58114 1.58114
C2.00046 1.16182 2.23607 0.593012 2.23607 0
C2.23607 -0.593012 2.00046 -1.16182 1.58114 -1.58114
C1.16182 -2.00046 0.593012 -2.23607 0 -2.23607
C-0.593012 -2.23607 -1.16182 -2.00046 -1.58114 -1.58114
C-2.00046 -1.16182 -2.23607 -0.593012 -2.23607 0
C-2.23607 0.593012 -2.00046 1.16182 -1.58114 1.58114
C-1.16182 2.00046 -0.593012 2.23607 0 2.23607
z
" id="me919e31a0d" style="stroke:#000000;stroke-opacity:0.4;stroke-width:0.3;"/>
    </defs>
    <g clip-path="url(#p3d386a08f4)">
     <use style="fill:#4c72b0;fill-opacity:0.4;stroke:#000000;stroke-opacity:0.4;stroke-width:0.3;" x="307.6" xlink:href="#me919e31a0d" y="209.250018251"/>
     <use style="fill:#4c72b0;fill-opacity:0.4;stroke:#000000;stroke-opacity:0.4;stroke-width:0.3;" x="121.6" xlink:href="#me919e31a0d" y="295.074099976"/>
     <use style="fill:#4c72b0;fill-opacity:0.4;stroke:#000000;stroke-opacity:0.4;stroke-width:0.3;" x="121.6" xlink:href="#me919e31a0d" y="298.2963633"/>
     <use style="fill:#4c72b0;fill-opacity:0.4;stroke:#000000;stroke-opacity:0.4;stroke-width:0.3;" x="307.6" xlink:href="#me919e31a0d" y="199.141308904"/>
     <use style="fill:#4c72b0;fill-opacity:0.4;stroke:#000000;stroke-opacity:0.4;stroke-width:0.3;" x="121.6" xlink:href="#me919e31a0d" y="288.851311956"/>
     <use style="fill:#4c72b0;fill-opacity:0.4;stroke:#000000;stroke-opacity:0.4;stroke-width:0.3;" x="307.6" xlink:href="#me919e31a0d" y="193.879613086"/>
     <use style="fill:#4c72b0;fill-opacity:0.4;stroke:#000000;stroke-opacity:0.4;stroke-width:0.3;" x="452.266666667" xlink:href="#me919e31a0d" y="85.4221111302"/>
     <use style="fill:#4c72b0;fill-opacity:0.4;stroke:#000000;stroke-opacity:0.4;stroke-width:0.3;" x="307.6" xlink:href="#me919e31a0d" y="201.035357648"/>
     <use style="fill:#4c72b0;fill-opacity:0.4;stroke:#000000;stroke-opacity:0.4;stroke-width:0.3;" x="452.266666667" xlink:href="#me919e31a0d" y="89.6486932957"/>
    </g>
   </g>
   <g id="patch_3">
    <path d="
M72 366.4
L518.4 366.4" style="fill:none;stroke:#262626;stroke-linecap:square;stroke-linejoin:miter;stroke-width:1.25;"/>
   </g>
   <g id="patch_4">
    <path d="
M62 356.4
L62 39.6" style="fill:none;stroke:#262626;stroke-linecap:square;stroke-linejoin:miter;stroke-width:1.25;"/>
   </g>
  </g>
 </g>
 <defs>
  <clipPath id="p3d386a08f4">
   <rect height="316.8" width="446.4" x="72.0" y="39.6"/>
  </clipPath>
 </defs>
</svg>
