<?xml version="1.0" encoding="utf-8" standalone="no"?>
<!DOCTYPE svg PUBLIC "-//W3C//DTD SVG 1.1//EN"
  "http://www.w3.org/Graphics/SVG/1.1/DTD/svg11.dtd">
<!-- Created with matplotlib (http://matplotlib.org/) -->
<svg height="288pt" version="1.1" viewBox="0 0 432 288" width="432pt" xmlns="http://www.w3.org/2000/svg" xmlns:xlink="http://www.w3.org/1999/xlink">
 <defs>
  <style type="text/css">
*{stroke-linecap:butt;stroke-linejoin:round;}
  </style>
 </defs>
 <g id="figure_1">
  <g id="patch_1">
   <path d="
M0 288
L432 288
L432 0
L0 0
z
" style="fill:#ffffff;"/>
  </g>
  <g id="axes_1">
   <g id="patch_2">
    <path d="
M54 252
L388.8 252
L388.8 28.8
L54 28.8
z
" style="fill:#ffffff;"/>
   </g>
   <g id="matplotlib.axis_1">
    <g id="xtick_1">
     <g id="line2d_1">
      <defs>
       <path d="
M0 0
L0 6" id="m44d4eda7dc" style="stroke:#262626;"/>
      </defs>
      <g>
       <use style="fill:#262626;stroke:#262626;" x="54.0" xlink:href="#m44d4eda7dc" y="262.0"/>
      </g>
     </g>
     <g id="text_1">
      <!-- 1 -->
      <defs>
       <path d="
M13.4531 9.25
L28.0938 9.25
L28.0938 51.4062
Q28.0938 53.8438 28.25 56.5469
L17.8438 47.8438
Q17.2031 47.2969 16.5156 47.0938
Q15.8438 46.9062 15.2031 46.9062
Q14.2031 46.9062 13.375 47.3281
Q12.5469 47.75 12.1562 48.2969
L8.25 53.6562
L30.2969 72.4062
L40.4531 72.4062
L40.4531 9.25
L53.4531 9.25
L53.4531 0
L13.4531 0
z
" id="Lato-Bold-31"/>
      </defs>
      <g style="fill:#262626;" transform="translate(50.38375 286.8875)scale(0.16 -0.16)">
       <use xlink:href="#Lato-Bold-31"/>
      </g>
     </g>
    </g>
    <g id="xtick_2">
     <g id="line2d_2">
      <g>
       <use style="fill:#262626;stroke:#262626;" x="137.7" xlink:href="#m44d4eda7dc" y="262.0"/>
      </g>
     </g>
     <g id="text_2">
      <!-- 2 -->
      <defs>
       <path d="
M30.0938 73.0938
Q35.0938 73.0938 39.25 71.625
Q43.4062 70.1562 46.3438 67.4531
Q49.2969 64.75 50.9375 60.9531
Q52.5938 57.1562 52.5938 52.5
Q52.5938 48.5 51.4219 45.0938
Q50.25 41.7031 48.2656 38.5938
Q46.2969 35.5 43.6406 32.5938
Q41 29.7031 38.0938 26.7031
L21.7969 10.0469
Q24.2031 10.75 26.5 11.125
Q28.7969 11.5 30.9062 11.5
L49.4531 11.5
Q51.4531 11.5 52.625 10.375
Q53.7969 9.25 53.7969 7.40625
L53.7969 0
L4.20312 0
L4.20312 4.09375
Q4.20312 5.34375 4.71875 6.6875
Q5.25 8.04688 6.40625 9.20312
L28.3438 31.2031
Q31.0938 34 33.2656 36.5469
Q35.4531 39.0938 36.9219 41.5938
Q38.4062 44.0938 39.1719 46.6719
Q39.9531 49.25 39.9531 52.0938
Q39.9531 54.7031 39.2031 56.6719
Q38.4531 58.6562 37.0469 60
Q35.6562 61.3438 33.7188 62.0156
Q31.7969 62.7031 29.4062 62.7031
Q24.9531 62.7031 22.0781 60.4531
Q19.2031 58.2031 18.0469 54.4062
Q17.5 52.5 16.3906 51.6719
Q15.2969 50.8438 13.5938 50.8438
Q12.8438 50.8438 11.9531 51
L5.45312 52.1562
Q6.20312 57.3438 8.34375 61.2656
Q10.5 65.2031 13.7188 67.8281
Q16.9531 70.4531 21.125 71.7656
Q25.2969 73.0938 30.0938 73.0938" id="Lato-Bold-32"/>
      </defs>
      <g style="fill:#262626;" transform="translate(133.7325 286.8875)scale(0.16 -0.16)">
       <use xlink:href="#Lato-Bold-32"/>
      </g>
     </g>
    </g>
    <g id="xtick_3">
     <g id="line2d_3">
      <g>
       <use style="fill:#262626;stroke:#262626;" x="221.4" xlink:href="#m44d4eda7dc" y="262.0"/>
      </g>
     </g>
     <g id="text_3">
      <!-- 3 -->
      <defs>
       <path d="
M31.25 73.0938
Q36.25 73.0938 40.2656 71.6719
Q44.2969 70.25 47.1406 67.7188
Q50 65.2031 51.5156 61.7969
Q53.0469 58.4062 53.0469 54.4531
Q53.0469 51 52.2656 48.375
Q51.5 45.75 50.0156 43.7969
Q48.5469 41.8438 46.4219 40.5
Q44.2969 39.1562 41.5938 38.25
Q48.0938 36.2031 51.2969 32
Q54.5 27.7969 54.5 21.4531
Q54.5 16.0469 52.5 11.8906
Q50.5 7.75 47.0938 4.92188
Q43.7031 2.09375 39.2188 0.640625
Q34.75 -0.796875 29.75 -0.796875
Q24.2969 -0.796875 20.25 0.453125
Q16.2031 1.70312 13.2031 4.14062
Q10.2031 6.59375 8.09375 10.1406
Q6 13.7031 4.5 18.3438
L9.95312 20.5938
Q11.3438 21.2031 12.7969 21.2031
Q14.0938 21.2031 15.125 20.6406
Q16.1562 20.0938 16.7031 19.0469
Q17.5938 17.2969 18.6719 15.5938
Q19.75 13.9062 21.25 12.5781
Q22.75 11.25 24.7656 10.4219
Q26.7969 9.59375 29.5938 9.59375
Q32.75 9.59375 35.0938 10.625
Q37.4531 11.6562 39.0156 13.2969
Q40.5938 14.9531 41.375 16.9688
Q42.1562 19 42.1562 21.0469
Q42.1562 23.6562 41.5938 25.7812
Q41.0469 27.9062 39.2969 29.4062
Q37.5469 30.9062 34.2656 31.75
Q31 32.5938 25.5 32.5938
L25.5 41.4062
Q30.0469 41.4531 33.0469 42.25
Q36.0469 43.0469 37.8125 44.4688
Q39.5938 45.9062 40.2969 47.9062
Q41 49.9062 41 52.2969
Q41 57.4531 38.2031 60.0781
Q35.4062 62.7031 30.5469 62.7031
Q26.1562 62.7031 23.25 60.375
Q20.3438 58.0469 19.2031 54.4062
Q18.5938 52.5 17.5469 51.6719
Q16.5 50.8438 14.7969 50.8438
Q14 50.8438 13.0938 51
L6.59375 52.1562
Q7.34375 57.3438 9.5 61.2656
Q11.6562 65.2031 14.875 67.8281
Q18.0938 70.4531 22.2656 71.7656
Q26.4531 73.0938 31.25 73.0938" id="Lato-Bold-33"/>
      </defs>
      <g style="fill:#262626;" transform="translate(217.4 286.8875)scale(0.16 -0.16)">
       <use xlink:href="#Lato-Bold-33"/>
      </g>
     </g>
    </g>
    <g id="xtick_4">
     <g id="line2d_4">
      <g>
       <use style="fill:#262626;stroke:#262626;" x="305.1" xlink:href="#m44d4eda7dc" y="262.0"/>
      </g>
     </g>
     <g id="text_4">
      <!-- 4 -->
      <defs>
       <path d="
M47.0938 27.25
L56.2031 27.25
L56.2031 20.0938
Q56.2031 19.0938 55.5469 18.375
Q54.9062 17.6562 53.6562 17.6562
L47.0938 17.6562
L47.0938 0
L36.2969 0
L36.2969 17.6562
L5.79688 17.6562
Q4.54688 17.6562 3.59375 18.4219
Q2.65625 19.2031 2.40625 20.3438
L1.15625 26.5938
L35.4062 72.3438
L47.0938 72.3438
z

M36.2969 50.9062
Q36.2969 52.5 36.3906 54.3438
Q36.5 56.2031 36.75 58.2031
L14.2969 27.25
L36.2969 27.25
z
" id="Lato-Bold-34"/>
      </defs>
      <g style="fill:#262626;" transform="translate(300.69625 286.8875)scale(0.16 -0.16)">
       <use xlink:href="#Lato-Bold-34"/>
      </g>
     </g>
    </g>
    <g id="xtick_5">
     <g id="line2d_5">
      <g>
       <use style="fill:#262626;stroke:#262626;" x="388.8" xlink:href="#m44d4eda7dc" y="262.0"/>
      </g>
     </g>
     <g id="text_5">
      <!-- 5 -->
      <defs>
       <path d="
M49.4531 67.0469
Q49.4531 64.4062 47.7656 62.75
Q46.0938 61.0938 42.2031 61.0938
L22.2969 61.0938
L19.7031 46
Q24.5938 47 28.6562 47
Q34.3438 47 38.6719 45.2969
Q43 43.5938 45.9531 40.5938
Q48.9062 37.5938 50.4062 33.5625
Q51.9062 29.5469 51.9062 24.9062
Q51.9062 19.1562 49.875 14.4062
Q47.8438 9.65625 44.25 6.28125
Q40.6562 2.90625 35.7188 1.04688
Q30.7969 -0.796875 25 -0.796875
Q21.5938 -0.796875 18.5469 -0.09375
Q15.5 0.59375 12.8281 1.76562
Q10.1562 2.95312 7.875 4.46875
Q5.59375 6 3.79688 7.70312
L7.59375 12.9531
Q8.79688 14.6562 10.7969 14.6562
Q12.0469 14.6562 13.3125 13.8438
Q14.5938 13.0469 16.2969 12.0938
Q18 11.1562 20.25 10.3438
Q22.5 9.54688 25.7031 9.54688
Q29.0938 9.54688 31.6875 10.6406
Q34.2969 11.75 36.0156 13.7188
Q37.75 15.7031 38.625 18.4219
Q39.5 21.1562 39.5 24.3438
Q39.5 30.25 36.0781 33.5781
Q32.6562 36.9062 26 36.9062
Q20.75 36.9062 15.4531 35
L7.75 37.2031
L13.75 72.2969
L49.4531 72.2969
z
" id="Lato-Bold-35"/>
      </defs>
      <g style="fill:#262626;" transform="translate(384.95125 286.8875)scale(0.16 -0.16)">
       <use xlink:href="#Lato-Bold-35"/>
      </g>
     </g>
    </g>
    <g id="text_6">
     <!-- access time -->
     <defs>
      <path id="Lato-Bold-20"/>
      <path d="
M6.59375 0
L6.59375 51.2969
L14.1562 51.2969
Q16.5469 51.2969 17.2969 49.0469
L18.0938 45.25
Q19.4531 46.75 20.9219 48
Q22.4062 49.25 24.0781 50.1406
Q25.75 51.0469 27.6719 51.5625
Q29.5938 52.0938 31.9062 52.0938
Q36.75 52.0938 39.875 49.4688
Q43 46.8438 44.5469 42.5
Q45.75 45.0469 47.5469 46.875
Q49.3438 48.7031 51.5 49.8438
Q53.6562 51 56.0781 51.5469
Q58.5 52.0938 60.9531 52.0938
Q65.2031 52.0938 68.5 50.7969
Q71.7969 49.5 74.0469 47
Q76.2969 44.5 77.4688 40.8906
Q78.6562 37.2969 78.6562 32.6562
L78.6562 0
L66.2969 0
L66.2969 32.6562
Q66.2969 37.5469 64.1406 40.0156
Q62 42.5 57.8438 42.5
Q55.9531 42.5 54.3281 41.8438
Q52.7031 41.2031 51.4688 39.9688
Q50.25 38.75 49.5469 36.8906
Q48.8438 35.0469 48.8438 32.6562
L48.8438 0
L36.4531 0
L36.4531 32.6562
Q36.4531 37.7969 34.375 40.1406
Q32.2969 42.5 28.25 42.5
Q25.5938 42.5 23.2656 41.1719
Q20.9531 39.8438 18.9531 37.5469
L18.9531 0
z
" id="Lato-Bold-6d"/>
      <path d="
M37.0469 41.2969
Q36.5469 40.5 36 40.1719
Q35.4531 39.8438 34.5938 39.8438
Q33.7031 39.8438 32.6719 40.3438
Q31.6562 40.8438 30.2969 41.4688
Q28.9531 42.0938 27.2188 42.5938
Q25.5 43.0938 23.1562 43.0938
Q19.5 43.0938 17.3906 41.5469
Q15.2969 40 15.2969 37.5
Q15.2969 35.8438 16.375 34.7188
Q17.4531 33.5938 19.2188 32.75
Q21 31.9062 23.25 31.2188
Q25.5 30.5469 27.8438 29.75
Q30.2031 28.9531 32.4531 27.9219
Q34.7031 26.9062 36.4688 25.3281
Q38.25 23.75 39.3281 21.5469
Q40.4062 19.3438 40.4062 16.25
Q40.4062 12.5469 39.0469 9.42188
Q37.7031 6.29688 35.0938 4.01562
Q32.5 1.75 28.6719 0.46875
Q24.8438 -0.796875 19.9062 -0.796875
Q17.25 -0.796875 14.7188 -0.3125
Q12.2031 0.15625 9.875 1
Q7.54688 1.84375 5.5625 3
Q3.59375 4.15625 2.09375 5.5
L4.95312 10.2031
Q5.5 11.0469 6.25 11.5
Q7 11.9531 8.15625 11.9531
Q9.29688 11.9531 10.3125 11.2969
Q11.3438 10.6562 12.6875 9.90625
Q14.0469 9.15625 15.875 8.5
Q17.7031 7.84375 20.5 7.84375
Q22.7031 7.84375 24.2656 8.375
Q25.8438 8.90625 26.875 9.75
Q27.9062 10.5938 28.375 11.7188
Q28.8438 12.8438 28.8438 14.0469
Q28.8438 15.8438 27.7656 17
Q26.7031 18.1562 24.9219 19
Q23.1562 19.8438 20.875 20.5156
Q18.5938 21.2031 16.2188 22
Q13.8438 22.7969 11.5625 23.875
Q9.29688 24.9531 7.51562 26.5938
Q5.75 28.25 4.67188 30.6406
Q3.59375 33.0469 3.59375 36.4531
Q3.59375 39.5938 4.84375 42.4375
Q6.09375 45.2969 8.51562 47.4219
Q10.9531 49.5469 14.5781 50.8125
Q18.2031 52.0938 22.9531 52.0938
Q28.25 52.0938 32.5938 50.3438
Q36.9531 48.5938 39.8438 45.75
z
" id="Lato-Bold-73"/>
      <path d="
M19.75 51.2969
L19.75 0
L7.40625 0
L7.40625 51.2969
z

M21.5938 66.25
Q21.5938 64.6562 20.9375 63.25
Q20.2969 61.8438 19.2188 60.7969
Q18.1562 59.75 16.7031 59.125
Q15.25 58.5 13.5938 58.5
Q12 58.5 10.5781 59.125
Q9.15625 59.75 8.09375 60.7969
Q7.04688 61.8438 6.42188 63.25
Q5.79688 64.6562 5.79688 66.25
Q5.79688 67.9062 6.42188 69.3438
Q7.04688 70.7969 8.09375 71.8438
Q9.15625 72.9062 10.5781 73.5312
Q12 74.1562 13.5938 74.1562
Q15.25 74.1562 16.7031 73.5312
Q18.1562 72.9062 19.2188 71.8438
Q20.2969 70.7969 20.9375 69.3438
Q21.5938 67.9062 21.5938 66.25" id="Lato-Bold-69"/>
      <path d="
M46.7969 0
L41.25 0
Q39.5 0 38.5 0.515625
Q37.5 1.04688 37 2.65625
L35.9062 6.29688
Q33.9531 4.54688 32.0781 3.21875
Q30.2031 1.90625 28.2031 1
Q26.2031 0.09375 23.9531 -0.34375
Q21.7031 -0.796875 18.9531 -0.796875
Q15.7031 -0.796875 12.9531 0.078125
Q10.2031 0.953125 8.21875 2.70312
Q6.25 4.45312 5.14062 7.04688
Q4.04688 9.65625 4.04688 13.0938
Q4.04688 16 5.5625 18.8281
Q7.09375 21.6562 10.6406 23.9219
Q14.2031 26.2031 20.0938 27.7031
Q26 29.2031 34.75 29.4062
L34.75 32.4062
Q34.75 37.5469 32.5781 40.0156
Q30.4062 42.5 26.25 42.5
Q23.25 42.5 21.25 41.7969
Q19.25 41.0938 17.7656 40.2188
Q16.2969 39.3438 15.0469 38.6406
Q13.7969 37.9531 12.2969 37.9531
Q11.0469 37.9531 10.1406 38.5938
Q9.25 39.25 8.70312 40.2031
L6.45312 44.1562
Q15.2969 52.25 27.7969 52.25
Q32.2969 52.25 35.8125 50.7656
Q39.3438 49.2969 41.7969 46.6719
Q44.25 44.0469 45.5156 40.3906
Q46.7969 36.75 46.7969 32.4062
z

M22.7969 7.70312
Q24.7031 7.70312 26.2969 8.04688
Q27.9062 8.40625 29.3281 9.09375
Q30.75 9.79688 32.0781 10.8125
Q33.4062 11.8438 34.75 13.25
L34.75 21.9062
Q29.3438 21.6562 25.7188 20.9688
Q22.0938 20.2969 19.8906 19.25
Q17.7031 18.2031 16.7656 16.7969
Q15.8438 15.4062 15.8438 13.75
Q15.8438 10.5 17.7656 9.09375
Q19.7031 7.70312 22.7969 7.70312" id="Lato-Bold-61"/>
      <path d="
M42.6562 40.4531
Q42.0938 39.75 41.5625 39.3438
Q41.0469 38.9531 40.0469 38.9531
Q39.0938 38.9531 38.1875 39.5156
Q37.2969 40.0938 36.0469 40.8125
Q34.7969 41.5469 33.0625 42.125
Q31.3438 42.7031 28.7969 42.7031
Q25.5469 42.7031 23.0938 41.5156
Q20.6562 40.3438 19.0312 38.1406
Q17.4062 35.9531 16.5938 32.8281
Q15.7969 29.7031 15.7969 25.75
Q15.7969 21.6562 16.6719 18.4531
Q17.5469 15.25 19.1875 13.0781
Q20.8438 10.9062 23.1875 9.78125
Q25.5469 8.65625 28.5 8.65625
Q31.4531 8.65625 33.2656 9.375
Q35.0938 10.0938 36.3438 10.9688
Q37.5938 11.8438 38.5156 12.5625
Q39.4531 13.2969 40.5938 13.2969
Q42.0938 13.2969 42.8438 12.1562
L46.4062 7.65625
Q44.3438 5.25 41.9375 3.625
Q39.5469 2 36.9688 1.01562
Q34.4062 0.046875 31.6562 -0.34375
Q28.9062 -0.75 26.2031 -0.75
Q21.4531 -0.75 17.25 1.01562
Q13.0469 2.79688 9.92188 6.1875
Q6.79688 9.59375 4.96875 14.5156
Q3.15625 19.4531 3.15625 25.75
Q3.15625 31.4062 4.78125 36.2188
Q6.40625 41.0469 9.54688 44.5625
Q12.7031 48.0938 17.3438 50.0938
Q22 52.0938 28.0469 52.0938
Q33.7969 52.0938 38.125 50.25
Q42.4531 48.4062 45.9062 44.9531
z
" id="Lato-Bold-63"/>
      <path d="
M27.7969 52.0938
Q32.6562 52.0938 36.7188 50.5469
Q40.7969 49 43.75 46.0156
Q46.7031 43.0469 48.3438 38.7188
Q50 34.4062 50 28.8438
Q50 27.4531 49.875 26.5156
Q49.75 25.5938 49.4219 25.0625
Q49.0938 24.5469 48.5469 24.3125
Q48 24.0938 47.1562 24.0938
L15.4531 24.0938
Q16 16.2031 19.7031 12.5
Q23.4062 8.79688 29.5 8.79688
Q32.5 8.79688 34.6719 9.5
Q36.8438 10.2031 38.4688 11.0469
Q40.0938 11.9062 41.3125 12.5938
Q42.5469 13.2969 43.7031 13.2969
Q44.4531 13.2969 45 13
Q45.5469 12.7031 45.9531 12.1562
L49.5469 7.65625
Q47.5 5.25 44.9531 3.625
Q42.4062 2 39.625 1.01562
Q36.8438 0.046875 33.9688 -0.34375
Q31.0938 -0.75 28.4062 -0.75
Q23.0469 -0.75 18.4375 1.01562
Q13.8438 2.79688 10.4375 6.26562
Q7.04688 9.75 5.09375 14.875
Q3.15625 20 3.15625 26.75
Q3.15625 32 4.84375 36.625
Q6.54688 41.25 9.71875 44.6719
Q12.9062 48.0938 17.4688 50.0938
Q22.0469 52.0938 27.7969 52.0938
M28.0469 43.25
Q22.6562 43.25 19.5938 40.2031
Q16.5469 37.1562 15.7031 31.5469
L38.9062 31.5469
Q38.9062 33.9531 38.25 36.0781
Q37.5938 38.2031 36.25 39.7969
Q34.9062 41.4062 32.8438 42.3281
Q30.7969 43.25 28.0469 43.25" id="Lato-Bold-65"/>
      <path d="
M23.4531 -0.796875
Q16.7969 -0.796875 13.1875 2.96875
Q9.59375 6.75 9.59375 13.4062
L9.59375 42.0469
L4.40625 42.0469
Q3.40625 42.0469 2.67188 42.6875
Q1.95312 43.3438 1.95312 44.6562
L1.95312 49.5469
L10.2031 50.9062
L12.7969 64.9062
Q13 65.9062 13.7188 66.4531
Q14.4531 67 15.5469 67
L21.9531 67
L21.9531 50.8438
L35.4531 50.8438
L35.4531 42.0469
L21.9531 42.0469
L21.9531 14.25
Q21.9531 11.8438 23.1406 10.5
Q24.3438 9.15625 26.3438 9.15625
Q27.5 9.15625 28.2656 9.42188
Q29.0469 9.70312 29.625 10
Q30.2031 10.2969 30.6406 10.5625
Q31.0938 10.8438 31.5469 10.8438
Q32.0938 10.8438 32.4375 10.5625
Q32.7969 10.2969 33.2031 9.75
L36.9062 3.75
Q34.2031 1.5 30.7031 0.34375
Q27.2031 -0.796875 23.4531 -0.796875" id="Lato-Bold-74"/>
     </defs>
     <g style="fill:#262626;" transform="translate(170.609375 309.426875)scale(0.2 -0.2)">
      <use xlink:href="#Lato-Bold-61"/>
      <use x="52.3500061035" xlink:href="#Lato-Bold-63"/>
      <use x="100.050018311" xlink:href="#Lato-Bold-63"/>
      <use x="147.750030518" xlink:href="#Lato-Bold-65"/>
      <use x="201.200042725" xlink:href="#Lato-Bold-73"/>
      <use x="244.900039673" xlink:href="#Lato-Bold-73"/>
      <use x="288.600036621" xlink:href="#Lato-Bold-20"/>
      <use x="307.900039673" xlink:href="#Lato-Bold-74"/>
      <use x="346.600036621" xlink:href="#Lato-Bold-69"/>
      <use x="373.700042725" xlink:href="#Lato-Bold-6d"/>
      <use x="457.900054932" xlink:href="#Lato-Bold-65"/>
     </g>
    </g>
   </g>
   <g id="matplotlib.axis_2">
    <g id="ytick_1">
     <g id="line2d_6">
      <defs>
       <path d="
M0 0
L-6 0" id="m0dfa6ce036" style="stroke:#262626;"/>
      </defs>
      <g>
       <use style="fill:#262626;stroke:#262626;" x="44.0" xlink:href="#m0dfa6ce036" y="252.0"/>
      </g>
     </g>
     <g id="text_7">
      <!-- 0 -->
      <defs>
       <path d="
M55.5 36.1562
Q55.5 26.7031 53.4688 19.7188
Q51.4531 12.75 47.875 8.20312
Q44.2969 3.65625 39.4219 1.42188
Q34.5469 -0.796875 28.9062 -0.796875
Q23.25 -0.796875 18.4219 1.42188
Q13.5938 3.65625 10.0469 8.20312
Q6.5 12.75 4.5 19.7188
Q2.5 26.7031 2.5 36.1562
Q2.5 45.6562 4.5 52.5938
Q6.5 59.5469 10.0469 64.0938
Q13.5938 68.6562 18.4219 70.875
Q23.25 73.0938 28.9062 73.0938
Q34.5469 73.0938 39.4219 70.875
Q44.2969 68.6562 47.875 64.0938
Q51.4531 59.5469 53.4688 52.5938
Q55.5 45.6562 55.5 36.1562
M42.75 36.1562
Q42.75 44 41.5938 49.1406
Q40.4531 54.2969 38.5156 57.3438
Q36.5938 60.4062 34.0938 61.625
Q31.5938 62.8438 28.9062 62.8438
Q26.25 62.8438 23.7656 61.625
Q21.2969 60.4062 19.3906 57.3438
Q17.5 54.2969 16.375 49.1406
Q15.25 44 15.25 36.1562
Q15.25 28.2969 16.375 23.1406
Q17.5 18 19.3906 14.9531
Q21.2969 11.9062 23.7656 10.6719
Q26.25 9.45312 28.9062 9.45312
Q31.5938 9.45312 34.0938 10.6719
Q36.5938 11.9062 38.5156 14.9531
Q40.4531 18 41.5938 23.1406
Q42.75 28.2969 42.75 36.1562" id="Lato-Bold-30"/>
      </defs>
      <g style="fill:#262626;" transform="translate(22.52 256.60375)scale(0.16 -0.16)">
       <use xlink:href="#Lato-Bold-30"/>
      </g>
     </g>
    </g>
    <g id="ytick_2">
     <g id="line2d_7">
      <g>
       <use style="fill:#262626;stroke:#262626;" x="44.0" xlink:href="#m0dfa6ce036" y="207.36"/>
      </g>
     </g>
     <g id="text_8">
      <!-- 2000 -->
      <g style="fill:#262626;" transform="translate(-5.0475 211.96375)scale(0.16 -0.16)">
       <use xlink:href="#Lato-Bold-32"/>
       <use x="58.0" xlink:href="#Lato-Bold-30"/>
       <use x="116.0" xlink:href="#Lato-Bold-30"/>
       <use x="174.0" xlink:href="#Lato-Bold-30"/>
      </g>
     </g>
    </g>
    <g id="ytick_3">
     <g id="line2d_8">
      <g>
       <use style="fill:#262626;stroke:#262626;" x="44.0" xlink:href="#m0dfa6ce036" y="162.72"/>
      </g>
     </g>
     <g id="text_9">
      <!-- 4000 -->
      <g style="fill:#262626;" transform="translate(-5.535 167.32375)scale(0.16 -0.16)">
       <use xlink:href="#Lato-Bold-34"/>
       <use x="58.0" xlink:href="#Lato-Bold-30"/>
       <use x="116.0" xlink:href="#Lato-Bold-30"/>
       <use x="174.0" xlink:href="#Lato-Bold-30"/>
      </g>
     </g>
    </g>
    <g id="ytick_4">
     <g id="line2d_9">
      <g>
       <use style="fill:#262626;stroke:#262626;" x="44.0" xlink:href="#m0dfa6ce036" y="118.08"/>
      </g>
     </g>
     <g id="text_10">
      <!-- 6000 -->
      <defs>
       <path d="
M33.5 45.1562
Q37.5938 45.1562 41.4688 43.7969
Q45.3438 42.4531 48.2969 39.7188
Q51.25 37 53.0469 32.9531
Q54.8438 28.9062 54.8438 23.5
Q54.8438 18.4531 53 14.0156
Q51.1562 9.59375 47.7969 6.29688
Q44.4531 3 39.7188 1.09375
Q35 -0.796875 29.2969 -0.796875
Q23.5 -0.796875 18.8906 1.04688
Q14.2969 2.90625 11.0469 6.21875
Q7.79688 9.54688 6.0625 14.2188
Q4.34375 18.9062 4.34375 24.5938
Q4.34375 29.7031 6.42188 35.0781
Q8.5 40.4531 12.8438 46.25
L30.0938 69.4062
Q31 70.5938 32.7188 71.4375
Q34.4531 72.2969 36.7031 72.2969
L47.7031 72.2969
L26.25 46.0469
Q25.5469 45.2031 24.9219 44.4531
Q24.2969 43.7031 23.7031 42.9062
Q25.7969 43.9531 28.2188 44.5469
Q30.6562 45.1562 33.5 45.1562
M16.2031 22.7031
Q16.2031 19.7031 17.0156 17.2188
Q17.8438 14.75 19.4688 13
Q21.0938 11.25 23.5 10.2656
Q25.9062 9.29688 29.0469 9.29688
Q32 9.29688 34.4688 10.2969
Q36.9531 11.2969 38.7188 13.0938
Q40.5 14.9062 41.5 17.3281
Q42.5 19.75 42.5 22.5938
Q42.5 25.7031 41.5469 28.1719
Q40.5938 30.6562 38.8438 32.375
Q37.0938 34.0938 34.6406 35
Q32.2031 35.9062 29.25 35.9062
Q26.2969 35.9062 23.8906 34.9062
Q21.5 33.9062 19.7656 32.125
Q18.0469 30.3438 17.125 27.9219
Q16.2031 25.5 16.2031 22.7031" id="Lato-Bold-36"/>
      </defs>
      <g style="fill:#262626;" transform="translate(-5.025 122.68375)scale(0.16 -0.16)">
       <use xlink:href="#Lato-Bold-36"/>
       <use x="58.0" xlink:href="#Lato-Bold-30"/>
       <use x="116.0" xlink:href="#Lato-Bold-30"/>
       <use x="174.0" xlink:href="#Lato-Bold-30"/>
      </g>
     </g>
    </g>
    <g id="ytick_5">
     <g id="line2d_10">
      <g>
       <use style="fill:#262626;stroke:#262626;" x="44.0" xlink:href="#m0dfa6ce036" y="73.44"/>
      </g>
     </g>
     <g id="text_11">
      <!-- 8000 -->
      <defs>
       <path d="
M29 -0.796875
Q23.4062 -0.796875 18.7812 0.703125
Q14.1562 2.20312 10.8438 4.95312
Q7.54688 7.70312 5.71875 11.5938
Q3.90625 15.5 3.90625 20.2969
Q3.90625 26.7031 7.04688 31.125
Q10.2031 35.5469 16.8438 37.7031
Q11.5469 39.9062 8.92188 43.9531
Q6.29688 48 6.29688 53.7031
Q6.29688 57.7969 7.96875 61.3438
Q9.65625 64.9062 12.6562 67.5312
Q15.6562 70.1562 19.8281 71.625
Q24 73.0938 29 73.0938
Q34 73.0938 38.1719 71.625
Q42.3438 70.1562 45.3438 67.5312
Q48.3438 64.9062 50.0156 61.3438
Q51.7031 57.7969 51.7031 53.7031
Q51.7031 48 49.0469 43.9531
Q46.4062 39.9062 41.1562 37.7031
Q47.7969 35.5469 50.9375 31.125
Q54.0938 26.7031 54.0938 20.2969
Q54.0938 15.5 52.2656 11.5938
Q50.4531 7.70312 47.1406 4.95312
Q43.8438 2.20312 39.2188 0.703125
Q34.5938 -0.796875 29 -0.796875
M29 8.84375
Q32.0469 8.84375 34.3438 9.71875
Q36.6562 10.5938 38.2188 12.1406
Q39.7969 13.7031 40.5938 15.8438
Q41.4062 18 41.4062 20.5
Q41.4062 26.4531 38.0938 29.5
Q34.7969 32.5469 29 32.5469
Q23.2031 32.5469 19.8906 29.5
Q16.5938 26.4531 16.5938 20.5
Q16.5938 18 17.3906 15.8438
Q18.2031 13.7031 19.7656 12.1406
Q21.3438 10.5938 23.6406 9.71875
Q25.9531 8.84375 29 8.84375
M29 42.25
Q32 42.25 34.0469 43.2031
Q36.0938 44.1562 37.3438 45.7188
Q38.5938 47.2969 39.125 49.3125
Q39.6562 51.3438 39.6562 53.5
Q39.6562 55.5469 39 57.3906
Q38.3438 59.25 37.0469 60.6719
Q35.75 62.0938 33.75 62.9375
Q31.75 63.7969 29 63.7969
Q26.25 63.7969 24.25 62.9375
Q22.25 62.0938 20.9219 60.6719
Q19.5938 59.25 18.9688 57.3906
Q18.3438 55.5469 18.3438 53.5
Q18.3438 51.3438 18.875 49.3125
Q19.4062 47.2969 20.6562 45.7188
Q21.9062 44.1562 23.9531 43.2031
Q26 42.25 29 42.25" id="Lato-Bold-38"/>
      </defs>
      <g style="fill:#262626;" transform="translate(-5.095 78.04375)scale(0.16 -0.16)">
       <use xlink:href="#Lato-Bold-38"/>
       <use x="58.0" xlink:href="#Lato-Bold-30"/>
       <use x="116.0" xlink:href="#Lato-Bold-30"/>
       <use x="174.0" xlink:href="#Lato-Bold-30"/>
      </g>
     </g>
    </g>
    <g id="ytick_6">
     <g id="line2d_11">
      <g>
       <use style="fill:#262626;stroke:#262626;" x="44.0" xlink:href="#m0dfa6ce036" y="28.8"/>
      </g>
     </g>
     <g id="text_12">
      <!-- 10000 -->
      <g style="fill:#262626;" transform="translate(-13.68 33.40375)scale(0.16 -0.16)">
       <use xlink:href="#Lato-Bold-31"/>
       <use x="58.0" xlink:href="#Lato-Bold-30"/>
       <use x="116.0" xlink:href="#Lato-Bold-30"/>
       <use x="174.0" xlink:href="#Lato-Bold-30"/>
       <use x="232.0" xlink:href="#Lato-Bold-30"/>
      </g>
     </g>
    </g>
    <g id="text_13">
     <!-- count -->
     <defs>
      <path d="
M17.9062 51.2969
L17.9062 18.7031
Q17.9062 14 20.0781 11.4219
Q22.25 8.84375 26.5938 8.84375
Q29.7969 8.84375 32.5938 10.2656
Q35.4062 11.7031 37.9062 14.2031
L37.9062 51.2969
L50.25 51.2969
L50.25 0
L42.7031 0
Q40.2969 0 39.5469 2.25
L38.7031 6.34375
Q37.0938 4.75 35.3906 3.42188
Q33.7031 2.09375 31.7656 1.17188
Q29.8438 0.25 27.625 -0.265625
Q25.4062 -0.796875 22.8438 -0.796875
Q18.6562 -0.796875 15.4219 0.625
Q12.2031 2.04688 10 4.64062
Q7.79688 7.25 6.67188 10.8281
Q5.54688 14.4062 5.54688 18.7031
L5.54688 51.2969
z
" id="Lato-Bold-75"/>
      <path d="
M6.59375 0
L6.59375 51.2969
L14.1562 51.2969
Q16.5469 51.2969 17.2969 49.0469
L18.1562 45
Q19.7031 46.5938 21.4219 47.8906
Q23.1562 49.2031 25.0781 50.1406
Q27 51.0938 29.2031 51.5938
Q31.4062 52.0938 34 52.0938
Q38.2031 52.0938 41.4531 50.6719
Q44.7031 49.25 46.875 46.6719
Q49.0469 44.0938 50.1719 40.5156
Q51.2969 36.9531 51.2969 32.6562
L51.2969 0
L38.9531 0
L38.9531 32.6562
Q38.9531 37.3438 36.7656 39.9219
Q34.5938 42.5 30.25 42.5
Q27.0469 42.5 24.25 41.0469
Q21.4531 39.5938 18.9531 37.0938
L18.9531 0
z
" id="Lato-Bold-6e"/>
      <path d="
M28.5 52.0938
Q34.25 52.0938 38.9219 50.25
Q43.5938 48.4062 46.8906 45
Q50.2031 41.5938 52 36.6875
Q53.7969 31.7969 53.7969 25.75
Q53.7969 19.6562 52 14.75
Q50.2031 9.84375 46.8906 6.39062
Q43.5938 2.95312 38.9219 1.09375
Q34.25 -0.75 28.5 -0.75
Q22.75 -0.75 18.0469 1.09375
Q13.3438 2.95312 10.0156 6.39062
Q6.70312 9.84375 4.875 14.75
Q3.04688 19.6562 3.04688 25.75
Q3.04688 31.7969 4.875 36.6875
Q6.70312 41.5938 10.0156 45
Q13.3438 48.4062 18.0469 50.25
Q22.75 52.0938 28.5 52.0938
M28.5 8.75
Q34.9062 8.75 37.9688 13.0469
Q41.0469 17.3438 41.0469 25.6562
Q41.0469 33.9531 37.9688 38.2969
Q34.9062 42.6562 28.5 42.6562
Q22 42.6562 18.8906 38.2812
Q15.7969 33.9062 15.7969 25.6562
Q15.7969 17.4062 18.8906 13.0781
Q22 8.75 28.5 8.75" id="Lato-Bold-6f"/>
     </defs>
     <g style="fill:#262626;" transform="translate(-22.03 165.5984375)rotate(-90.0)scale(0.2 -0.2)">
      <use xlink:href="#Lato-Bold-63"/>
      <use x="47.700012207" xlink:href="#Lato-Bold-6f"/>
      <use x="104.550018311" xlink:href="#Lato-Bold-75"/>
      <use x="161.400024414" xlink:href="#Lato-Bold-6e"/>
      <use x="218.250030518" xlink:href="#Lato-Bold-74"/>
     </g>
    </g>
   </g>
   <g id="line2d_12">
    <path clip-path="url(#p124b8dd147)" d="
M54 40.2725
L137.7 177.875
L221.4 193.254
L305.1 202.985
L388.8 208.32" style="fill:none;stroke:#5cae66;stroke-linecap:round;stroke-width:1.75;"/>
   </g>
   <g id="line2d_13">
    <path clip-path="url(#p124b8dd147)" d="
M54 37.8619
L137.7 136.963
L221.4 185.888
L305.1 200.552
L388.8 204.771" style="fill:none;stroke:#98cc66;stroke-linecap:round;stroke-width:1.75;"/>
   </g>
   <g id="line2d_14">
    <path clip-path="url(#p124b8dd147)" d="
M54 43.0848
L137.7 195.53
L221.4 205.106
L305.1 209.949
L388.8 210.195" style="fill:none;stroke:#329866;stroke-linecap:round;stroke-width:1.75;"/>
   </g>
   <g id="line2d_15">
    <path clip-path="url(#p124b8dd147)" d="
M54 36.612
L137.7 193.901
L221.4 204.57
L305.1 208.275
L388.8 210.619" style="fill:none;stroke:#329866;stroke-linecap:round;stroke-width:1.75;"/>
   </g>
   <g id="line2d_16">
    <path clip-path="url(#p124b8dd147)" d="
M54 40.585
L137.7 177.027
L221.4 190.196
L305.1 202.182
L388.8 206.49" style="fill:none;stroke:#5cae66;stroke-linecap:round;stroke-width:1.75;"/>
   </g>
   <g id="line2d_17">
    <path clip-path="url(#p124b8dd147)" d="
M54 252
L137.7 203.655
L221.4 208.409
L305.1 208.208
L388.8 208.297" style="fill:none;stroke:#ff8800;stroke-linecap:round;stroke-width:1.75;"/>
   </g>
   <g id="line2d_18">
    <path clip-path="url(#p124b8dd147)" d="
M54 252
L137.7 218.944
L221.4 209.592
L305.1 208.655
L388.8 209.19" style="fill:none;stroke:#ff7d00;stroke-linecap:round;stroke-width:1.75;"/>
   </g>
   <g id="line2d_19">
    <path clip-path="url(#p124b8dd147)" d="
M54 252
L137.7 182.049
L221.4 198.008
L305.1 203.008
L388.8 205.976" style="fill:none;stroke:#ff9200;stroke-linecap:round;stroke-width:1.75;"/>
   </g>
   <g id="line2d_20">
    <path clip-path="url(#p124b8dd147)" d="
M54 252
L137.7 202.137
L221.4 209.346
L305.1 208.03
L388.8 209.012" style="fill:none;stroke:#ff8800;stroke-linecap:round;stroke-width:1.75;"/>
   </g>
   <g id="line2d_21">
    <path clip-path="url(#p124b8dd147)" d="
M54 252
L137.7 228.408
L221.4 221.042
L305.1 214.279
L388.8 211.445" style="fill:none;stroke:#ff6e00;stroke-linecap:round;stroke-width:1.75;"/>
   </g>
   <g id="line2d_22">
    <path clip-path="url(#p124b8dd147)" d="
M54 252
L137.7 227.515
L221.4 220.239
L305.1 215.551
L388.8 212.717" style="fill:none;stroke:#ff6e00;stroke-linecap:round;stroke-width:1.75;"/>
   </g>
   <g id="line2d_23">
    <path clip-path="url(#p124b8dd147)" d="
M54 252
L137.7 220.64
L221.4 219.725
L305.1 215.373
L388.8 209.748" style="fill:none;stroke:#ff7700;stroke-linecap:round;stroke-width:1.75;"/>
   </g>
   <g id="line2d_24">
    <path clip-path="url(#p124b8dd147)" d="
M54 252
L137.7 217.203
L221.4 210.931
L305.1 208.23
L388.8 207.896" style="fill:none;stroke:#ff7d00;stroke-linecap:round;stroke-width:1.75;"/>
   </g>
   <g id="line2d_25">
    <path clip-path="url(#p124b8dd147)" d="
M54 252
L137.7 233.742
L221.4 215.886
L305.1 212.136
L388.8 208.409" style="fill:none;stroke:#ff6e00;stroke-linecap:round;stroke-width:1.75;"/>
   </g>
   <g id="line2d_26">
    <path clip-path="url(#p124b8dd147)" d="
M54 252
L137.7 202.472
L221.4 203.32
L305.1 203.789
L388.8 205.731" style="fill:none;stroke:#ff9200;stroke-linecap:round;stroke-width:1.75;"/>
   </g>
   <g id="line2d_27">
    <path clip-path="url(#p124b8dd147)" d="
M54 252
L137.7 184.482
L221.4 194.481
L305.1 201.021
L388.8 205.284" style="fill:none;stroke:#ff9800;stroke-linecap:round;stroke-width:1.75;"/>
   </g>
   <g id="line2d_28">
    <path clip-path="url(#p124b8dd147)" d="
M54 252
L137.7 234.702
L221.4 216.042
L305.1 213.833
L388.8 208.677" style="fill:none;stroke:#ff6e00;stroke-linecap:round;stroke-width:1.75;"/>
   </g>
   <g id="line2d_29">
    <path clip-path="url(#p124b8dd147)" d="
M54 252
L137.7 201.758
L221.4 217.806
L305.1 211.02
L388.8 211.065" style="fill:none;stroke:#ff8200;stroke-linecap:round;stroke-width:1.75;"/>
   </g>
   <g id="line2d_30">
    <path clip-path="url(#p124b8dd147)" d="
M54 252
L137.7 186.58
L221.4 189.772
L305.1 200.53
L388.8 207.784" style="fill:none;stroke:#ffa000;stroke-linecap:round;stroke-width:1.75;"/>
   </g>
   <g id="line2d_31">
    <path clip-path="url(#p124b8dd147)" d="
M54 252
L137.7 217.583
L221.4 211.623
L305.1 210.574
L388.8 209.949" style="fill:none;stroke:#ff7e00;stroke-linecap:round;stroke-width:1.75;"/>
   </g>
   <g id="line2d_32">
    <path clip-path="url(#p124b8dd147)" d="
M54 252
L137.7 203.298
L221.4 201.267
L305.1 205.664
L388.8 207.137" style="fill:none;stroke:#ff9200;stroke-linecap:round;stroke-width:1.75;"/>
   </g>
   <g id="line2d_33">
    <path clip-path="url(#p124b8dd147)" d="
M54 252
L137.7 220.216
L221.4 213.431
L305.1 209.012
L388.8 208.342" style="fill:none;stroke:#ff7d00;stroke-linecap:round;stroke-width:1.75;"/>
   </g>
   <g id="line2d_34">
    <path clip-path="url(#p124b8dd147)" d="
M54 252
L137.7 220.707
L221.4 211.668
L305.1 210.083
L388.8 209.168" style="fill:none;stroke:#ff7d00;stroke-linecap:round;stroke-width:1.75;"/>
   </g>
   <g id="line2d_35">
    <path clip-path="url(#p124b8dd147)" d="
M54 252
L137.7 252
L221.4 231.153
L305.1 217.404
L388.8 212.761" style="fill:none;stroke:#008db8;stroke-linecap:round;stroke-width:1.75;"/>
   </g>
   <g id="line2d_36">
    <path clip-path="url(#p124b8dd147)" d="
M54 252
L137.7 252
L221.4 221.489
L305.1 214.212
L388.8 211.779" style="fill:none;stroke:#0097b3;stroke-linecap:round;stroke-width:1.75;"/>
   </g>
   <g id="line2d_37">
    <path clip-path="url(#p124b8dd147)" d="
M54 252
L137.7 252
L221.4 225.573
L305.1 216.891
L388.8 211.4" style="fill:none;stroke:#0094b5;stroke-linecap:round;stroke-width:1.75;"/>
   </g>
   <g id="line2d_38">
    <path clip-path="url(#p124b8dd147)" d="
M54 252
L137.7 252
L221.4 223.966
L305.1 214.391
L388.8 210.797" style="fill:none;stroke:#0094b5;stroke-linecap:round;stroke-width:1.75;"/>
   </g>
   <g id="patch_3">
    <path d="
M54 262
L388.8 262" style="fill:none;stroke:#262626;stroke-linecap:square;stroke-linejoin:miter;stroke-width:1.25;"/>
   </g>
   <g id="patch_4">
    <path d="
M44 252
L44 28.8" style="fill:none;stroke:#262626;stroke-linecap:square;stroke-linejoin:miter;stroke-width:1.25;"/>
   </g>
  </g>
  <g id="text_14">
   <!-- $\mathrm{deg}\ T_1 = 24,\ \mathrm{deg}\ T_2 = 24$ -->
   <defs>
    <path d="
M4.98438 0
L4.98438 2.6875
Q4.98438 2.9375 5.17188 3.21875
L20.7031 20.4062
Q24.2188 24.2188 26.4062 26.7969
Q28.6094 29.3906 30.75 32.7656
Q32.9062 36.1406 34.1562 39.625
Q35.4062 43.1094 35.4062 47.0156
Q35.4062 51.125 33.8906 54.8594
Q32.375 58.5938 29.375 60.8438
Q26.375 63.0938 22.125 63.0938
Q17.7812 63.0938 14.3125 60.4688
Q10.8438 57.8594 9.42188 53.7188
Q9.8125 53.8125 10.5 53.8125
Q12.75 53.8125 14.3281 52.2969
Q15.9219 50.7812 15.9219 48.3906
Q15.9219 46.0938 14.3281 44.5
Q12.75 42.9219 10.5 42.9219
Q8.15625 42.9219 6.5625 44.5469
Q4.98438 46.1875 4.98438 48.3906
Q4.98438 52.1562 6.39062 55.4375
Q7.8125 58.7344 10.4688 61.2969
Q13.1406 63.875 16.4844 65.2344
Q19.8281 66.6094 23.5781 66.6094
Q29.2969 66.6094 34.2188 64.1875
Q39.1562 61.7656 42.0312 57.3438
Q44.9219 52.9375 44.9219 47.0156
Q44.9219 42.6719 43.0156 38.7656
Q41.1094 34.8594 38.125 31.6562
Q35.1562 28.4688 30.5156 24.4062
Q25.875 20.3594 24.4219 19
L13.0938 8.10938
L22.7031 8.10938
Q29.7812 8.10938 34.5469 8.21875
Q39.3125 8.34375 39.5938 8.59375
Q40.7656 9.85938 42 17.8281
L44.9219 17.8281
L42.0938 0
z
" id="Cmr10-32"/>
    <path d="
M9.28125 0
L9.28125 3.51562
Q21.7812 3.51562 21.7812 6.6875
L21.7812 59.1875
Q16.6094 56.6875 8.6875 56.6875
L8.6875 60.2031
Q20.9531 60.2031 27.2031 66.6094
L28.6094 66.6094
Q28.9531 66.6094 29.2656 66.3281
Q29.5938 66.0625 29.5938 65.7188
L29.5938 6.6875
Q29.5938 3.51562 42.0938 3.51562
L42.0938 0
z
" id="Cmr10-31"/>
    <path d="
M2.78125 16.5
L2.78125 20.0156
L33.6875 66.1094
Q34.0312 66.6094 34.7188 66.6094
L36.1875 66.6094
Q37.3125 66.6094 37.3125 65.4844
L37.3125 20.0156
L47.125 20.0156
L47.125 16.5
L37.3125 16.5
L37.3125 6.6875
Q37.3125 4.64062 40.2344 4.07812
Q43.1719 3.51562 47.0156 3.51562
L47.0156 0
L19.4844 0
L19.4844 3.51562
Q23.3438 3.51562 26.2656 4.07812
Q29.2031 4.64062 29.2031 6.6875
L29.2031 16.5
z

M6.10938 20.0156
L29.7812 20.0156
L29.7812 55.4219
z
" id="Cmr10-34"/>
    <path d="
M4.59375 1.3125
Q4.64062 1.5625 4.8125 2.1875
Q4.98438 2.82812 5.25 3.17188
Q5.51562 3.51562 6 3.51562
Q14.5938 3.51562 17.3906 4
Q20.0625 4.6875 20.6094 6.89062
L34.2812 61.8125
Q34.7188 63.0312 34.7188 64.0156
Q34.7188 64.7969 31.2031 64.7969
L25.3906 64.7969
Q18.7031 64.7969 15.0625 62.7344
Q11.4219 60.6875 9.71875 57.3125
Q8.01562 53.9531 5.32812 46.2969
Q4.98438 45.4062 4.29688 45.4062
L3.42188 45.4062
Q2.39062 45.4062 2.39062 46.6875
L9.51562 67.3906
Q9.71875 68.3125 10.5 68.3125
L69.5781 68.3125
Q70.6094 68.3125 70.6094 67
L67.2812 46.2969
Q67.2812 46 66.9375 45.7031
Q66.6094 45.4062 66.3125 45.4062
L65.375 45.4062
Q64.4062 45.4062 64.4062 46.6875
Q65.4844 53.7656 65.4844 56.6875
Q65.4844 60.2031 64.0156 62
Q62.5469 63.8125 60.2031 64.2969
Q57.8594 64.7969 54.1094 64.7969
L48.1875 64.7969
Q45.5156 64.7969 44.5781 64.2969
Q43.6562 63.8125 43.0156 61.375
L29.2969 6.5
Q29.25 6.29688 29.2188 6.09375
Q29.2031 5.90625 29.1094 5.60938
Q29.1094 4.34375 30.6094 4
Q33.2031 3.51562 41.7031 3.51562
Q42.6719 3.51562 42.6719 2.20312
Q42.3281 0.78125 42.125 0.390625
Q41.9375 0 41.0156 0
L5.60938 0
Q4.59375 0 4.59375 1.3125" id="Cmmi10-54"/>
    <path d="
M7.51562 13.2812
Q6.6875 13.2812 6.14062 13.9062
Q5.60938 14.5469 5.60938 15.2812
Q5.60938 16.1094 6.14062 16.6875
Q6.6875 17.2812 7.51562 17.2812
L70.3125 17.2812
Q71.0469 17.2812 71.5781 16.6875
Q72.125 16.1094 72.125 15.2812
Q72.125 14.5469 71.5781 13.9062
Q71.0469 13.2812 70.3125 13.2812
z

M7.51562 32.7188
Q6.6875 32.7188 6.14062 33.2969
Q5.60938 33.8906 5.60938 34.7188
Q5.60938 35.4531 6.14062 36.0781
Q6.6875 36.7188 7.51562 36.7188
L70.3125 36.7188
Q71.0469 36.7188 71.5781 36.0781
Q72.125 35.4531 72.125 34.7188
Q72.125 33.8906 71.5781 33.2969
Q71.0469 32.7188 70.3125 32.7188
z
" id="Cmr10-3d"/>
    <path d="
M24.4219 -1.125
Q18.5 -1.125 13.6094 2.07812
Q8.73438 5.28125 6.03125 10.5
Q3.32812 15.7188 3.32812 21.5781
Q3.32812 27.6406 6.28125 32.8281
Q9.23438 38.0312 14.3125 41.1094
Q19.3906 44.1875 25.4844 44.1875
Q29.1562 44.1875 32.4219 42.6406
Q35.6875 41.1094 38.0938 38.375
L38.0938 59.1875
Q38.0938 61.8594 37.2812 63.0625
Q36.4688 64.2656 34.9844 64.5312
Q33.5 64.7969 30.3281 64.7969
L30.3281 68.3125
L45.125 69.3906
L45.125 9.07812
Q45.125 6.45312 45.9219 5.25
Q46.7344 4.04688 48.2188 3.78125
Q49.7031 3.51562 52.875 3.51562
L52.875 0
L37.7969 -1.125
L37.7969 5.17188
Q35.2031 2.20312 31.6406 0.53125
Q28.0781 -1.125 24.4219 -1.125
M14.2031 8.6875
Q15.9219 5.42188 18.7656 3.46875
Q21.625 1.51562 25 1.51562
Q29.1562 1.51562 32.6094 3.90625
Q36.0781 6.29688 37.7969 10.1094
L37.7969 34.0781
Q36.625 36.2812 34.8438 38.0156
Q33.0625 39.75 30.8281 40.6719
Q28.6094 41.6094 26.125 41.6094
Q20.9062 41.6094 17.7188 38.6406
Q14.5469 35.6875 13.2812 31.0938
Q12.0156 26.5156 12.0156 21.4844
Q12.0156 17.4844 12.4219 14.5
Q12.8438 11.5312 14.2031 8.6875" id="Cmr10-64"/>
    <path d="
M24.9062 -1.125
Q18.7969 -1.125 13.6875 2.07812
Q8.59375 5.28125 5.6875 10.625
Q2.78125 15.9688 2.78125 21.9219
Q2.78125 27.7812 5.4375 33.0469
Q8.10938 38.3281 12.8594 41.5781
Q17.625 44.8281 23.4844 44.8281
Q28.0781 44.8281 31.4688 43.2812
Q34.8594 41.75 37.0625 39.0156
Q39.2656 36.2812 40.375 32.5625
Q41.5 28.8594 41.5 24.4219
Q41.5 23.0938 40.4844 23.0938
L11.5312 23.0938
L11.5312 22.0156
Q11.5312 13.7188 14.875 7.76562
Q18.2188 1.8125 25.7812 1.8125
Q28.8594 1.8125 31.4688 3.17188
Q34.0781 4.54688 36 6.98438
Q37.9375 9.42188 38.625 12.2031
Q38.7188 12.5469 38.9844 12.8125
Q39.2656 13.0938 39.5938 13.0938
L40.4844 13.0938
Q41.5 13.0938 41.5 11.8125
Q40.0938 6.15625 35.4062 2.51562
Q30.7188 -1.125 24.9062 -1.125
M11.625 25.5938
L34.4219 25.5938
Q34.4219 29.3438 33.375 33.2031
Q32.3281 37.0625 29.875 39.625
Q27.4375 42.1875 23.4844 42.1875
Q17.8281 42.1875 14.7188 36.8906
Q11.625 31.5938 11.625 25.5938" id="Cmr10-65"/>
    <path d="
M2.78125 -7.8125
Q2.78125 -4.25 5.35938 -1.57812
Q7.95312 1.07812 11.5312 2.20312
Q9.51562 3.71875 8.46875 6
Q7.42188 8.29688 7.42188 10.8906
Q7.42188 15.5781 10.4062 19.1875
Q5.8125 23.6875 5.8125 29.5
Q5.8125 32.625 7.15625 35.3594
Q8.5 38.0938 10.8906 40.0938
Q13.2812 42.0938 16.2031 43.1406
Q19.1406 44.1875 22.2188 44.1875
Q28.1719 44.1875 32.9062 40.7188
Q34.9688 42.9219 37.7656 44.1094
Q40.5781 45.3125 43.6094 45.3125
Q45.75 45.3125 47.1094 43.7656
Q48.4844 42.2344 48.4844 40.0938
Q48.4844 38.875 47.5469 37.9375
Q46.625 37.0156 45.4062 37.0156
Q44.1406 37.0156 43.2031 37.9375
Q42.2812 38.875 42.2812 40.0938
Q42.2812 41.9375 43.5 42.6719
Q38.3281 42.6719 34.625 39.1094
Q36.4219 37.3125 37.5156 34.6875
Q38.625 32.0781 38.625 29.5
Q38.625 25.25 36.2812 21.8438
Q33.9375 18.4531 30.0938 16.5781
Q26.2656 14.7031 22.2188 14.7031
Q16.75 14.7031 12.2031 17.6719
Q10.7969 15.7188 10.7969 13.2812
Q10.7969 10.6406 12.5312 8.65625
Q14.2656 6.6875 16.8906 6.6875
L25.0938 6.6875
Q31.0625 6.6875 35.8438 5.60938
Q40.625 4.54688 43.875 1.3125
Q47.125 -1.90625 47.125 -7.8125
Q47.125 -12.2031 43.4062 -15.1094
Q39.7031 -18.0156 34.5469 -19.3125
Q29.3906 -20.6094 25 -20.6094
Q20.5625 -20.6094 15.375 -19.3125
Q10.2031 -18.0156 6.48438 -15.1094
Q2.78125 -12.2031 2.78125 -7.8125
M8.40625 -7.8125
Q8.40625 -11.1875 11.1406 -13.4531
Q13.875 -15.7188 17.7188 -16.8125
Q21.5781 -17.9219 25 -17.9219
Q28.375 -17.9219 32.2188 -16.8125
Q36.0781 -15.7188 38.7812 -13.4531
Q41.5 -11.1875 41.5 -7.8125
Q41.5 -2.59375 36.7188 -1.04688
Q31.9375 0.484375 25.0938 0.484375
L16.8906 0.484375
Q14.5938 0.484375 12.6719 -0.609375
Q10.75 -1.70312 9.57812 -3.6875
Q8.40625 -5.67188 8.40625 -7.8125
M22.2188 17.3906
Q30.7188 17.3906 30.7188 29.5
Q30.7188 34.7188 28.9062 38.1094
Q27.0938 41.5 22.2188 41.5
Q17.3281 41.5 15.5156 38.1094
Q13.7188 34.7188 13.7188 29.5
Q13.7188 26.1719 14.4062 23.4844
Q15.0938 20.7969 16.9375 19.0938
Q18.7969 17.3906 22.2188 17.3906" id="Cmr10-67"/>
    <path d="
M9.90625 -18.0156
Q9.90625 -17.5781 10.2969 -17.1875
Q13.9219 -13.7188 15.9219 -9.17188
Q17.9219 -4.64062 17.9219 0.390625
L17.9219 1.60938
Q16.3125 0 13.9219 0
Q11.625 0 10.0156 1.60938
Q8.40625 3.21875 8.40625 5.51562
Q8.40625 7.85938 10.0156 9.42188
Q11.625 10.9844 13.9219 10.9844
Q17.4844 10.9844 19 7.6875
Q20.5156 4.39062 20.5156 0.390625
Q20.5156 -5.17188 18.2812 -10.1719
Q16.0625 -15.1875 12.0156 -19.1875
Q11.625 -19.3906 11.375 -19.3906
Q10.8906 -19.3906 10.3906 -18.9375
Q9.90625 -18.5 9.90625 -18.0156" id="Cmmi10-3b"/>
   </defs>
   <g style="fill:#262626;" transform="translate(102.81 21.16)scale(0.22 -0.22)">
    <use transform="translate(0.0 0.609375)" xlink:href="#Cmr10-64"/>
    <use transform="translate(55.517578125 0.609375)" xlink:href="#Cmr10-65"/>
    <use transform="translate(99.90234375 0.609375)" xlink:href="#Cmr10-67"/>
    <use transform="translate(176.240234375 0.609375)" xlink:href="#Cmmi10-54"/>
    <use transform="translate(234.638671875 -24.9)scale(0.7)" xlink:href="#Cmr10-31"/>
    <use transform="translate(302.197265625 0.609375)" xlink:href="#Cmr10-3d"/>
    <use transform="translate(386.255859375 0.609375)" xlink:href="#Cmr10-32"/>
    <use transform="translate(436.255859375 0.609375)" xlink:href="#Cmr10-34"/>
    <use transform="translate(486.255859375 0.609375)" xlink:href="#Cmmi10-3b"/>
    <use transform="translate(542.26171875 0.609375)" xlink:href="#Cmr10-64"/>
    <use transform="translate(597.779296875 0.609375)" xlink:href="#Cmr10-65"/>
    <use transform="translate(642.1640625 0.609375)" xlink:href="#Cmr10-67"/>
    <use transform="translate(718.501953125 0.609375)" xlink:href="#Cmmi10-54"/>
    <use transform="translate(776.900390625 -24.9)scale(0.7)" xlink:href="#Cmr10-32"/>
    <use transform="translate(844.458984375 0.609375)" xlink:href="#Cmr10-3d"/>
    <use transform="translate(928.517578125 0.609375)" xlink:href="#Cmr10-32"/>
    <use transform="translate(978.517578125 0.609375)" xlink:href="#Cmr10-34"/>
   </g>
  </g>
 </g>
 <defs>
  <clipPath id="p124b8dd147">
   <rect height="223.2" width="334.8" x="54.0" y="28.8"/>
  </clipPath>
 </defs>
</svg>
