<?xml version="1.0" encoding="utf-8" standalone="no"?>
<!DOCTYPE svg PUBLIC "-//W3C//DTD SVG 1.1//EN"
  "http://www.w3.org/Graphics/SVG/1.1/DTD/svg11.dtd">
<!-- Created with matplotlib (http://matplotlib.org/) -->
<svg height="288pt" version="1.1" viewBox="0 0 288 288" width="288pt" xmlns="http://www.w3.org/2000/svg" xmlns:xlink="http://www.w3.org/1999/xlink">
 <defs>
  <style type="text/css">
*{stroke-linecap:butt;stroke-linejoin:round;}
  </style>
 </defs>
 <g id="figure_1">
  <g id="patch_1">
   <path d="
M0 288
L288 288
L288 0
L0 0
z
" style="fill:#ffffff;"/>
  </g>
  <g id="axes_1">
   <g id="patch_2">
    <path d="
M79.6428 226.54
L250.965 226.54
L250.965 48.56
L79.6428 48.56
z
" style="fill:#ffffff;"/>
   </g>
   <g id="matplotlib.axis_1">
    <g id="xtick_1">
     <g id="line2d_1">
      <defs>
       <path d="
M0 0
L0 6" id="m44d4eda7dc" style="stroke:#262626;"/>
      </defs>
      <g>
       <use style="fill:#262626;stroke:#262626;" x="79.6428125" xlink:href="#m44d4eda7dc" y="230.54"/>
      </g>
     </g>
     <g id="text_1">
      <!-- 0 -->
      <defs>
       <path d="
M55.5 36.1562
Q55.5 26.7031 53.4688 19.7188
Q51.4531 12.75 47.875 8.20312
Q44.2969 3.65625 39.4219 1.42188
Q34.5469 -0.796875 28.9062 -0.796875
Q23.25 -0.796875 18.4219 1.42188
Q13.5938 3.65625 10.0469 8.20312
Q6.5 12.75 4.5 19.7188
Q2.5 26.7031 2.5 36.1562
Q2.5 45.6562 4.5 52.5938
Q6.5 59.5469 10.0469 64.0938
Q13.5938 68.6562 18.4219 70.875
Q23.25 73.0938 28.9062 73.0938
Q34.5469 73.0938 39.4219 70.875
Q44.2969 68.6562 47.875 64.0938
Q51.4531 59.5469 53.4688 52.5938
Q55.5 45.6562 55.5 36.1562
M42.75 36.1562
Q42.75 44 41.5938 49.1406
Q40.4531 54.2969 38.5156 57.3438
Q36.5938 60.4062 34.0938 61.625
Q31.5938 62.8438 28.9062 62.8438
Q26.25 62.8438 23.7656 61.625
Q21.2969 60.4062 19.3906 57.3438
Q17.5 54.2969 16.375 49.1406
Q15.25 44 15.25 36.1562
Q15.25 28.2969 16.375 23.1406
Q17.5 18 19.3906 14.9531
Q21.2969 11.9062 23.7656 10.6719
Q26.25 9.45312 28.9062 9.45312
Q31.5938 9.45312 34.0938 10.6719
Q36.5938 11.9062 38.5156 14.9531
Q40.4531 18 41.5938 23.1406
Q42.75 28.2969 42.75 36.1562" id="Lato-Bold-30"/>
      </defs>
      <g style="fill:#262626;" transform="translate(76.9928125 250.9696875)scale(0.1 -0.1)">
       <use xlink:href="#Lato-Bold-30"/>
      </g>
     </g>
    </g>
    <g id="xtick_2">
     <g id="line2d_2">
      <g>
       <use style="fill:#262626;stroke:#262626;" x="104.117410714" xlink:href="#m44d4eda7dc" y="230.54"/>
      </g>
     </g>
     <g id="text_2">
      <!-- 1 -->
      <defs>
       <path d="
M13.4531 9.25
L28.0938 9.25
L28.0938 51.4062
Q28.0938 53.8438 28.25 56.5469
L17.8438 47.8438
Q17.2031 47.2969 16.5156 47.0938
Q15.8438 46.9062 15.2031 46.9062
Q14.2031 46.9062 13.375 47.3281
Q12.5469 47.75 12.1562 48.2969
L8.25 53.6562
L30.2969 72.4062
L40.4531 72.4062
L40.4531 9.25
L53.4531 9.25
L53.4531 0
L13.4531 0
z
" id="Lato-Bold-31"/>
      </defs>
      <g style="fill:#262626;" transform="translate(101.857254464 250.9696875)scale(0.1 -0.1)">
       <use xlink:href="#Lato-Bold-31"/>
      </g>
     </g>
    </g>
    <g id="xtick_3">
     <g id="line2d_3">
      <g>
       <use style="fill:#262626;stroke:#262626;" x="128.592008929" xlink:href="#m44d4eda7dc" y="230.54"/>
      </g>
     </g>
     <g id="text_3">
      <!-- 2 -->
      <defs>
       <path d="
M30.0938 73.0938
Q35.0938 73.0938 39.25 71.625
Q43.4062 70.1562 46.3438 67.4531
Q49.2969 64.75 50.9375 60.9531
Q52.5938 57.1562 52.5938 52.5
Q52.5938 48.5 51.4219 45.0938
Q50.25 41.7031 48.2656 38.5938
Q46.2969 35.5 43.6406 32.5938
Q41 29.7031 38.0938 26.7031
L21.7969 10.0469
Q24.2031 10.75 26.5 11.125
Q28.7969 11.5 30.9062 11.5
L49.4531 11.5
Q51.4531 11.5 52.625 10.375
Q53.7969 9.25 53.7969 7.40625
L53.7969 0
L4.20312 0
L4.20312 4.09375
Q4.20312 5.34375 4.71875 6.6875
Q5.25 8.04688 6.40625 9.20312
L28.3438 31.2031
Q31.0938 34 33.2656 36.5469
Q35.4531 39.0938 36.9219 41.5938
Q38.4062 44.0938 39.1719 46.6719
Q39.9531 49.25 39.9531 52.0938
Q39.9531 54.7031 39.2031 56.6719
Q38.4531 58.6562 37.0469 60
Q35.6562 61.3438 33.7188 62.0156
Q31.7969 62.7031 29.4062 62.7031
Q24.9531 62.7031 22.0781 60.4531
Q19.2031 58.2031 18.0469 54.4062
Q17.5 52.5 16.3906 51.6719
Q15.2969 50.8438 13.5938 50.8438
Q12.8438 50.8438 11.9531 51
L5.45312 52.1562
Q6.20312 57.3438 8.34375 61.2656
Q10.5 65.2031 13.7188 67.8281
Q16.9531 70.4531 21.125 71.7656
Q25.2969 73.0938 30.0938 73.0938" id="Lato-Bold-32"/>
      </defs>
      <g style="fill:#262626;" transform="translate(126.112321429 250.9696875)scale(0.1 -0.1)">
       <use xlink:href="#Lato-Bold-32"/>
      </g>
     </g>
    </g>
    <g id="xtick_4">
     <g id="line2d_4">
      <g>
       <use style="fill:#262626;stroke:#262626;" x="153.066607143" xlink:href="#m44d4eda7dc" y="230.54"/>
      </g>
     </g>
     <g id="text_4">
      <!-- 3 -->
      <defs>
       <path d="
M31.25 73.0938
Q36.25 73.0938 40.2656 71.6719
Q44.2969 70.25 47.1406 67.7188
Q50 65.2031 51.5156 61.7969
Q53.0469 58.4062 53.0469 54.4531
Q53.0469 51 52.2656 48.375
Q51.5 45.75 50.0156 43.7969
Q48.5469 41.8438 46.4219 40.5
Q44.2969 39.1562 41.5938 38.25
Q48.0938 36.2031 51.2969 32
Q54.5 27.7969 54.5 21.4531
Q54.5 16.0469 52.5 11.8906
Q50.5 7.75 47.0938 4.92188
Q43.7031 2.09375 39.2188 0.640625
Q34.75 -0.796875 29.75 -0.796875
Q24.2969 -0.796875 20.25 0.453125
Q16.2031 1.70312 13.2031 4.14062
Q10.2031 6.59375 8.09375 10.1406
Q6 13.7031 4.5 18.3438
L9.95312 20.5938
Q11.3438 21.2031 12.7969 21.2031
Q14.0938 21.2031 15.125 20.6406
Q16.1562 20.0938 16.7031 19.0469
Q17.5938 17.2969 18.6719 15.5938
Q19.75 13.9062 21.25 12.5781
Q22.75 11.25 24.7656 10.4219
Q26.7969 9.59375 29.5938 9.59375
Q32.75 9.59375 35.0938 10.625
Q37.4531 11.6562 39.0156 13.2969
Q40.5938 14.9531 41.375 16.9688
Q42.1562 19 42.1562 21.0469
Q42.1562 23.6562 41.5938 25.7812
Q41.0469 27.9062 39.2969 29.4062
Q37.5469 30.9062 34.2656 31.75
Q31 32.5938 25.5 32.5938
L25.5 41.4062
Q30.0469 41.4531 33.0469 42.25
Q36.0469 43.0469 37.8125 44.4688
Q39.5938 45.9062 40.2969 47.9062
Q41 49.9062 41 52.2969
Q41 57.4531 38.2031 60.0781
Q35.4062 62.7031 30.5469 62.7031
Q26.1562 62.7031 23.25 60.375
Q20.3438 58.0469 19.2031 54.4062
Q18.5938 52.5 17.5469 51.6719
Q16.5 50.8438 14.7969 50.8438
Q14 50.8438 13.0938 51
L6.59375 52.1562
Q7.34375 57.3438 9.5 61.2656
Q11.6562 65.2031 14.875 67.8281
Q18.0938 70.4531 22.2656 71.7656
Q26.4531 73.0938 31.25 73.0938" id="Lato-Bold-33"/>
      </defs>
      <g style="fill:#262626;" transform="translate(150.566607143 250.9696875)scale(0.1 -0.1)">
       <use xlink:href="#Lato-Bold-33"/>
      </g>
     </g>
    </g>
    <g id="xtick_5">
     <g id="line2d_5">
      <g>
       <use style="fill:#262626;stroke:#262626;" x="177.541205357" xlink:href="#m44d4eda7dc" y="230.54"/>
      </g>
     </g>
     <g id="text_5">
      <!-- 4 -->
      <defs>
       <path d="
M47.0938 27.25
L56.2031 27.25
L56.2031 20.0938
Q56.2031 19.0938 55.5469 18.375
Q54.9062 17.6562 53.6562 17.6562
L47.0938 17.6562
L47.0938 0
L36.2969 0
L36.2969 17.6562
L5.79688 17.6562
Q4.54688 17.6562 3.59375 18.4219
Q2.65625 19.2031 2.40625 20.3438
L1.15625 26.5938
L35.4062 72.3438
L47.0938 72.3438
z

M36.2969 50.9062
Q36.2969 52.5 36.3906 54.3438
Q36.5 56.2031 36.75 58.2031
L14.2969 27.25
L36.2969 27.25
z
" id="Lato-Bold-34"/>
      </defs>
      <g style="fill:#262626;" transform="translate(174.788861607 250.9696875)scale(0.1 -0.1)">
       <use xlink:href="#Lato-Bold-34"/>
      </g>
     </g>
    </g>
    <g id="xtick_6">
     <g id="line2d_6">
      <g>
       <use style="fill:#262626;stroke:#262626;" x="202.015803571" xlink:href="#m44d4eda7dc" y="230.54"/>
      </g>
     </g>
     <g id="text_6">
      <!-- 5 -->
      <defs>
       <path d="
M49.4531 67.0469
Q49.4531 64.4062 47.7656 62.75
Q46.0938 61.0938 42.2031 61.0938
L22.2969 61.0938
L19.7031 46
Q24.5938 47 28.6562 47
Q34.3438 47 38.6719 45.2969
Q43 43.5938 45.9531 40.5938
Q48.9062 37.5938 50.4062 33.5625
Q51.9062 29.5469 51.9062 24.9062
Q51.9062 19.1562 49.875 14.4062
Q47.8438 9.65625 44.25 6.28125
Q40.6562 2.90625 35.7188 1.04688
Q30.7969 -0.796875 25 -0.796875
Q21.5938 -0.796875 18.5469 -0.09375
Q15.5 0.59375 12.8281 1.76562
Q10.1562 2.95312 7.875 4.46875
Q5.59375 6 3.79688 7.70312
L7.59375 12.9531
Q8.79688 14.6562 10.7969 14.6562
Q12.0469 14.6562 13.3125 13.8438
Q14.5938 13.0469 16.2969 12.0938
Q18 11.1562 20.25 10.3438
Q22.5 9.54688 25.7031 9.54688
Q29.0938 9.54688 31.6875 10.6406
Q34.2969 11.75 36.0156 13.7188
Q37.75 15.7031 38.625 18.4219
Q39.5 21.1562 39.5 24.3438
Q39.5 30.25 36.0781 33.5781
Q32.6562 36.9062 26 36.9062
Q20.75 36.9062 15.4531 35
L7.75 37.2031
L13.75 72.2969
L49.4531 72.2969
z
" id="Lato-Bold-35"/>
      </defs>
      <g style="fill:#262626;" transform="translate(199.610334821 250.9696875)scale(0.1 -0.1)">
       <use xlink:href="#Lato-Bold-35"/>
      </g>
     </g>
    </g>
    <g id="xtick_7">
     <g id="line2d_7">
      <g>
       <use style="fill:#262626;stroke:#262626;" x="226.490401786" xlink:href="#m44d4eda7dc" y="230.54"/>
      </g>
     </g>
     <g id="text_7">
      <!-- 6 -->
      <defs>
       <path d="
M33.5 45.1562
Q37.5938 45.1562 41.4688 43.7969
Q45.3438 42.4531 48.2969 39.7188
Q51.25 37 53.0469 32.9531
Q54.8438 28.9062 54.8438 23.5
Q54.8438 18.4531 53 14.0156
Q51.1562 9.59375 47.7969 6.29688
Q44.4531 3 39.7188 1.09375
Q35 -0.796875 29.2969 -0.796875
Q23.5 -0.796875 18.8906 1.04688
Q14.2969 2.90625 11.0469 6.21875
Q7.79688 9.54688 6.0625 14.2188
Q4.34375 18.9062 4.34375 24.5938
Q4.34375 29.7031 6.42188 35.0781
Q8.5 40.4531 12.8438 46.25
L30.0938 69.4062
Q31 70.5938 32.7188 71.4375
Q34.4531 72.2969 36.7031 72.2969
L47.7031 72.2969
L26.25 46.0469
Q25.5469 45.2031 24.9219 44.4531
Q24.2969 43.7031 23.7031 42.9062
Q25.7969 43.9531 28.2188 44.5469
Q30.6562 45.1562 33.5 45.1562
M16.2031 22.7031
Q16.2031 19.7031 17.0156 17.2188
Q17.8438 14.75 19.4688 13
Q21.0938 11.25 23.5 10.2656
Q25.9062 9.29688 29.0469 9.29688
Q32 9.29688 34.4688 10.2969
Q36.9531 11.2969 38.7188 13.0938
Q40.5 14.9062 41.5 17.3281
Q42.5 19.75 42.5 22.5938
Q42.5 25.7031 41.5469 28.1719
Q40.5938 30.6562 38.8438 32.375
Q37.0938 34.0938 34.6406 35
Q32.2031 35.9062 29.25 35.9062
Q26.2969 35.9062 23.8906 34.9062
Q21.5 33.9062 19.7656 32.125
Q18.0469 30.3438 17.125 27.9219
Q16.2031 25.5 16.2031 22.7031" id="Lato-Bold-36"/>
      </defs>
      <g style="fill:#262626;" transform="translate(223.965401786 250.9696875)scale(0.1 -0.1)">
       <use xlink:href="#Lato-Bold-36"/>
      </g>
     </g>
    </g>
    <g id="xtick_8">
     <g id="line2d_8">
      <g>
       <use style="fill:#262626;stroke:#262626;" x="250.965" xlink:href="#m44d4eda7dc" y="230.54"/>
      </g>
     </g>
     <g id="text_8">
      <!-- 7 -->
      <defs>
       <path d="
M54.7969 72.2969
L54.7969 66.9531
Q54.7969 64.5469 54.2656 63.0625
Q53.75 61.5938 53.25 60.5938
L25.9062 4.20312
Q25.0469 2.45312 23.5 1.21875
Q21.9531 0 19.2969 0
L10.3438 0
L38.3438 55.25
Q40.0938 58.6562 42.25 61.0938
L7.65625 61.0938
Q6.5 61.0938 5.64062 61.9375
Q4.79688 62.7969 4.79688 63.9531
L4.79688 72.2969
z
" id="Lato-Bold-37"/>
      </defs>
      <g style="fill:#262626;" transform="translate(248.465 250.9696875)scale(0.1 -0.1)">
       <use xlink:href="#Lato-Bold-37"/>
      </g>
     </g>
    </g>
   </g>
   <g id="matplotlib.axis_2">
    <g id="ytick_1">
     <g id="line2d_9">
      <defs>
       <path d="
M0 0
L-6 0" id="m0dfa6ce036" style="stroke:#262626;"/>
      </defs>
      <g>
       <use style="fill:#262626;stroke:#262626;" x="75.6428125" xlink:href="#m0dfa6ce036" y="226.54"/>
      </g>
     </g>
     <g id="text_9">
      <!-- 0 -->
      <g style="fill:#262626;" transform="translate(57.3428125 229.41734375)scale(0.1 -0.1)">
       <use xlink:href="#Lato-Bold-30"/>
      </g>
     </g>
    </g>
    <g id="ytick_2">
     <g id="line2d_10">
      <g>
       <use style="fill:#262626;stroke:#262626;" x="75.6428125" xlink:href="#m0dfa6ce036" y="190.944"/>
      </g>
     </g>
     <g id="text_10">
      <!-- 2000 -->
      <g style="fill:#262626;" transform="translate(40.113125 193.82134375)scale(0.1 -0.1)">
       <use xlink:href="#Lato-Bold-32"/>
       <use x="58.0" xlink:href="#Lato-Bold-30"/>
       <use x="116.0" xlink:href="#Lato-Bold-30"/>
       <use x="174.0" xlink:href="#Lato-Bold-30"/>
      </g>
     </g>
    </g>
    <g id="ytick_3">
     <g id="line2d_11">
      <g>
       <use style="fill:#262626;stroke:#262626;" x="75.6428125" xlink:href="#m0dfa6ce036" y="155.348"/>
      </g>
     </g>
     <g id="text_11">
      <!-- 4000 -->
      <g style="fill:#262626;" transform="translate(39.8084375 158.22534375)scale(0.1 -0.1)">
       <use xlink:href="#Lato-Bold-34"/>
       <use x="58.0" xlink:href="#Lato-Bold-30"/>
       <use x="116.0" xlink:href="#Lato-Bold-30"/>
       <use x="174.0" xlink:href="#Lato-Bold-30"/>
      </g>
     </g>
    </g>
    <g id="ytick_4">
     <g id="line2d_12">
      <g>
       <use style="fill:#262626;stroke:#262626;" x="75.6428125" xlink:href="#m0dfa6ce036" y="119.752"/>
      </g>
     </g>
     <g id="text_12">
      <!-- 6000 -->
      <g style="fill:#262626;" transform="translate(40.1271875 122.62934375)scale(0.1 -0.1)">
       <use xlink:href="#Lato-Bold-36"/>
       <use x="58.0" xlink:href="#Lato-Bold-30"/>
       <use x="116.0" xlink:href="#Lato-Bold-30"/>
       <use x="174.0" xlink:href="#Lato-Bold-30"/>
      </g>
     </g>
    </g>
    <g id="ytick_5">
     <g id="line2d_13">
      <g>
       <use style="fill:#262626;stroke:#262626;" x="75.6428125" xlink:href="#m0dfa6ce036" y="84.156"/>
      </g>
     </g>
     <g id="text_13">
      <!-- 8000 -->
      <defs>
       <path d="
M29 -0.796875
Q23.4062 -0.796875 18.7812 0.703125
Q14.1562 2.20312 10.8438 4.95312
Q7.54688 7.70312 5.71875 11.5938
Q3.90625 15.5 3.90625 20.2969
Q3.90625 26.7031 7.04688 31.125
Q10.2031 35.5469 16.8438 37.7031
Q11.5469 39.9062 8.92188 43.9531
Q6.29688 48 6.29688 53.7031
Q6.29688 57.7969 7.96875 61.3438
Q9.65625 64.9062 12.6562 67.5312
Q15.6562 70.1562 19.8281 71.625
Q24 73.0938 29 73.0938
Q34 73.0938 38.1719 71.625
Q42.3438 70.1562 45.3438 67.5312
Q48.3438 64.9062 50.0156 61.3438
Q51.7031 57.7969 51.7031 53.7031
Q51.7031 48 49.0469 43.9531
Q46.4062 39.9062 41.1562 37.7031
Q47.7969 35.5469 50.9375 31.125
Q54.0938 26.7031 54.0938 20.2969
Q54.0938 15.5 52.2656 11.5938
Q50.4531 7.70312 47.1406 4.95312
Q43.8438 2.20312 39.2188 0.703125
Q34.5938 -0.796875 29 -0.796875
M29 8.84375
Q32.0469 8.84375 34.3438 9.71875
Q36.6562 10.5938 38.2188 12.1406
Q39.7969 13.7031 40.5938 15.8438
Q41.4062 18 41.4062 20.5
Q41.4062 26.4531 38.0938 29.5
Q34.7969 32.5469 29 32.5469
Q23.2031 32.5469 19.8906 29.5
Q16.5938 26.4531 16.5938 20.5
Q16.5938 18 17.3906 15.8438
Q18.2031 13.7031 19.7656 12.1406
Q21.3438 10.5938 23.6406 9.71875
Q25.9531 8.84375 29 8.84375
M29 42.25
Q32 42.25 34.0469 43.2031
Q36.0938 44.1562 37.3438 45.7188
Q38.5938 47.2969 39.125 49.3125
Q39.6562 51.3438 39.6562 53.5
Q39.6562 55.5469 39 57.3906
Q38.3438 59.25 37.0469 60.6719
Q35.75 62.0938 33.75 62.9375
Q31.75 63.7969 29 63.7969
Q26.25 63.7969 24.25 62.9375
Q22.25 62.0938 20.9219 60.6719
Q19.5938 59.25 18.9688 57.3906
Q18.3438 55.5469 18.3438 53.5
Q18.3438 51.3438 18.875 49.3125
Q19.4062 47.2969 20.6562 45.7188
Q21.9062 44.1562 23.9531 43.2031
Q26 42.25 29 42.25" id="Lato-Bold-38"/>
      </defs>
      <g style="fill:#262626;" transform="translate(40.0834375 87.03334375)scale(0.1 -0.1)">
       <use xlink:href="#Lato-Bold-38"/>
       <use x="58.0" xlink:href="#Lato-Bold-30"/>
       <use x="116.0" xlink:href="#Lato-Bold-30"/>
       <use x="174.0" xlink:href="#Lato-Bold-30"/>
      </g>
     </g>
    </g>
    <g id="ytick_6">
     <g id="line2d_14">
      <g>
       <use style="fill:#262626;stroke:#262626;" x="75.6428125" xlink:href="#m0dfa6ce036" y="48.56"/>
      </g>
     </g>
     <g id="text_14">
      <!-- 10000 -->
      <g style="fill:#262626;" transform="translate(34.7178125 51.43734375)scale(0.1 -0.1)">
       <use xlink:href="#Lato-Bold-31"/>
       <use x="58.0" xlink:href="#Lato-Bold-30"/>
       <use x="116.0" xlink:href="#Lato-Bold-30"/>
       <use x="174.0" xlink:href="#Lato-Bold-30"/>
       <use x="232.0" xlink:href="#Lato-Bold-30"/>
      </g>
     </g>
    </g>
   </g>
   <g id="line2d_15">
    <path clip-path="url(#pa5675e0e1b)" d="
M104.117 212.141
L128.592 214.722
L153.067 220.079
L177.541 220.204
L202.016 222.375
L226.49 221.984
L250.965 222.963" style="fill:none;stroke:#008066;stroke-linecap:round;stroke-width:1.75;"/>
   </g>
   <g id="line2d_16">
    <path clip-path="url(#pa5675e0e1b)" d="
M79.6428 144.883
L104.117 213.138
L128.592 209.97
L153.067 217.214
L177.541 218.655
L202.016 220.542
L226.49 221.61
L250.965 222.464" style="fill:none;stroke:#008066;stroke-linecap:round;stroke-width:1.75;"/>
   </g>
   <g id="line2d_17">
    <path clip-path="url(#pa5675e0e1b)" d="
M79.6428 58.0641
L104.117 198.846
L128.592 195.269
L153.067 207.71
L177.541 210.326
L202.016 214.331
L226.49 215.968
L250.965 217.961" style="fill:none;stroke:#008066;stroke-linecap:round;stroke-width:1.75;"/>
   </g>
   <g id="line2d_18">
    <path clip-path="url(#pa5675e0e1b)" d="
M79.6428 138.885
L104.117 211.198
L128.592 209.97
L153.067 216.698
L177.541 218.46
L202.016 220.151
L226.49 221.61
L250.965 221.788" style="fill:none;stroke:#008066;stroke-linecap:round;stroke-width:1.75;"/>
   </g>
   <g id="line2d_19">
    <path clip-path="url(#pa5675e0e1b)" d="
M79.6428 184.288
L104.117 219.777
L128.592 220.56
L153.067 223.265
L177.541 223.781
L202.016 224.102
L226.49 224.404
L250.965 224.671" style="fill:none;stroke:#008066;stroke-linecap:round;stroke-width:1.75;"/>
   </g>
   <g id="line2d_20">
    <path clip-path="url(#pa5675e0e1b)" d="
M79.6428 57.9217
L104.117 199.202
L128.592 193.258
L153.067 205.912
L177.541 209.24
L202.016 214.509
L226.49 216.52
L250.965 217.41" style="fill:none;stroke:#008066;stroke-linecap:round;stroke-width:1.75;"/>
   </g>
   <g id="line2d_21">
    <path clip-path="url(#pa5675e0e1b)" d="
M79.6428 56.0352
L104.117 197.476
L128.592 202.673
L153.067 213.245
L177.541 215.007
L202.016 217.801
L226.49 217.908
L250.965 219.243" style="fill:none;stroke:#008066;stroke-linecap:round;stroke-width:1.75;"/>
   </g>
   <g id="line2d_22">
    <path clip-path="url(#pa5675e0e1b)" d="
M79.6428 141.038
L104.117 212.48
L128.592 214.9
L153.067 219.83
L177.541 221.147
L202.016 222.019
L226.49 222.09
L250.965 222.98" style="fill:none;stroke:#008066;stroke-linecap:round;stroke-width:1.75;"/>
   </g>
   <g id="line2d_23">
    <path clip-path="url(#pa5675e0e1b)" d="
M79.6428 226.54
L104.117 212.07
L128.592 219.652
L153.067 218.887
L177.541 220.951
L202.016 221.468
L226.49 222.002
L250.965 222.482" style="fill:none;stroke:#ff1500;stroke-linecap:round;stroke-width:1.75;"/>
   </g>
   <g id="line2d_24">
    <path clip-path="url(#pa5675e0e1b)" d="
M79.6428 226.54
L104.117 212.248
L128.592 219.634
L153.067 218.691
L177.541 221.147
L202.016 221.396
L226.49 222.055
L250.965 222.34" style="fill:none;stroke:#ff1500;stroke-linecap:round;stroke-width:1.75;"/>
   </g>
   <g id="line2d_25">
    <path clip-path="url(#pa5675e0e1b)" d="
M79.6428 226.54
L104.117 172.256
L128.592 199.736
L153.067 203.794
L177.541 210.611
L202.016 212.925
L226.49 215.737
L250.965 216.947" style="fill:none;stroke:#ff2a00;stroke-linecap:round;stroke-width:1.75;"/>
   </g>
   <g id="line2d_26">
    <path clip-path="url(#pa5675e0e1b)" d="
M79.6428 226.54
L104.117 198.811
L128.592 212.213
L153.067 212.23
L177.541 215.701
L202.016 216.182
L226.49 217.427
L250.965 218.691" style="fill:none;stroke:#ff1500;stroke-linecap:round;stroke-width:1.75;"/>
   </g>
   <g id="line2d_27">
    <path clip-path="url(#pa5675e0e1b)" d="
M79.6428 226.54
L104.117 198.081
L128.592 212.408
L153.067 212.302
L177.541 215.523
L202.016 216.004
L226.49 217.659
L250.965 218.406" style="fill:none;stroke:#ff1500;stroke-linecap:round;stroke-width:1.75;"/>
   </g>
   <g id="line2d_28">
    <path clip-path="url(#pa5675e0e1b)" d="
M79.6428 226.54
L104.117 199.291
L128.592 212.159
L153.067 214.277
L177.541 217.499
L202.016 218.05
L226.49 219.1
L250.965 218.033" style="fill:none;stroke:#ff0000;stroke-linecap:round;stroke-width:1.75;"/>
   </g>
   <g id="line2d_29">
    <path clip-path="url(#pa5675e0e1b)" d="
M79.6428 226.54
L104.117 211.91
L128.592 219.403
L153.067 218.709
L177.541 220.649
L202.016 221.29
L226.49 221.895
L250.965 222.749" style="fill:none;stroke:#ff1500;stroke-linecap:round;stroke-width:1.75;"/>
   </g>
   <g id="line2d_30">
    <path clip-path="url(#pa5675e0e1b)" d="
M79.6428 226.54
L104.117 212.497
L128.592 218.922
L153.067 219.795
L177.541 220.827
L202.016 221.699
L226.49 221.521
L250.965 221.895" style="fill:none;stroke:#ff1500;stroke-linecap:round;stroke-width:1.75;"/>
   </g>
   <g id="line2d_31">
    <path clip-path="url(#pa5675e0e1b)" d="
M79.6428 226.54
L104.117 198.615
L128.592 213.014
L153.067 211.536
L177.541 215.719
L202.016 215.932
L226.49 216.431
L250.965 218.62" style="fill:none;stroke:#ff1500;stroke-linecap:round;stroke-width:1.75;"/>
   </g>
   <g id="line2d_32">
    <path clip-path="url(#pa5675e0e1b)" d="
M79.6428 226.54
L104.117 197.689
L128.592 211.59
L153.067 212.996
L177.541 216.502
L202.016 216.733
L226.49 218.584
L250.965 218.94" style="fill:none;stroke:#ff0000;stroke-linecap:round;stroke-width:1.75;"/>
   </g>
   <g id="line2d_33">
    <path clip-path="url(#pa5675e0e1b)" d="
M79.6428 226.54
L104.117 111.049
L128.592 168.768
L153.067 179.037
L177.541 193.204
L202.016 198.918
L226.49 202.975
L250.965 207.336" style="fill:none;stroke:#ff2a00;stroke-linecap:round;stroke-width:1.75;"/>
   </g>
   <g id="line2d_34">
    <path clip-path="url(#pa5675e0e1b)" d="
M79.6428 226.54
L104.117 197.369
L128.592 212.035
L153.067 212.942
L177.541 215.559
L202.016 216.947
L226.49 218.673
L250.965 218.869" style="fill:none;stroke:#ff0000;stroke-linecap:round;stroke-width:1.75;"/>
   </g>
   <g id="line2d_35">
    <path clip-path="url(#pa5675e0e1b)" d="
M79.6428 226.54
L104.117 197.974
L128.592 212.533
L153.067 211.269
L177.541 215.149
L202.016 215.808
L226.49 217.303
L250.965 218.709" style="fill:none;stroke:#ff1500;stroke-linecap:round;stroke-width:1.75;"/>
   </g>
   <g id="line2d_36">
    <path clip-path="url(#pa5675e0e1b)" d="
M79.6428 226.54
L104.117 199.327
L128.592 212.48
L153.067 211.002
L177.541 215.665
L202.016 216.199
L226.49 217.677
L250.965 217.677" style="fill:none;stroke:#ff1500;stroke-linecap:round;stroke-width:1.75;"/>
   </g>
   <g id="line2d_37">
    <path clip-path="url(#pa5675e0e1b)" d="
M79.6428 226.54
L104.117 198.419
L128.592 212.141
L153.067 211.928
L177.541 213.939
L202.016 216.146
L226.49 217.516
L250.965 218.495" style="fill:none;stroke:#ff1500;stroke-linecap:round;stroke-width:1.75;"/>
   </g>
   <g id="line2d_38">
    <path clip-path="url(#pa5675e0e1b)" d="
M79.6428 226.54
L104.117 169.391
L128.592 197.351
L153.067 197.031
L177.541 203.581
L202.016 205.574
L226.49 208.03
L250.965 209.312" style="fill:none;stroke:#ff1500;stroke-linecap:round;stroke-width:1.75;"/>
   </g>
   <g id="line2d_39">
    <path clip-path="url(#pa5675e0e1b)" d="
M79.6428 226.54
L104.117 197.209
L128.592 211.946
L153.067 212.195
L177.541 214.829
L202.016 216.377
L226.49 217.178
L250.965 217.659" style="fill:none;stroke:#ff1500;stroke-linecap:round;stroke-width:1.75;"/>
   </g>
   <g id="line2d_40">
    <path clip-path="url(#pa5675e0e1b)" d="
M79.6428 226.54
L104.117 198.544
L128.592 212.266
L153.067 211.981
L177.541 215.203
L202.016 215.932
L226.49 217.588
L250.965 217.659" style="fill:none;stroke:#ff1500;stroke-linecap:round;stroke-width:1.75;"/>
   </g>
   <g id="line2d_41">
    <path clip-path="url(#pa5675e0e1b)" d="
M79.6428 226.54
L104.117 226.54
L128.592 216.911
L153.067 221.752
L177.541 220.471
L202.016 222.197
L226.49 222.5
L250.965 222.874" style="fill:none;stroke:#0055d4;stroke-linecap:round;stroke-width:1.75;"/>
   </g>
   <g id="line2d_42">
    <path clip-path="url(#pa5675e0e1b)" d="
M79.6428 226.54
L104.117 226.54
L128.592 216.698
L153.067 218.638
L177.541 218.816
L202.016 219.652
L226.49 219.243
L250.965 219.456" style="fill:none;stroke:#001cf1;stroke-linecap:round;stroke-width:1.75;"/>
   </g>
   <g id="line2d_43">
    <path clip-path="url(#pa5675e0e1b)" d="
M79.6428 226.54
L104.117 226.54
L128.592 222.073
L153.067 221.29
L177.541 219.545
L202.016 219.51
L226.49 219.154
L250.965 219.456" style="fill:none;stroke:#0038e3;stroke-linecap:round;stroke-width:1.75;"/>
   </g>
   <g id="line2d_44">
    <path clip-path="url(#pa5675e0e1b)" d="
M79.6428 226.54
L104.117 226.54
L128.592 217.356
L153.067 218.727
L177.541 217.73
L202.016 219.225
L226.49 219.474
L250.965 219.777" style="fill:none;stroke:#001cf1;stroke-linecap:round;stroke-width:1.75;"/>
   </g>
   <g id="line2d_45">
    <path clip-path="url(#pa5675e0e1b)" d="
M79.6428 226.54
L104.117 226.54
L128.592 221.877
L153.067 221.61
L177.541 219.439
L202.016 218.762
L226.49 219.207
L250.965 219.403" style="fill:none;stroke:#0038e3;stroke-linecap:round;stroke-width:1.75;"/>
   </g>
   <g id="line2d_46">
    <path clip-path="url(#pa5675e0e1b)" d="
M79.6428 226.54
L104.117 226.54
L128.592 221.859
L153.067 221.628
L177.541 220.827
L202.016 220.364
L226.49 219.83
L250.965 219.723" style="fill:none;stroke:#001cf1;stroke-linecap:round;stroke-width:1.75;"/>
   </g>
   <g id="line2d_47">
    <path clip-path="url(#pa5675e0e1b)" d="
M79.6428 226.54
L104.117 226.54
L128.592 222.108
L153.067 221.895
L177.541 220.773
L202.016 220.062
L226.49 219.973
L250.965 220.168" style="fill:none;stroke:#001cf1;stroke-linecap:round;stroke-width:1.75;"/>
   </g>
   <g id="line2d_48">
    <path clip-path="url(#pa5675e0e1b)" d="
M79.6428 226.54
L104.117 226.54
L128.592 208.938
L153.067 216.217
L177.541 215.327
L202.016 217.926
L226.49 218.317
L250.965 218.798" style="fill:none;stroke:#0055d4;stroke-linecap:round;stroke-width:1.75;"/>
   </g>
   <g id="line2d_49">
    <path clip-path="url(#pa5675e0e1b)" d="
M79.6428 226.54
L104.117 226.54
L128.592 222.215
L153.067 222.286
L177.541 220.631
L202.016 221.147
L226.49 220.097
L250.965 219.759" style="fill:none;stroke:#001cf1;stroke-linecap:round;stroke-width:1.75;"/>
   </g>
   <g id="line2d_50">
    <path clip-path="url(#pa5675e0e1b)" d="
M79.6428 226.54
L104.117 226.54
L128.592 221.592
L153.067 221.379
L177.541 220.987
L202.016 219.955
L226.49 220.578
L250.965 219.812" style="fill:none;stroke:#001cf1;stroke-linecap:round;stroke-width:1.75;"/>
   </g>
   <g id="line2d_51">
    <path clip-path="url(#pa5675e0e1b)" d="
M79.6428 226.54
L104.117 226.54
L128.592 221.61
L153.067 221.076
L177.541 219.1
L202.016 219.884
L226.49 219.439
L250.965 219.367" style="fill:none;stroke:#0038e3;stroke-linecap:round;stroke-width:1.75;"/>
   </g>
   <g id="line2d_52">
    <path clip-path="url(#pa5675e0e1b)" d="
M79.6428 226.54
L104.117 226.54
L128.592 217.392
L153.067 222.019
L177.541 221.112
L202.016 222.108
L226.49 222.304
L250.965 222.642" style="fill:none;stroke:#0038e3;stroke-linecap:round;stroke-width:1.75;"/>
   </g>
   <g id="line2d_53">
    <path clip-path="url(#pa5675e0e1b)" d="
M79.6428 226.54
L104.117 226.54
L128.592 221.93
L153.067 223.906
L177.541 223.639
L202.016 224.066
L226.49 224.155
L250.965 224.422" style="fill:none;stroke:#0038e3;stroke-linecap:round;stroke-width:1.75;"/>
   </g>
   <g id="line2d_54">
    <path clip-path="url(#pa5675e0e1b)" d="
M79.6428 226.54
L104.117 226.54
L128.592 221.361
L153.067 220.649
L177.541 219.314
L202.016 219.634
L226.49 219.795
L250.965 219.83" style="fill:none;stroke:#0038e3;stroke-linecap:round;stroke-width:1.75;"/>
   </g>
   <g id="line2d_55">
    <path clip-path="url(#pa5675e0e1b)" d="
M79.6428 226.54
L104.117 226.54
L128.592 217.837
L153.067 221.61
L177.541 220.987
L202.016 222.002
L226.49 222.09
L250.965 222.464" style="fill:none;stroke:#0055d4;stroke-linecap:round;stroke-width:1.75;"/>
   </g>
   <g id="line2d_56">
    <path clip-path="url(#pa5675e0e1b)" d="
M79.6428 226.54
L104.117 226.54
L128.592 207.016
L153.067 211.056
L177.541 210.379
L202.016 210.468
L226.49 211.857
L250.965 210.557" style="fill:none;stroke:#001cf1;stroke-linecap:round;stroke-width:1.75;"/>
   </g>
   <g id="line2d_57">
    <path clip-path="url(#pa5675e0e1b)" d="
M79.6428 226.54
L104.117 226.54
L128.592 216.716
L153.067 216.84
L177.541 215.131
L202.016 214.242
L226.49 213.619
L250.965 213.28" style="fill:none;stroke:#001cf1;stroke-linecap:round;stroke-width:1.75;"/>
   </g>
   <g id="line2d_58">
    <path clip-path="url(#pa5675e0e1b)" d="
M79.6428 226.54
L104.117 226.54
L128.592 206.855
L153.067 210.486
L177.541 209.792
L202.016 210.629
L226.49 211.839
L250.965 211.163" style="fill:none;stroke:#001cf1;stroke-linecap:round;stroke-width:1.75;"/>
   </g>
   <g id="line2d_59">
    <path clip-path="url(#pa5675e0e1b)" d="
M79.6428 226.54
L104.117 226.54
L128.592 217.338
L153.067 217.036
L177.541 214.064
L202.016 214.224
L226.49 213.53
L250.965 213.601" style="fill:none;stroke:#001cf1;stroke-linecap:round;stroke-width:1.75;"/>
   </g>
   <g id="line2d_60">
    <path clip-path="url(#pa5675e0e1b)" d="
M79.6428 226.54
L104.117 226.54
L128.592 207.763
L153.067 216.876
L177.541 215.47
L202.016 217.427
L226.49 217.837
L250.965 217.819" style="fill:none;stroke:#0055d4;stroke-linecap:round;stroke-width:1.75;"/>
   </g>
   <g id="line2d_61">
    <path clip-path="url(#pa5675e0e1b)" d="
M79.6428 226.54
L104.117 226.54
L128.592 216.822
L153.067 215.505
L177.541 212.658
L202.016 212.515
L226.49 211.857
L250.965 212.177" style="fill:none;stroke:#0038e3;stroke-linecap:round;stroke-width:1.75;"/>
   </g>
   <g id="line2d_62">
    <path clip-path="url(#pa5675e0e1b)" d="
M79.6428 226.54
L104.117 226.54
L128.592 217.107
L153.067 216.377
L177.541 213.903
L202.016 213.654
L226.49 213.263
L250.965 213.067" style="fill:none;stroke:#001cf1;stroke-linecap:round;stroke-width:1.75;"/>
   </g>
   <g id="line2d_63">
    <path clip-path="url(#pa5675e0e1b)" d="
M79.6428 226.54
L104.117 226.54
L128.592 216.324
L153.067 216.947
L177.541 214.313
L202.016 214.081
L226.49 213.886
L250.965 213.049" style="fill:none;stroke:#001cf1;stroke-linecap:round;stroke-width:1.75;"/>
   </g>
   <g id="line2d_64">
    <path clip-path="url(#pa5675e0e1b)" d="
M79.6428 226.54
L104.117 226.54
L128.592 207.674
L153.067 210.379
L177.541 208.884
L202.016 210.415
L226.49 211.429
L250.965 211.572" style="fill:none;stroke:#001cf1;stroke-linecap:round;stroke-width:1.75;"/>
   </g>
   <g id="line2d_65">
    <path clip-path="url(#pa5675e0e1b)" d="
M79.6428 226.54
L104.117 226.54
L128.592 208.528
L153.067 210.949
L177.541 208.938
L202.016 211.074
L226.49 210.415
L250.965 211.447" style="fill:none;stroke:#001cf1;stroke-linecap:round;stroke-width:1.75;"/>
   </g>
   <g id="line2d_66">
    <path clip-path="url(#pa5675e0e1b)" d="
M79.6428 226.54
L104.117 226.54
L128.592 206.909
L153.067 209.774
L177.541 208.76
L202.016 210.148
L226.49 209.828
L250.965 210.789" style="fill:none;stroke:#001cf1;stroke-linecap:round;stroke-width:1.75;"/>
   </g>
   <g id="line2d_67">
    <path clip-path="url(#pa5675e0e1b)" d="
M79.6428 226.54
L104.117 226.54
L128.592 226.54
L153.067 221.592
L177.541 222.215
L202.016 220.72
L226.49 220.311
L250.965 220.062" style="fill:none;stroke:#4ab5ff;stroke-linecap:round;stroke-width:1.75;"/>
   </g>
   <g id="line2d_68">
    <path clip-path="url(#pa5675e0e1b)" d="
M79.6428 226.54
L104.117 226.54
L128.592 226.54
L153.067 223.39
L177.541 222.945
L202.016 221.04
L226.49 220.738
L250.965 220.489" style="fill:none;stroke:#40bfff;stroke-linecap:round;stroke-width:1.75;"/>
   </g>
   <g id="line2d_69">
    <path clip-path="url(#pa5675e0e1b)" d="
M79.6428 226.54
L104.117 226.54
L128.592 226.54
L153.067 222.34
L177.541 221.468
L202.016 220.524
L226.49 220.595
L250.965 219.83" style="fill:none;stroke:#4ab5ff;stroke-linecap:round;stroke-width:1.75;"/>
   </g>
   <g id="line2d_70">
    <path clip-path="url(#pa5675e0e1b)" d="
M79.6428 226.54
L104.117 226.54
L128.592 226.54
L153.067 225.65
L177.541 223.514
L202.016 222.126
L226.49 220.827
L250.965 220.791" style="fill:none;stroke:#40bfff;stroke-linecap:round;stroke-width:1.75;"/>
   </g>
   <g id="line2d_71">
    <path clip-path="url(#pa5675e0e1b)" d="
M79.6428 226.54
L104.117 226.54
L128.592 226.54
L153.067 225.775
L177.541 223.23
L202.016 222.429
L226.49 221.521
L250.965 220.684" style="fill:none;stroke:#40bfff;stroke-linecap:round;stroke-width:1.75;"/>
   </g>
   <g id="line2d_72">
    <path clip-path="url(#pa5675e0e1b)" d="
M79.6428 226.54
L104.117 226.54
L128.592 226.54
L153.067 221.859
L177.541 222.66
L202.016 220.489
L226.49 220.24
L250.965 220.062" style="fill:none;stroke:#4ab5ff;stroke-linecap:round;stroke-width:1.75;"/>
   </g>
   <g id="line2d_73">
    <path clip-path="url(#pa5675e0e1b)" d="
M79.6428 226.54
L104.117 226.54
L128.592 226.54
L153.067 222.162
L177.541 222.162
L202.016 220.489
L226.49 220.044
L250.965 220.471" style="fill:none;stroke:#4ab5ff;stroke-linecap:round;stroke-width:1.75;"/>
   </g>
   <g id="line2d_74">
    <path clip-path="url(#pa5675e0e1b)" d="
M79.6428 226.54
L104.117 226.54
L128.592 226.54
L153.067 225.899
L177.541 223.194
L202.016 222.767
L226.49 221.45
L250.965 220.578" style="fill:none;stroke:#40bfff;stroke-linecap:round;stroke-width:1.75;"/>
   </g>
   <g id="line2d_75">
    <path clip-path="url(#pa5675e0e1b)" d="
M79.6428 226.54
L104.117 226.54
L128.592 226.54
L153.067 221.77
L177.541 221.735
L202.016 220.328
L226.49 220.56
L250.965 220.24" style="fill:none;stroke:#4ab5ff;stroke-linecap:round;stroke-width:1.75;"/>
   </g>
   <g id="line2d_76">
    <path clip-path="url(#pa5675e0e1b)" d="
M79.6428 226.54
L104.117 226.54
L128.592 226.54
L153.067 221.646
L177.541 222.251
L202.016 220.471
L226.49 220.186
L250.965 220.382" style="fill:none;stroke:#4ab5ff;stroke-linecap:round;stroke-width:1.75;"/>
   </g>
   <g id="line2d_77">
    <path clip-path="url(#pa5675e0e1b)" d="
M79.6428 226.54
L104.117 226.54
L128.592 226.54
L153.067 222.019
L177.541 221.77
L202.016 219.884
L226.49 220.453
L250.965 219.528" style="fill:none;stroke:#40bfff;stroke-linecap:round;stroke-width:1.75;"/>
   </g>
   <g id="line2d_78">
    <path clip-path="url(#pa5675e0e1b)" d="
M79.6428 226.54
L104.117 226.54
L128.592 226.54
L153.067 221.984
L177.541 221.984
L202.016 219.955
L226.49 220.524
L250.965 219.848" style="fill:none;stroke:#4ab5ff;stroke-linecap:round;stroke-width:1.75;"/>
   </g>
   <g id="line2d_79">
    <path clip-path="url(#pa5675e0e1b)" d="
M79.6428 226.54
L104.117 226.54
L128.592 226.54
L153.067 222.126
L177.541 221.717
L202.016 220.595
L226.49 219.777
L250.965 219.421" style="fill:none;stroke:#4ab5ff;stroke-linecap:round;stroke-width:1.75;"/>
   </g>
   <g id="line2d_80">
    <path clip-path="url(#pa5675e0e1b)" d="
M79.6428 226.54
L104.117 226.54
L128.592 226.54
L153.067 225.864
L177.541 223.212
L202.016 221.913
L226.49 221.147
L250.965 220.186" style="fill:none;stroke:#40bfff;stroke-linecap:round;stroke-width:1.75;"/>
   </g>
   <g id="line2d_81">
    <path clip-path="url(#pa5675e0e1b)" d="
M79.6428 226.54
L104.117 226.54
L128.592 226.54
L153.067 219.723
L177.541 219.456
L202.016 217.427
L226.49 215.772
L250.965 215.007" style="fill:none;stroke:#40bfff;stroke-linecap:round;stroke-width:1.75;"/>
   </g>
   <g id="line2d_82">
    <path clip-path="url(#pa5675e0e1b)" d="
M79.6428 226.54
L104.117 226.54
L128.592 226.54
L153.067 217.267
L177.541 217.196
L202.016 215.025
L226.49 213.654
L250.965 214.028" style="fill:none;stroke:#4ab5ff;stroke-linecap:round;stroke-width:1.75;"/>
   </g>
   <g id="line2d_83">
    <path clip-path="url(#pa5675e0e1b)" d="
M79.6428 226.54
L104.117 226.54
L128.592 226.54
L153.067 224.92
L177.541 220.346
L202.016 219.1
L226.49 216.591
L250.965 215.203" style="fill:none;stroke:#40bfff;stroke-linecap:round;stroke-width:1.75;"/>
   </g>
   <g id="line2d_84">
    <path clip-path="url(#pa5675e0e1b)" d="
M79.6428 226.54
L104.117 226.54
L128.592 226.54
L153.067 216.662
L177.541 217.018
L202.016 214.509
L226.49 213.832
L250.965 212.907" style="fill:none;stroke:#4ab5ff;stroke-linecap:round;stroke-width:1.75;"/>
   </g>
   <g id="line2d_85">
    <path clip-path="url(#pa5675e0e1b)" d="
M79.6428 226.54
L104.117 226.54
L128.592 226.54
L153.067 222.98
L177.541 219.314
L202.016 217.071
L226.49 215.559
L250.965 215.06" style="fill:none;stroke:#40bfff;stroke-linecap:round;stroke-width:1.75;"/>
   </g>
   <g id="line2d_86">
    <path clip-path="url(#pa5675e0e1b)" d="
M79.6428 226.54
L104.117 226.54
L128.592 226.54
L153.067 220.595
L177.541 220.097
L202.016 217.712
L226.49 216.075
L250.965 214.74" style="fill:none;stroke:#35caff;stroke-linecap:round;stroke-width:1.75;"/>
   </g>
   <g id="line2d_87">
    <path clip-path="url(#pa5675e0e1b)" d="
M79.6428 226.54
L104.117 226.54
L128.592 226.54
L153.067 223.425
L177.541 218.851
L202.016 217.445
L226.49 214.936
L250.965 214.918" style="fill:none;stroke:#40bfff;stroke-linecap:round;stroke-width:1.75;"/>
   </g>
   <g id="line2d_88">
    <path clip-path="url(#pa5675e0e1b)" d="
M79.6428 226.54
L104.117 226.54
L128.592 226.54
L153.067 222.998
L177.541 219.332
L202.016 217.427
L226.49 215.274
L250.965 213.441" style="fill:none;stroke:#40bfff;stroke-linecap:round;stroke-width:1.75;"/>
   </g>
   <g id="line2d_89">
    <path clip-path="url(#pa5675e0e1b)" d="
M79.6428 226.54
L104.117 226.54
L128.592 226.54
L153.067 223.141
L177.541 223.052
L202.016 221.218
L226.49 220.898
L250.965 219.901" style="fill:none;stroke:#35caff;stroke-linecap:round;stroke-width:1.75;"/>
   </g>
   <g id="line2d_90">
    <path clip-path="url(#pa5675e0e1b)" d="
M79.6428 226.54
L104.117 226.54
L128.592 226.54
L153.067 226.54
L177.541 224.6
L202.016 223.372
L226.49 222.055
L250.965 221.129" style="fill:none;stroke:#69422a;stroke-linecap:round;stroke-width:1.75;"/>
   </g>
   <g id="line2d_91">
    <path clip-path="url(#pa5675e0e1b)" d="
M79.6428 226.54
L104.117 226.54
L128.592 226.54
L153.067 226.54
L177.541 224.333
L202.016 223.247
L226.49 222.162
L250.965 221.485" style="fill:none;stroke:#69422a;stroke-linecap:round;stroke-width:1.75;"/>
   </g>
   <g id="line2d_92">
    <path clip-path="url(#pa5675e0e1b)" d="
M79.6428 226.54
L104.117 226.54
L128.592 226.54
L153.067 226.54
L177.541 224.119
L202.016 222.66
L226.49 221.325
L250.965 220.72" style="fill:none;stroke:#69422a;stroke-linecap:round;stroke-width:1.75;"/>
   </g>
   <g id="patch_3">
    <path d="
M79.6428 230.54
L250.965 230.54" style="fill:none;stroke:#262626;stroke-linecap:square;stroke-linejoin:miter;stroke-width:1.25;"/>
   </g>
   <g id="patch_4">
    <path d="
M75.6428 226.54
L75.6428 48.56" style="fill:none;stroke:#262626;stroke-linecap:square;stroke-linejoin:miter;stroke-width:1.25;"/>
   </g>
   <g id="text_15">
    <!-- deg1 = 6,  deg2 = 6 -->
    <defs>
     <path id="Lato-Bold-20"/>
     <path d="
M24.3438 52.2031
Q27.6562 52.2031 30.5469 51.5156
Q33.4531 50.8438 35.8438 49.5469
L50.5938 49.5469
L50.5938 44.9531
Q50.5938 43.7969 50 43.1406
Q49.4062 42.5 47.9531 42.25
L43.3438 41.4062
Q43.8438 40.0938 44.125 38.6406
Q44.4062 37.2031 44.4062 35.5938
Q44.4062 31.7969 42.875 28.7188
Q41.3438 25.6562 38.6719 23.5
Q36 21.3438 32.3281 20.1719
Q28.6562 19 24.3438 19
Q21.4531 19 18.7031 19.5469
Q16.2969 18.0938 16.2969 16.2969
Q16.2969 14.75 17.7188 14.0156
Q19.1562 13.2969 21.4688 13
Q23.7969 12.7031 26.75 12.625
Q29.7031 12.5469 32.7969 12.2969
Q35.9062 12.0469 38.8438 11.4219
Q41.7969 10.7969 44.125 9.4375
Q46.4531 8.09375 47.875 5.76562
Q49.2969 3.45312 49.2969 -0.203125
Q49.2969 -3.59375 47.625 -6.79688
Q45.9531 -10 42.7656 -12.5
Q39.5938 -15 35 -16.5156
Q30.4062 -18.0469 24.5 -18.0469
Q18.6562 -18.0469 14.3438 -16.9219
Q10.0469 -15.7969 7.21875 -13.9219
Q4.40625 -12.0469 3 -9.59375
Q1.59375 -7.15625 1.59375 -4.5
Q1.59375 -0.90625 3.79688 1.54688
Q6 4 9.90625 5.45312
Q8 6.5 6.84375 8.25
Q5.70312 10 5.70312 12.7969
Q5.70312 13.9531 6.09375 15.1719
Q6.5 16.4062 7.32812 17.5938
Q8.15625 18.7969 9.40625 19.875
Q10.6562 20.9531 12.3438 21.7969
Q8.45312 23.9062 6.21875 27.4062
Q4 30.9062 4 35.5938
Q4 39.4062 5.51562 42.4688
Q7.04688 45.5469 9.76562 47.7188
Q12.5 49.9062 16.2188 51.0469
Q19.9531 52.2031 24.3438 52.2031
M37.9062 -2.29688
Q37.9062 -0.796875 37 0.140625
Q36.0938 1.09375 34.5469 1.625
Q33 2.15625 30.9219 2.40625
Q28.8438 2.65625 26.5156 2.78125
Q24.2031 2.90625 21.7188 3.03125
Q19.25 3.15625 16.9531 3.45312
Q14.8438 2.29688 13.5625 0.71875
Q12.2969 -0.84375 12.2969 -2.90625
Q12.2969 -4.25 12.9688 -5.42188
Q13.6562 -6.59375 15.125 -7.4375
Q16.5938 -8.29688 18.9375 -8.76562
Q21.2969 -9.25 24.7031 -9.25
Q28.1562 -9.25 30.6562 -8.71875
Q33.1562 -8.20312 34.7812 -7.26562
Q36.4062 -6.34375 37.1562 -5.0625
Q37.9062 -3.79688 37.9062 -2.29688
M24.3438 26.9062
Q26.6562 26.9062 28.3438 27.5312
Q30.0469 28.1562 31.1719 29.25
Q32.2969 30.3438 32.875 31.8906
Q33.4531 33.4531 33.4531 35.2969
Q33.4531 39.0938 31.1719 41.3125
Q28.9062 43.5469 24.3438 43.5469
Q19.7969 43.5469 17.5156 41.3125
Q15.25 39.0938 15.25 35.2969
Q15.25 33.5 15.8281 31.9531
Q16.4062 30.4062 17.5312 29.2812
Q18.6562 28.1562 20.375 27.5312
Q22.0938 26.9062 24.3438 26.9062" id="Lato-Bold-67"/>
     <path d="
M4 7.59375
Q4 9 4.51562 10.2188
Q5.04688 11.4531 6 12.375
Q6.95312 13.2969 8.29688 13.8125
Q9.65625 14.3438 11.25 14.3438
Q13.1562 14.3438 14.5469 13.6719
Q15.9531 13 16.8906 11.8281
Q17.8438 10.6562 18.2969 9.125
Q18.75 7.59375 18.75 5.90625
Q18.75 3.5 18.0156 0.84375
Q17.2969 -1.79688 15.8906 -4.4375
Q14.5 -7.09375 12.4531 -9.59375
Q10.4062 -12.0938 7.75 -14.2031
L5.59375 -12.25
Q4.70312 -11.5 4.70312 -10.4062
Q4.70312 -10 4.96875 -9.5
Q5.25 -9 5.65625 -8.59375
Q6.20312 -8 7 -7.125
Q7.79688 -6.25 8.59375 -5.125
Q9.40625 -4 10.0781 -2.67188
Q10.75 -1.34375 11.0469 0.15625
Q9.5 0.15625 8.20312 0.71875
Q6.90625 1.29688 5.96875 2.29688
Q5.04688 3.29688 4.51562 4.64062
Q4 6 4 7.59375" id="Lato-Bold-2c"/>
     <path d="
M27.7969 52.0938
Q32.6562 52.0938 36.7188 50.5469
Q40.7969 49 43.75 46.0156
Q46.7031 43.0469 48.3438 38.7188
Q50 34.4062 50 28.8438
Q50 27.4531 49.875 26.5156
Q49.75 25.5938 49.4219 25.0625
Q49.0938 24.5469 48.5469 24.3125
Q48 24.0938 47.1562 24.0938
L15.4531 24.0938
Q16 16.2031 19.7031 12.5
Q23.4062 8.79688 29.5 8.79688
Q32.5 8.79688 34.6719 9.5
Q36.8438 10.2031 38.4688 11.0469
Q40.0938 11.9062 41.3125 12.5938
Q42.5469 13.2969 43.7031 13.2969
Q44.4531 13.2969 45 13
Q45.5469 12.7031 45.9531 12.1562
L49.5469 7.65625
Q47.5 5.25 44.9531 3.625
Q42.4062 2 39.625 1.01562
Q36.8438 0.046875 33.9688 -0.34375
Q31.0938 -0.75 28.4062 -0.75
Q23.0469 -0.75 18.4375 1.01562
Q13.8438 2.79688 10.4375 6.26562
Q7.04688 9.75 5.09375 14.875
Q3.15625 20 3.15625 26.75
Q3.15625 32 4.84375 36.625
Q6.54688 41.25 9.71875 44.6719
Q12.9062 48.0938 17.4688 50.0938
Q22.0469 52.0938 27.7969 52.0938
M28.0469 43.25
Q22.6562 43.25 19.5938 40.2031
Q16.5469 37.1562 15.7031 31.5469
L38.9062 31.5469
Q38.9062 33.9531 38.25 36.0781
Q37.5938 38.2031 36.25 39.7969
Q34.9062 41.4062 32.8438 42.3281
Q30.7969 43.25 28.0469 43.25" id="Lato-Bold-65"/>
     <path d="
M42.7031 0
Q40.2969 0 39.5469 2.25
L38.5469 7.20312
Q36.9531 5.40625 35.2031 3.95312
Q33.4531 2.5 31.4219 1.45312
Q29.4062 0.40625 27.0781 -0.171875
Q24.75 -0.75 22.0469 -0.75
Q17.8438 -0.75 14.3438 1
Q10.8438 2.75 8.3125 6.07812
Q5.79688 9.40625 4.42188 14.2969
Q3.04688 19.2031 3.04688 25.5
Q3.04688 31.2031 4.59375 36.0938
Q6.15625 41 9.04688 44.5938
Q11.9531 48.2031 16 50.2188
Q20.0469 52.25 25.0938 52.25
Q29.4062 52.25 32.4531 50.875
Q35.5 49.5 37.9062 47.2031
L37.9062 74.2969
L50.25 74.2969
L50.25 0
z

M26.25 9.04688
Q30.0938 9.04688 32.7969 10.6406
Q35.5 12.25 37.9062 15.2031
L37.9062 38.2031
Q35.7969 40.75 33.3125 41.7969
Q30.8438 42.8438 28 42.8438
Q25.2031 42.8438 22.9219 41.7969
Q20.6562 40.75 19.0781 38.625
Q17.5 36.5 16.6406 33.2188
Q15.7969 29.9531 15.7969 25.5
Q15.7969 21 16.5156 17.875
Q17.25 14.75 18.5938 12.7656
Q19.9531 10.7969 21.8906 9.92188
Q23.8438 9.04688 26.25 9.04688" id="Lato-Bold-64"/>
     <path d="
M6.79688 29.4062
L51.0938 29.4062
L51.0938 20.2031
L6.79688 20.2031
z

M6.79688 47
L51.0938 47
L51.0938 37.8438
L6.79688 37.8438
z
" id="Lato-Bold-3d"/>
    </defs>
    <g style="fill:#262626;" transform="translate(116.85203125 43.56)scale(0.12 -0.12)">
     <use xlink:href="#Lato-Bold-64"/>
     <use x="57.0" xlink:href="#Lato-Bold-65"/>
     <use x="110.450012207" xlink:href="#Lato-Bold-67"/>
     <use x="162.200012207" xlink:href="#Lato-Bold-31"/>
     <use x="220.200012207" xlink:href="#Lato-Bold-20"/>
     <use x="239.500015259" xlink:href="#Lato-Bold-3d"/>
     <use x="297.500015259" xlink:href="#Lato-Bold-20"/>
     <use x="316.800018311" xlink:href="#Lato-Bold-36"/>
     <use x="374.800018311" xlink:href="#Lato-Bold-2c"/>
     <use x="397.300018311" xlink:href="#Lato-Bold-20"/>
     <use x="416.600021362" xlink:href="#Lato-Bold-20"/>
     <use x="435.900024414" xlink:href="#Lato-Bold-64"/>
     <use x="492.900024414" xlink:href="#Lato-Bold-65"/>
     <use x="546.350036621" xlink:href="#Lato-Bold-67"/>
     <use x="598.100036621" xlink:href="#Lato-Bold-32"/>
     <use x="656.100036621" xlink:href="#Lato-Bold-20"/>
     <use x="675.400039673" xlink:href="#Lato-Bold-3d"/>
     <use x="733.400039673" xlink:href="#Lato-Bold-20"/>
     <use x="752.700042725" xlink:href="#Lato-Bold-36"/>
    </g>
   </g>
  </g>
 </g>
 <defs>
  <clipPath id="pa5675e0e1b">
   <rect height="177.98" width="171.3221875" x="79.6428125" y="48.56"/>
  </clipPath>
 </defs>
</svg>
