<svg class="marks" width="810" height="750" xmlns="http://www.w3.org/2000/svg"><g transform="translate(46,222)"><g id="g1" class="type-group"><g transform="translate(0,0)"><rect class="background" style="pointer-events: none; fill: none; " width="672" height="480"></rect><g id="g2" class="type-group"><g transform="translate(0,480)"><rect class="background" style="pointer-events: none; fill: none; " width="0" height="0"></rect><g id="g3" class="type-rule" style="pointer-events: none; "></g><g id="g4" class="type-rule" style="pointer-events: none; "><line x1="6.609090909090781" y1="0" x2="6.609090909090781" y2="6" style="fill: none; stroke: #000000; stroke-width: 1px; opacity: 1; "></line><line x1="55.48181818181811" y1="0" x2="55.48181818181811" y2="6" style="fill: none; stroke: #000000; stroke-width: 1px; opacity: 1; "></line><line x1="104.35454545454544" y1="0" x2="104.35454545454544" y2="6" style="fill: none; stroke: #000000; stroke-width: 1px; opacity: 1; "></line><line x1="153.22727272727278" y1="0" x2="153.22727272727278" y2="6" style="fill: none; stroke: #000000; stroke-width: 1px; opacity: 1; "></line><line x1="202.09999999999985" y1="0" x2="202.09999999999985" y2="6" style="fill: none; stroke: #000000; stroke-width: 1px; opacity: 1; "></line><line x1="250.97272727272718" y1="0" x2="250.97272727272718" y2="6" style="fill: none; stroke: #000000; stroke-width: 1px; opacity: 1; "></line><line x1="299.8454545454545" y1="0" x2="299.8454545454545" y2="6" style="fill: none; stroke: #000000; stroke-width: 1px; opacity: 1; "></line><line x1="348.71818181818185" y1="0" x2="348.71818181818185" y2="6" style="fill: none; stroke: #000000; stroke-width: 1px; opacity: 1; "></line><line x1="397.5909090909092" y1="0" x2="397.5909090909092" y2="6" style="fill: none; stroke: #000000; stroke-width: 1px; opacity: 1; "></line><line x1="446.46363636363645" y1="0" x2="446.46363636363645" y2="6" style="fill: none; stroke: #000000; stroke-width: 1px; opacity: 1; "></line><line x1="495.33636363636356" y1="0" x2="495.33636363636356" y2="6" style="fill: none; stroke: #000000; stroke-width: 1px; opacity: 1; "></line><line x1="544.209090909091" y1="0" x2="544.209090909091" y2="6" style="fill: none; stroke: #000000; stroke-width: 1px; opacity: 1; "></line><line x1="593.0818181818182" y1="0" x2="593.0818181818182" y2="6" style="fill: none; stroke: #000000; stroke-width: 1px; opacity: 1; "></line><line x1="641.9545454545456" y1="0" x2="641.9545454545456" y2="6" style="fill: none; stroke: #000000; stroke-width: 1px; opacity: 1; "></line></g><g id="g5" class="type-rule" style="pointer-events: none; "></g><g id="g6" class="type-text"><text x="6.609090909090781" y="9" text-anchor="middle" dy=".9em" style="font: normal normal normal 11px/normal sans-serif; fill: #000000; opacity: 1; ">0.74</text><text x="55.48181818181811" y="9" text-anchor="middle" dy=".9em" style="font: normal normal normal 11px/normal sans-serif; fill: #000000; opacity: 1; ">0.76</text><text x="104.35454545454544" y="9" text-anchor="middle" dy=".9em" style="font: normal normal normal 11px/normal sans-serif; fill: #000000; opacity: 1; ">0.78</text><text x="153.22727272727278" y="9" text-anchor="middle" dy=".9em" style="font: normal normal normal 11px/normal sans-serif; fill: #000000; opacity: 1; ">0.80</text><text x="202.09999999999985" y="9" text-anchor="middle" dy=".9em" style="font: normal normal normal 11px/normal sans-serif; fill: #000000; opacity: 1; ">0.82</text><text x="250.97272727272718" y="9" text-anchor="middle" dy=".9em" style="font: normal normal normal 11px/normal sans-serif; fill: #000000; opacity: 1; ">0.84</text><text x="299.8454545454545" y="9" text-anchor="middle" dy=".9em" style="font: normal normal normal 11px/normal sans-serif; fill: #000000; opacity: 1; ">0.86</text><text x="348.71818181818185" y="9" text-anchor="middle" dy=".9em" style="font: normal normal normal 11px/normal sans-serif; fill: #000000; opacity: 1; ">0.88</text><text x="397.5909090909092" y="9" text-anchor="middle" dy=".9em" style="font: normal normal normal 11px/normal sans-serif; fill: #000000; opacity: 1; ">0.90</text><text x="446.46363636363645" y="9" text-anchor="middle" dy=".9em" style="font: normal normal normal 11px/normal sans-serif; fill: #000000; opacity: 1; ">0.92</text><text x="495.33636363636356" y="9" text-anchor="middle" dy=".9em" style="font: normal normal normal 11px/normal sans-serif; fill: #000000; opacity: 1; ">0.94</text><text x="544.209090909091" y="9" text-anchor="middle" dy=".9em" style="font: normal normal normal 11px/normal sans-serif; fill: #000000; opacity: 1; ">0.96</text><text x="593.0818181818182" y="9" text-anchor="middle" dy=".9em" style="font: normal normal normal 11px/normal sans-serif; fill: #000000; opacity: 1; ">0.98</text><text x="641.9545454545456" y="9" text-anchor="middle" dy=".9em" style="font: normal normal normal 11px/normal sans-serif; fill: #000000; opacity: 1; ">1.00</text></g><g id="g7" class="type-path" style="pointer-events: none; "><path transform="translate(0.5,0.5)" d="M0,6V0H672V6" style="fill: none; stroke: #000000; stroke-width: 1px; "></path></g><g id="g8" class="type-text"><text x="336" y="35" text-anchor="middle" dy=".35em" style="font: normal normal bold 11px/normal sans-serif; fill: #000000; ">kappa</text></g></g></g><g id="g9" class="type-group"><g transform="translate(0,0)"><rect class="background" style="pointer-events: none; fill: none; " width="0" height="0"></rect><g id="g10" class="type-rule" style="pointer-events: none; "></g><g id="g11" class="type-rule" style="pointer-events: none; "><line x1="-6" y1="396.2775162308973" x2="0" y2="396.2775162308973" style="fill: none; stroke: #000000; stroke-width: 1px; opacity: 1; "></line><line x1="-6" y1="92.60317341318103" x2="0" y2="92.60317341318103" style="fill: none; stroke: #000000; stroke-width: 1px; opacity: 1; "></line><line x1="-6" y1="-211.07116940453523" x2="0" y2="-211.07116940453523" style="fill: none; stroke: #000000; stroke-width: 1px; opacity: 1; "></line></g><g id="g12" class="type-rule" style="pointer-events: none; "></g><g id="g13" class="type-text"><text x="-9" y="396.2775162308973" text-anchor="end" dy=".35em" style="font: normal normal normal 11px/normal sans-serif; fill: #000000; opacity: 1; ">1.0</text><text x="-9" y="92.60317341318103" text-anchor="end" dy=".35em" style="font: normal normal normal 11px/normal sans-serif; fill: #000000; opacity: 1; ">2.0</text><text x="-9" y="-211.07116940453523" text-anchor="end" dy=".35em" style="font: normal normal normal 11px/normal sans-serif; fill: #000000; opacity: 1; ">3.0</text></g><g id="g14" class="type-path" style="pointer-events: none; "><path transform="translate(0.5,0.5)" d="M-6,0H0V480H-6" style="fill: none; stroke: #000000; stroke-width: 1px; "></path></g><g id="g15" class="type-text"><text x="-35" y="240" text-anchor="middle" transform="rotate(-90 -35,240)" dy=".35em" style="font: normal normal bold 11px/normal sans-serif; fill: #000000; ">dist_jitter</text></g></g></g><g id="g16" class="type-symbol"><path transform="translate(397.0909090909092,401.239002667199)" d="M0,2.5231325220201604A2.5231325220201604,2.5231325220201604 0 1,1 0,-2.5231325220201604A2.5231325220201604,2.5231325220201604 0 1,1 0,2.5231325220201604Z" style="fill: #1f77b4; "></path><path transform="translate(397.0909090909092,458.1818181818182)" d="M0,2.5231325220201604A2.5231325220201604,2.5231325220201604 0 1,1 0,-2.5231325220201604A2.5231325220201604,2.5231325220201604 0 1,1 0,2.5231325220201604Z" style="fill: #1f77b4; "></path><path transform="translate(152.72727272727278,384.644084102318)" d="M0,2.5231325220201604A2.5231325220201604,2.5231325220201604 0 1,1 0,-2.5231325220201604A2.5231325220201604,2.5231325220201604 0 1,1 0,2.5231325220201604Z" style="fill: #1f77b4; "></path><path transform="translate(397.0909090909092,95.09130796894493)" d="M0,2.5231325220201604A2.5231325220201604,2.5231325220201604 0 1,1 0,-2.5231325220201604A2.5231325220201604,2.5231325220201604 0 1,1 0,2.5231325220201604Z" style="fill: #1f77b4; "></path><path transform="translate(274.9090909090909,21.818181818179312)" d="M0,2.5231325220201604A2.5231325220201604,2.5231325220201604 0 1,1 0,-2.5231325220201604A2.5231325220201604,2.5231325220201604 0 1,1 0,2.5231325220201604Z" style="fill: #1f77b4; "></path><path transform="translate(30.545454545454447,349.95999090253315)" d="M0,2.5231325220201604A2.5231325220201604,2.5231325220201604 0 1,1 0,-2.5231325220201604A2.5231325220201604,2.5231325220201604 0 1,1 0,2.5231325220201604Z" style="fill: #1f77b4; "></path><path transform="translate(30.545454545454447,292.34231113710763)" d="M0,2.5231325220201604A2.5231325220201604,2.5231325220201604 0 1,1 0,-2.5231325220201604A2.5231325220201604,2.5231325220201604 0 1,1 0,2.5231325220201604Z" style="fill: #1f77b4; "></path><path transform="translate(641.4545454545456,179.98536233518502)" d="M0,2.5231325220201604A2.5231325220201604,2.5231325220201604 0 1,1 0,-2.5231325220201604A2.5231325220201604,2.5231325220201604 0 1,1 0,2.5231325220201604Z" style="fill: #ff7f0e; "></path></g><g id="g17" class="type-group"><g transform="translate(683.5,0)"><rect class="background" style="pointer-events: none; fill: none; " width="75" height="46"></rect><g id="g18" class="type-text" style="pointer-events: none; "><text x="3" y="3" text-anchor="start" dy=".9em" style="font: normal normal bold 11px/normal sans-serif; fill: #000000; opacity: 1; ">t1_nwk</text></g><g id="g19" class="type-symbol" style="pointer-events: none; "><path transform="translate(7.5,23)" d="M0,3.989422804014327A3.989422804014327,3.989422804014327 0 1,1 0,-3.989422804014327A3.989422804014327,3.989422804014327 0 1,1 0,3.989422804014327Z" style="fill: #1f77b4; stroke: #888888; stroke-width: 1px; opacity: 1; "></path><path transform="translate(7.5,38)" d="M0,3.989422804014327A3.989422804014327,3.989422804014327 0 1,1 0,-3.989422804014327A3.989422804014327,3.989422804014327 0 1,1 0,3.989422804014327Z" style="fill: #ff7f0e; stroke: #888888; stroke-width: 1px; opacity: 1; "></path></g><g id="g20" class="type-text" style="pointer-events: none; "><text x="16" y="23" text-anchor="start" dy=".35em" style="font: normal normal normal 10px/normal sans-serif; fill: #000000; opacity: 1; ">(((1,2),3),4);</text><text x="16" y="38" text-anchor="start" dy=".35em" style="font: normal normal normal 10px/normal sans-serif; fill: #000000; opacity: 1; ">((1,2),(3,4));</text></g></g></g><g id="g21" class="type-group"><g transform="translate(683.5,0.5)"><rect class="background" style="pointer-events: none; fill: none; " width="6" height="6"></rect><g id="g22" class="type-text" style="pointer-events: none; "></g><g id="g23" class="type-symbol" style="pointer-events: none; "></g><g id="g24" class="type-text" style="pointer-events: none; "></g></g></g></g></g></g></svg>